<svg width="48" height="15" viewBox="0 0 48 15" fill="none" xmlns="http://www.w3.org/2000/svg">
<path d="M48 10.9209L47.5859 10.9922L24.4531 15.0068L24.3691 14.9932L0.417969 10.9932L0 10.9238V7H48V10.9209ZM3 0C4.65685 0 6 1.34315 6 3C6 4.65685 4.65685 6 3 6C1.34315 6 0 4.65685 0 3C0 1.34315 1.34315 0 3 0ZM17 0C18.6569 0 20 1.34315 20 3C20 4.65685 18.6569 6 17 6C15.3431 6 14 4.65685 14 3C14 1.34315 15.3431 0 17 0ZM31 0C32.6569 0 34 1.34315 34 3C34 4.65685 32.6569 6 31 6C29.3431 6 28 4.65685 28 3C28 1.34315 29.3431 0 31 0ZM45 0C46.6569 0 48 1.34315 48 3C48 4.65685 46.6569 6 45 6C43.3431 6 42 4.65685 42 3C42 1.34315 43.3431 0 45 0Z" fill="#FE3B2E"/>
</svg>
