<svg width="45" height="13" viewBox="0 0 45 13" fill="none" xmlns="http://www.w3.org/2000/svg">
<path d="M38.5 0C42.0899 5.15405e-07 45 2.91015 45 6.5C45 10.0899 42.0899 13 38.5 13H6.5C2.91015 13 0 10.0899 0 6.5C0 2.91015 2.91015 1.53011e-07 6.5 0H38.5ZM6.5 2C4.01472 2 2 4.01472 2 6.5C2 8.98528 4.01472 11 6.5 11C8.98528 11 11 8.98528 11 6.5C11 4.01472 8.98528 2 6.5 2ZM21 9C21 9.53043 21.2109 10.039 21.5859 10.4141C21.961 10.7891 22.4696 11 23 11C23.5304 11 24.039 10.7891 24.4141 10.4141C24.7891 10.039 25 9.53043 25 9H21ZM38.5 2C36.0147 2 34 4.01472 34 6.5C34 8.98528 36.0147 11 38.5 11C40.9853 11 43 8.98528 43 6.5C43 4.01472 40.9853 2 38.5 2Z" fill="#FE3B2E"/>
</svg>
