<svg width="56" height="23" viewBox="0 0 56 23" fill="none" xmlns="http://www.w3.org/2000/svg">
<path d="M26.8179 5.01318C27.1121 3.76548 28.8879 3.76548 29.1821 5.01318L29.4444 6.12545C29.6434 6.96945 30.6373 7.33898 31.3393 6.83L33.8908 4.9802C34.7342 4.36873 35.7615 5.45465 35.1043 6.26289C34.55 6.94452 35.2131 7.93192 36.0538 7.67672L48.8081 3.805L42.3892 6.6852C41.1383 7.24653 41.6308 9.1268 42.9963 9.00279L54.6296 7.9463L46.0348 9.4835C44.636 9.73368 44.7312 11.7706 46.1472 11.8893L55.8466 12.7021L45.0796 12.6659C43.6738 12.6612 43.3847 14.6502 44.7337 15.0458L52.2487 17.25L38.0599 14.5981C37.2705 14.4506 36.8373 15.4834 37.4958 15.9432C38.2429 16.4647 37.5815 17.615 36.7549 17.2317L33.688 15.8095C32.8819 15.4357 32.0073 16.1767 32.2438 17.0333L32.2909 17.2041C32.6196 18.3946 31.0677 19.1683 30.3147 18.1893L28.9627 16.4316C28.4765 15.7995 27.5235 15.7995 27.0373 16.4316L25.6853 18.1894C24.9323 19.1683 23.3804 18.3946 23.7091 17.2041L23.7562 17.0333C23.9927 16.1767 23.1181 15.4357 22.312 15.8095L19.2451 17.2317C18.4185 17.615 17.7571 16.4647 18.5042 15.9432C19.1627 15.4834 18.7295 14.4506 17.9401 14.5981L3.75129 17.25L11.2663 15.0458C12.6153 14.6502 12.3262 12.6612 10.9204 12.6659L0.153387 12.7021L9.85279 11.8893C11.2688 11.7706 11.364 9.73368 9.96519 9.4835L1.37042 7.9463L13.0037 9.00279C14.3692 9.1268 14.8617 7.24653 13.6108 6.6852L7.19194 3.805L19.9462 7.67672C20.7869 7.93192 21.45 6.94452 20.8957 6.26289C20.2385 5.45465 21.2658 4.36873 22.1092 4.9802L24.6607 6.82999C25.3627 7.33898 26.3566 6.96945 26.5556 6.12545L26.8179 5.01318Z" fill="#FE3B2E"/>
<circle cx="28" cy="18" r="0.5" fill="#2B2B2B" stroke="#2B2B2B"/>
<circle cx="25" cy="5" r="0.5" fill="#2B2B2B" stroke="#2B2B2B"/>
<circle cx="22" cy="18" r="0.5" fill="#2B2B2B" stroke="#2B2B2B"/>
<circle cx="34" cy="18" r="0.5" fill="#2B2B2B" stroke="#2B2B2B"/>
<circle cx="31" cy="5" r="0.5" fill="#2B2B2B" stroke="#2B2B2B"/>
</svg>
