<svg width="407" height="203" viewBox="0 0 407 203" fill="none" xmlns="http://www.w3.org/2000/svg">
<path d="M271.531 4.5L224.694 40.6035L224.5 40.7539V144.923L224.917 144.993L403.5 174.923V198.5H4.5L4.5 4.5L271.531 4.5Z" fill="#2B2B2B" stroke="#FE3B2E"/>
<rect x="30.5" y="20.5" width="73" height="25" fill="black" stroke="#8CFFFD"/>
<rect x="123.5" y="20.5" width="73" height="25" fill="black" stroke="#8CFFFD"/>
<rect x="30.5" y="150.5" width="73" height="33" fill="black" stroke="#8CFFFD"/>
<rect x="123.5" y="150.5" width="73" height="33" fill="black" stroke="#8CFFFD"/>
<path d="M35.882 93.004H37.478L37.478 103H35.882L35.882 93.004ZM39.2589 93.004L40.8549 93.004V94.516L39.2589 94.516V93.004ZM39.2589 95.762L40.8549 95.762L40.8549 103L39.2589 103L39.2589 95.762ZM48.6559 101.39C48.6559 101.586 48.6792 101.726 48.7259 101.81C48.7819 101.894 48.8846 101.936 49.0339 101.936C49.0806 101.936 49.1366 101.936 49.2019 101.936C49.2672 101.936 49.3419 101.927 49.4259 101.908L49.4259 103.014C49.3699 103.033 49.2952 103.051 49.2019 103.07C49.1179 103.098 49.0292 103.121 48.9359 103.14C48.8426 103.159 48.7492 103.173 48.6559 103.182C48.5626 103.191 48.4832 103.196 48.4179 103.196C48.0912 103.196 47.8206 103.131 47.6059 103C47.3912 102.869 47.2512 102.641 47.1859 102.314C46.8686 102.622 46.4766 102.846 46.0099 102.986C45.5526 103.126 45.1092 103.196 44.6799 103.196C44.3532 103.196 44.0406 103.149 43.7419 103.056C43.4432 102.972 43.1772 102.846 42.9439 102.678C42.7199 102.501 42.5379 102.281 42.3979 102.02C42.2672 101.749 42.2019 101.437 42.2019 101.082C42.2019 100.634 42.2812 100.27 42.4399 99.99C42.6079 99.71 42.8226 99.4907 43.0839 99.332C43.3546 99.1733 43.6532 99.0613 43.9799 98.996C44.3159 98.9213 44.6519 98.8653 44.9879 98.828C45.2772 98.772 45.5526 98.7347 45.8139 98.716C46.0752 98.688 46.3039 98.646 46.4999 98.59C46.7052 98.534 46.8639 98.45 46.9759 98.338C47.0972 98.2167 47.1579 98.0393 47.1579 97.806C47.1579 97.6007 47.1066 97.4327 47.0039 97.302C46.9106 97.1713 46.7892 97.0733 46.6399 97.008C46.4999 96.9333 46.3412 96.8867 46.1639 96.868C45.9866 96.84 45.8186 96.826 45.6599 96.826C45.2119 96.826 44.8432 96.9193 44.5539 97.106C44.2646 97.2927 44.1012 97.582 44.0639 97.974H42.4679C42.4959 97.5073 42.6079 97.12 42.8039 96.812C42.9999 96.504 43.2472 96.2567 43.5459 96.07C43.8539 95.8833 44.1992 95.7527 44.5819 95.678C44.9646 95.6033 45.3566 95.566 45.7579 95.566C46.1126 95.566 46.4626 95.6033 46.8079 95.678C47.1532 95.7527 47.4612 95.874 47.7319 96.042C48.0119 96.21 48.2359 96.4293 48.4039 96.7C48.5719 96.9613 48.6559 97.2833 48.6559 97.666L48.6559 101.39ZM47.0599 99.374C46.8172 99.5327 46.5186 99.6307 46.1639 99.668C45.8092 99.696 45.4546 99.7427 45.0999 99.808C44.9319 99.836 44.7686 99.878 44.6099 99.934C44.4512 99.9807 44.3112 100.051 44.1899 100.144C44.0686 100.228 43.9706 100.345 43.8959 100.494C43.8306 100.634 43.7979 100.807 43.7979 101.012C43.7979 101.189 43.8492 101.339 43.9519 101.46C44.0546 101.581 44.1759 101.679 44.3159 101.754C44.4652 101.819 44.6239 101.866 44.7919 101.894C44.9692 101.922 45.1279 101.936 45.2679 101.936C45.4452 101.936 45.6366 101.913 45.8419 101.866C46.0472 101.819 46.2386 101.74 46.4159 101.628C46.6026 101.516 46.7566 101.376 46.8779 101.208C46.9992 101.031 47.0599 100.816 47.0599 100.564L47.0599 99.374ZM50.3732 95.762H51.8852V96.826L51.9132 96.854C52.1559 96.4527 52.4732 96.14 52.8652 95.916C53.2572 95.6827 53.6912 95.566 54.1672 95.566C54.9605 95.566 55.5859 95.7713 56.0432 96.182C56.5005 96.5927 56.7292 97.2087 56.7292 98.03L56.7292 103L55.1332 103L55.1332 98.45C55.1145 97.8807 54.9932 97.47 54.7692 97.218C54.5452 96.9567 54.1952 96.826 53.7192 96.826C53.4485 96.826 53.2059 96.8773 52.9912 96.98C52.7765 97.0733 52.5945 97.2087 52.4452 97.386C52.2959 97.554 52.1792 97.7547 52.0952 97.988C52.0112 98.2213 51.9692 98.4687 51.9692 98.73L51.9692 103H50.3732L50.3732 95.762ZM65.1043 102.622C65.1043 103.714 64.7963 104.526 64.1803 105.058C63.5736 105.599 62.6963 105.87 61.5483 105.87C61.1843 105.87 60.8156 105.833 60.4423 105.758C60.0783 105.683 59.7423 105.557 59.4343 105.38C59.1356 105.203 58.8836 104.969 58.6783 104.68C58.4729 104.391 58.3516 104.036 58.3143 103.616H59.9103C59.9569 103.84 60.0363 104.022 60.1483 104.162C60.2603 104.302 60.3909 104.409 60.5403 104.484C60.6989 104.568 60.8716 104.619 61.0583 104.638C61.2449 104.666 61.4409 104.68 61.6463 104.68C62.2903 104.68 62.7616 104.521 63.0603 104.204C63.3589 103.887 63.5083 103.429 63.5083 102.832L63.5083 101.726H63.4803C63.2563 102.127 62.9483 102.44 62.5563 102.664C62.1736 102.888 61.7583 103 61.3103 103C60.7316 103 60.2369 102.902 59.8263 102.706C59.4249 102.501 59.0889 102.225 58.8183 101.88C58.5569 101.525 58.3656 101.119 58.2443 100.662C58.1229 100.205 58.0623 99.7147 58.0623 99.192C58.0623 98.7067 58.1369 98.2447 58.2863 97.806C58.4356 97.3673 58.6503 96.9847 58.9303 96.658C59.2103 96.322 59.5509 96.056 59.9523 95.86C60.3629 95.664 60.8249 95.566 61.3383 95.566C61.7956 95.566 62.2156 95.664 62.5983 95.86C62.9809 96.0467 63.2749 96.3453 63.4803 96.756H63.5083V95.762H65.1043L65.1043 102.622ZM61.5623 101.74C61.9169 101.74 62.2156 101.67 62.4583 101.53C62.7103 101.381 62.9109 101.189 63.0603 100.956C63.2189 100.713 63.3309 100.443 63.3963 100.144C63.4709 99.836 63.5083 99.528 63.5083 99.22C63.5083 98.912 63.4709 98.6133 63.3963 98.324C63.3216 98.0347 63.2049 97.778 63.0463 97.554C62.8969 97.33 62.6963 97.1527 62.4443 97.022C62.2016 96.8913 61.9076 96.826 61.5623 96.826C61.2076 96.826 60.9089 96.9007 60.6663 97.05C60.4236 97.1993 60.2276 97.3953 60.0783 97.638C59.9289 97.8713 59.8216 98.142 59.7563 98.45C59.6909 98.7487 59.6583 99.0473 59.6583 99.346C59.6583 99.6447 59.6956 99.9387 59.7703 100.228C59.8449 100.508 59.9569 100.76 60.1063 100.984C60.2649 101.208 60.4609 101.39 60.6943 101.53C60.9369 101.67 61.2263 101.74 61.5623 101.74ZM77.4256 103H75.9136V102.02H75.8856C75.6709 102.44 75.3582 102.743 74.9476 102.93C74.5369 103.107 74.1029 103.196 73.6456 103.196C73.0762 103.196 72.5769 103.098 72.1476 102.902C71.7276 102.697 71.3776 102.421 71.0976 102.076C70.8176 101.731 70.6076 101.325 70.4676 100.858C70.3276 100.382 70.2576 99.8733 70.2576 99.332C70.2576 98.6787 70.3462 98.114 70.5236 97.638C70.7009 97.162 70.9342 96.77 71.2236 96.462C71.5222 96.154 71.8582 95.93 72.2316 95.79C72.6142 95.6407 73.0016 95.566 73.3936 95.566C73.6176 95.566 73.8462 95.5893 74.0796 95.636C74.3129 95.6733 74.5369 95.7387 74.7516 95.832C74.9662 95.9253 75.1622 96.0467 75.3396 96.196C75.5262 96.336 75.6802 96.504 75.8016 96.7H75.8296L75.8296 93.004H77.4256L77.4256 103ZM71.8536 99.458C71.8536 99.766 71.8909 100.069 71.9656 100.368C72.0496 100.667 72.1709 100.933 72.3296 101.166C72.4976 101.399 72.7076 101.586 72.9596 101.726C73.2116 101.866 73.5102 101.936 73.8556 101.936C74.2102 101.936 74.5136 101.861 74.7656 101.712C75.0269 101.563 75.2369 101.367 75.3956 101.124C75.5636 100.881 75.6849 100.611 75.7596 100.312C75.8436 100.004 75.8856 99.6913 75.8856 99.374C75.8856 98.5713 75.7036 97.946 75.3396 97.498C74.9849 97.05 74.4996 96.826 73.8836 96.826C73.5102 96.826 73.1929 96.9053 72.9316 97.064C72.6796 97.2133 72.4696 97.414 72.3016 97.666C72.1429 97.9087 72.0262 98.1887 71.9516 98.506C71.8862 98.814 71.8536 99.1313 71.8536 99.458ZM85.2282 101.39C85.2282 101.586 85.2515 101.726 85.2982 101.81C85.3542 101.894 85.4568 101.936 85.6062 101.936C85.6528 101.936 85.7088 101.936 85.7742 101.936C85.8395 101.936 85.9142 101.927 85.9982 101.908V103.014C85.9422 103.033 85.8675 103.051 85.7742 103.07C85.6902 103.098 85.6015 103.121 85.5082 103.14C85.4148 103.159 85.3215 103.173 85.2282 103.182C85.1348 103.191 85.0555 103.196 84.9902 103.196C84.6635 103.196 84.3928 103.131 84.1782 103C83.9635 102.869 83.8235 102.641 83.7582 102.314C83.4408 102.622 83.0488 102.846 82.5822 102.986C82.1248 103.126 81.6815 103.196 81.2522 103.196C80.9255 103.196 80.6128 103.149 80.3142 103.056C80.0155 102.972 79.7495 102.846 79.5162 102.678C79.2922 102.501 79.1102 102.281 78.9702 102.02C78.8395 101.749 78.7742 101.437 78.7742 101.082C78.7742 100.634 78.8535 100.27 79.0122 99.99C79.1802 99.71 79.3948 99.4907 79.6562 99.332C79.9268 99.1733 80.2255 99.0613 80.5522 98.996C80.8882 98.9213 81.2242 98.8653 81.5602 98.828C81.8495 98.772 82.1248 98.7347 82.3862 98.716C82.6475 98.688 82.8762 98.646 83.0722 98.59C83.2775 98.534 83.4362 98.45 83.5482 98.338C83.6695 98.2167 83.7302 98.0393 83.7302 97.806C83.7302 97.6007 83.6788 97.4327 83.5762 97.302C83.4828 97.1713 83.3615 97.0733 83.2122 97.008C83.0722 96.9333 82.9135 96.8867 82.7362 96.868C82.5588 96.84 82.3908 96.826 82.2322 96.826C81.7842 96.826 81.4155 96.9193 81.1262 97.106C80.8368 97.2927 80.6735 97.582 80.6362 97.974L79.0402 97.974C79.0682 97.5073 79.1802 97.12 79.3762 96.812C79.5722 96.504 79.8195 96.2567 80.1182 96.07C80.4262 95.8833 80.7715 95.7527 81.1542 95.678C81.5368 95.6033 81.9288 95.566 82.3302 95.566C82.6848 95.566 83.0348 95.6033 83.3802 95.678C83.7255 95.7527 84.0335 95.874 84.3042 96.042C84.5842 96.21 84.8082 96.4293 84.9762 96.7C85.1442 96.9613 85.2282 97.2833 85.2282 97.666L85.2282 101.39ZM83.6322 99.374C83.3895 99.5327 83.0908 99.6307 82.7362 99.668C82.3815 99.696 82.0268 99.7427 81.6722 99.808C81.5042 99.836 81.3408 99.878 81.1822 99.934C81.0235 99.9807 80.8835 100.051 80.7622 100.144C80.6408 100.228 80.5428 100.345 80.4682 100.494C80.4028 100.634 80.3702 100.807 80.3702 101.012C80.3702 101.189 80.4215 101.339 80.5242 101.46C80.6268 101.581 80.7482 101.679 80.8882 101.754C81.0375 101.819 81.1962 101.866 81.3642 101.894C81.5415 101.922 81.7002 101.936 81.8402 101.936C82.0175 101.936 82.2088 101.913 82.4142 101.866C82.6195 101.819 82.8108 101.74 82.9882 101.628C83.1748 101.516 83.3288 101.376 83.4502 101.208C83.5715 101.031 83.6322 100.816 83.6322 100.564V99.374ZM86.9875 93.004L88.5835 93.004V94.516L86.9875 94.516V93.004ZM86.9875 95.762L88.5835 95.762L88.5835 103L86.9875 103L86.9875 95.762ZM94.3264 103C94.2051 102.692 94.0791 102.407 93.9484 102.146C93.8271 101.875 93.6731 101.586 93.4864 101.278C93.2997 100.97 93.0664 100.611 92.7864 100.2C92.5064 99.7893 92.1517 99.29 91.7224 98.702C91.1717 97.946 90.7797 97.2973 90.5464 96.756C90.3131 96.2147 90.1964 95.6873 90.1964 95.174C90.1964 94.7633 90.2991 94.39 90.5044 94.054C90.7191 93.7087 90.9991 93.438 91.3444 93.242C91.6991 93.0367 92.0817 92.934 92.4924 92.934C92.9311 92.934 93.3371 93.046 93.7104 93.27C94.0931 93.494 94.4057 93.8347 94.6484 94.292C94.9004 93.8347 95.2177 93.494 95.6004 93.27C95.9831 93.046 96.3937 92.934 96.8324 92.934C97.2337 92.934 97.6071 93.0367 97.9524 93.242C98.3071 93.438 98.5917 93.7087 98.8064 94.054C99.0211 94.39 99.1284 94.7633 99.1284 95.174C99.1284 95.5007 99.0817 95.8367 98.9884 96.182C98.9044 96.518 98.7504 96.8913 98.5264 97.302C98.3024 97.7033 97.9944 98.1747 97.6024 98.716C97.1731 99.3133 96.8137 99.822 96.5244 100.242C96.2351 100.653 95.9971 101.012 95.8104 101.32C95.6331 101.628 95.4791 101.913 95.3484 102.174C95.2177 102.435 95.0964 102.711 94.9844 103H94.3264ZM94.6484 101.782C94.8257 101.427 95.0637 101.017 95.3624 100.55C95.6704 100.083 96.0297 99.5653 96.4404 98.996C96.8511 98.4267 97.1871 97.9367 97.4484 97.526C97.7097 97.1153 97.8964 96.7887 98.0084 96.546C98.2324 96.0513 98.3444 95.594 98.3444 95.174C98.3444 94.9033 98.2744 94.6607 98.1344 94.446C97.9944 94.222 97.8077 94.0447 97.5744 93.914C97.3504 93.7833 97.1031 93.718 96.8324 93.718C96.4311 93.718 96.0671 93.886 95.7404 94.222C95.4137 94.5487 95.1711 95.0013 95.0124 95.58H94.2984C94.1211 94.9453 93.8691 94.4787 93.5424 94.18C93.2251 93.872 92.8751 93.718 92.4924 93.718C92.2311 93.718 91.9837 93.7833 91.7504 93.914C91.5171 94.0447 91.3304 94.222 91.1904 94.446C91.0504 94.6607 90.9804 94.9033 90.9804 95.174C90.9804 95.566 91.0877 96.014 91.3024 96.518C91.5077 96.994 92.0211 97.792 92.8424 98.912C93.2531 99.4533 93.6077 99.9667 93.9064 100.452C94.2051 100.928 94.4524 101.371 94.6484 101.782Z" fill="#E9E8E8"/>
<path d="M37.216 27.576H42.256C43.0667 27.576 43.728 27.6933 44.24 27.928C44.752 28.1627 45.1467 28.456 45.424 28.808C45.7013 29.16 45.888 29.544 45.984 29.96C46.0907 30.376 46.144 30.76 46.144 31.112C46.144 31.464 46.0907 31.848 45.984 32.264C45.888 32.6693 45.7013 33.048 45.424 33.4C45.1467 33.752 44.752 34.0453 44.24 34.28C43.728 34.504 43.0667 34.616 42.256 34.616H39.216V39H37.216V27.576ZM39.216 32.984H42.144C42.368 32.984 42.5973 32.952 42.832 32.888C43.0667 32.824 43.28 32.7227 43.472 32.584C43.6747 32.4347 43.8347 32.2427 43.952 32.008C44.08 31.7627 44.144 31.4587 44.144 31.096C44.144 30.7227 44.0907 30.4133 43.984 30.168C43.8773 29.9227 43.7333 29.7307 43.552 29.592C43.3707 29.4427 43.1627 29.3413 42.928 29.288C42.6933 29.2347 42.4427 29.208 42.176 29.208H39.216V32.984ZM51.4239 39.224C50.7625 39.224 50.1705 39.1173 49.6479 38.904C49.1359 38.68 48.6985 38.376 48.3359 37.992C47.9839 37.608 47.7119 37.1493 47.5199 36.616C47.3385 36.0827 47.2479 35.496 47.2479 34.856C47.2479 34.2267 47.3385 33.6453 47.5199 33.112C47.7119 32.5787 47.9839 32.12 48.3359 31.736C48.6985 31.352 49.1359 31.0533 49.6479 30.84C50.1705 30.616 50.7625 30.504 51.4239 30.504C52.0852 30.504 52.6719 30.616 53.1839 30.84C53.7065 31.0533 54.1439 31.352 54.4959 31.736C54.8585 32.12 55.1305 32.5787 55.3119 33.112C55.5039 33.6453 55.5999 34.2267 55.5999 34.856C55.5999 35.496 55.5039 36.0827 55.3119 36.616C55.1305 37.1493 54.8585 37.608 54.4959 37.992C54.1439 38.376 53.7065 38.68 53.1839 38.904C52.6719 39.1173 52.0852 39.224 51.4239 39.224ZM51.4239 37.784C51.8292 37.784 52.1812 37.6987 52.4799 37.528C52.7785 37.3573 53.0239 37.1333 53.2159 36.856C53.4079 36.5787 53.5465 36.2693 53.6319 35.928C53.7279 35.576 53.7759 35.2187 53.7759 34.856C53.7759 34.504 53.7279 34.152 53.6319 33.8C53.5465 33.448 53.4079 33.1387 53.2159 32.872C53.0239 32.5947 52.7785 32.3707 52.4799 32.2C52.1812 32.0293 51.8292 31.944 51.4239 31.944C51.0185 31.944 50.6665 32.0293 50.3679 32.2C50.0692 32.3707 49.8239 32.5947 49.6319 32.872C49.4399 33.1387 49.2959 33.448 49.1999 33.8C49.1145 34.152 49.0719 34.504 49.0719 34.856C49.0719 35.2187 49.1145 35.576 49.1999 35.928C49.2959 36.2693 49.4399 36.5787 49.6319 36.856C49.8239 37.1333 50.0692 37.3573 50.3679 37.528C50.6665 37.6987 51.0185 37.784 51.4239 37.784ZM57.1162 30.728H58.8282V32.328H58.8602C58.9136 32.104 59.0149 31.8853 59.1642 31.672C59.3242 31.4587 59.5109 31.2667 59.7242 31.096C59.9482 30.9147 60.1936 30.7707 60.4602 30.664C60.7269 30.5573 60.9989 30.504 61.2762 30.504C61.4896 30.504 61.6336 30.5093 61.7082 30.52C61.7936 30.5307 61.8789 30.5413 61.9642 30.552V32.312C61.8362 32.2907 61.7029 32.2747 61.5642 32.264C61.4362 32.2427 61.3082 32.232 61.1802 32.232C60.8709 32.232 60.5776 32.296 60.3002 32.424C60.0336 32.5413 59.7989 32.7227 59.5962 32.968C59.3936 33.2027 59.2336 33.496 59.1162 33.848C58.9989 34.2 58.9402 34.6053 58.9402 35.064V39H57.1162V30.728ZM61.9092 30.728H63.2852V28.248H65.1092V30.728H66.7572V32.088H65.1092V36.504C65.1092 36.696 65.1146 36.8613 65.1252 37C65.1466 37.1387 65.1839 37.256 65.2372 37.352C65.3012 37.448 65.3919 37.5227 65.5092 37.576C65.6266 37.6187 65.7866 37.64 65.9892 37.64C66.1172 37.64 66.2452 37.64 66.3732 37.64C66.5012 37.6293 66.6292 37.608 66.7572 37.576V38.984C66.5546 39.0053 66.3572 39.0267 66.1652 39.048C65.9732 39.0693 65.7759 39.08 65.5732 39.08C65.0932 39.08 64.7039 39.0373 64.4052 38.952C64.1172 38.856 63.8879 38.7227 63.7172 38.552C63.5572 38.3707 63.4452 38.1467 63.3812 37.88C63.3279 37.6133 63.2959 37.3093 63.2852 36.968V32.088H61.9092V30.728ZM67.2534 30.728H68.6134V30.04C68.6134 29.5173 68.6774 29.096 68.8054 28.776C68.9334 28.4453 69.104 28.1947 69.3174 28.024C69.5307 27.8427 69.7707 27.7253 70.0374 27.672C70.3147 27.608 70.6027 27.576 70.9014 27.576C71.488 27.576 71.9147 27.6133 72.1814 27.688V29.112C72.064 29.08 71.936 29.0587 71.7974 29.048C71.6694 29.0267 71.5147 29.016 71.3334 29.016C71.088 29.016 70.8747 29.0747 70.6934 29.192C70.5227 29.3093 70.4374 29.5387 70.4374 29.88V30.728H71.9894V32.088H70.4374V39H68.6134V32.088H67.2534V30.728ZM76.9082 39.224C76.2469 39.224 75.6549 39.1173 75.1322 38.904C74.6202 38.68 74.1829 38.376 73.8202 37.992C73.4682 37.608 73.1962 37.1493 73.0042 36.616C72.8229 36.0827 72.7322 35.496 72.7322 34.856C72.7322 34.2267 72.8229 33.6453 73.0042 33.112C73.1962 32.5787 73.4682 32.12 73.8202 31.736C74.1829 31.352 74.6202 31.0533 75.1322 30.84C75.6549 30.616 76.2469 30.504 76.9082 30.504C77.5696 30.504 78.1562 30.616 78.6682 30.84C79.1909 31.0533 79.6282 31.352 79.9802 31.736C80.3429 32.12 80.6149 32.5787 80.7962 33.112C80.9882 33.6453 81.0842 34.2267 81.0842 34.856C81.0842 35.496 80.9882 36.0827 80.7962 36.616C80.6149 37.1493 80.3429 37.608 79.9802 37.992C79.6282 38.376 79.1909 38.68 78.6682 38.904C78.1562 39.1173 77.5696 39.224 76.9082 39.224ZM76.9082 37.784C77.3136 37.784 77.6656 37.6987 77.9642 37.528C78.2629 37.3573 78.5082 37.1333 78.7002 36.856C78.8922 36.5787 79.0309 36.2693 79.1162 35.928C79.2122 35.576 79.2602 35.2187 79.2602 34.856C79.2602 34.504 79.2122 34.152 79.1162 33.8C79.0309 33.448 78.8922 33.1387 78.7002 32.872C78.5082 32.5947 78.2629 32.3707 77.9642 32.2C77.6656 32.0293 77.3136 31.944 76.9082 31.944C76.5029 31.944 76.1509 32.0293 75.8522 32.2C75.5536 32.3707 75.3082 32.5947 75.1162 32.872C74.9242 33.1387 74.7802 33.448 74.6842 33.8C74.5989 34.152 74.5562 34.504 74.5562 34.856C74.5562 35.2187 74.5989 35.576 74.6842 35.928C74.7802 36.2693 74.9242 36.5787 75.1162 36.856C75.3082 37.1333 75.5536 37.3573 75.8522 37.528C76.1509 37.6987 76.5029 37.784 76.9082 37.784ZM82.6486 27.576H84.4726V39H82.6486V27.576ZM86.508 27.576H88.332V29.304H86.508V27.576ZM86.508 30.728H88.332V39H86.508V30.728ZM94.1114 39.224C93.45 39.224 92.858 39.1173 92.3354 38.904C91.8234 38.68 91.386 38.376 91.0234 37.992C90.6714 37.608 90.3994 37.1493 90.2074 36.616C90.026 36.0827 89.9354 35.496 89.9354 34.856C89.9354 34.2267 90.026 33.6453 90.2074 33.112C90.3994 32.5787 90.6714 32.12 91.0234 31.736C91.386 31.352 91.8234 31.0533 92.3354 30.84C92.858 30.616 93.45 30.504 94.1114 30.504C94.7727 30.504 95.3594 30.616 95.8714 30.84C96.394 31.0533 96.8314 31.352 97.1834 31.736C97.546 32.12 97.818 32.5787 97.9994 33.112C98.1914 33.6453 98.2874 34.2267 98.2874 34.856C98.2874 35.496 98.1914 36.0827 97.9994 36.616C97.818 37.1493 97.546 37.608 97.1834 37.992C96.8314 38.376 96.394 38.68 95.8714 38.904C95.3594 39.1173 94.7727 39.224 94.1114 39.224ZM94.1114 37.784C94.5167 37.784 94.8687 37.6987 95.1674 37.528C95.466 37.3573 95.7114 37.1333 95.9034 36.856C96.0954 36.5787 96.234 36.2693 96.3194 35.928C96.4154 35.576 96.4634 35.2187 96.4634 34.856C96.4634 34.504 96.4154 34.152 96.3194 33.8C96.234 33.448 96.0954 33.1387 95.9034 32.872C95.7114 32.5947 95.466 32.3707 95.1674 32.2C94.8687 32.0293 94.5167 31.944 94.1114 31.944C93.706 31.944 93.354 32.0293 93.0554 32.2C92.7567 32.3707 92.5114 32.5947 92.3194 32.872C92.1274 33.1387 91.9834 33.448 91.8874 33.8C91.802 34.152 91.7594 34.504 91.7594 34.856C91.7594 35.2187 91.802 35.576 91.8874 35.928C91.9834 36.2693 92.1274 36.5787 92.3194 36.856C92.5114 37.1333 92.7567 37.3573 93.0554 37.528C93.354 37.6987 93.706 37.784 94.1114 37.784Z" fill="#8CFFFD"/>
<path d="M31.0161 91.9893L29.0054 94M31.0161 94L29.0054 91.9893" stroke="#FF2875" stroke-width="0.2"/>
<path d="M31.0161 52.0054L29.0054 54.0161M31.0161 54.0161L29.0054 52.0054" stroke="#FF2875" stroke-width="0.2"/>
<path d="M30 53L30 93" stroke="#FF2875" stroke-width="0.2"/>
<path d="M124.016 91.9893L122.005 94M124.016 94L122.005 91.9893" stroke="#FF2875" stroke-width="0.2"/>
<path d="M124.016 52.0054L122.005 54.0161M124.016 54.0161L122.005 52.0054" stroke="#FF2875" stroke-width="0.2"/>
<path d="M123 53L123 93" stroke="#FF2875" stroke-width="0.2"/>
<path d="M105.016 91.9893L103.005 94M105.016 94L103.005 91.9893" stroke="#FF2875" stroke-width="0.2"/>
<path d="M105.016 52.0054L103.005 54.0161M105.016 54.0161L103.005 52.0054" stroke="#FF2875" stroke-width="0.2"/>
<path d="M104 53L104 93" stroke="#FF2875" stroke-width="0.2"/>
<path d="M198.016 91.9893L196.005 94M198.016 94L196.005 91.9893" stroke="#FF2875" stroke-width="0.2"/>
<path d="M198.016 52.0054L196.005 54.0161M198.016 54.0161L196.005 52.0054" stroke="#FF2875" stroke-width="0.2"/>
<path d="M197 53L197 93" stroke="#FF2875" stroke-width="0.2"/>
<path d="M31.0161 141.989L29.0054 144M31.0161 144L29.0054 141.989" stroke="#FF2875" stroke-width="0.2"/>
<path d="M31.0161 102.005L29.0054 104.016M31.0161 104.016L29.0054 102.005" stroke="#FF2875" stroke-width="0.2"/>
<path d="M30 103L30 143" stroke="#FF2875" stroke-width="0.2"/>
<path d="M124.016 141.989L122.005 144M124.016 144L122.005 141.989" stroke="#FF2875" stroke-width="0.2"/>
<path d="M124.016 102.005L122.005 104.016M124.016 104.016L122.005 102.005" stroke="#FF2875" stroke-width="0.2"/>
<path d="M123 103L123 143" stroke="#FF2875" stroke-width="0.2"/>
<path d="M105.016 141.989L103.005 144M105.016 144L103.005 141.989" stroke="#FF2875" stroke-width="0.2"/>
<path d="M105.016 102.005L103.005 104.016M105.016 104.016L103.005 102.005" stroke="#FF2875" stroke-width="0.2"/>
<path d="M104 103L104 143" stroke="#FF2875" stroke-width="0.2"/>
<path d="M198.016 141.989L196.005 144M198.016 144L196.005 141.989" stroke="#FF2875" stroke-width="0.2"/>
<path d="M198.016 102.005L196.005 104.016M198.016 104.016L196.005 102.005" stroke="#FF2875" stroke-width="0.2"/>
<path d="M197 103L197 143" stroke="#FF2875" stroke-width="0.2"/>
<rect x="0.5" y="0.5" width="7" height="7" fill="black" stroke="#8CFFFD"/>
<rect x="26.5" y="16.5" width="7" height="7" fill="black" stroke="#8CFFFD"/>
<rect x="119.5" y="16.5" width="7" height="7" fill="black" stroke="#8CFFFD"/>
<rect x="26.5" y="146.5" width="7" height="7" fill="black" stroke="#8CFFFD"/>
<rect x="119.5" y="146.5" width="7" height="7" fill="black" stroke="#8CFFFD"/>
<rect x="100.5" y="16.5" width="7" height="7" fill="black" stroke="#8CFFFD"/>
<rect x="193.5" y="16.5" width="7" height="7" fill="black" stroke="#8CFFFD"/>
<rect x="100.5" y="146.5" width="7" height="7" fill="black" stroke="#8CFFFD"/>
<rect x="193.5" y="146.5" width="7" height="7" fill="black" stroke="#8CFFFD"/>
<rect x="26.5" y="42.5" width="7" height="7" fill="black" stroke="#8CFFFD"/>
<rect x="119.5" y="42.5" width="7" height="7" fill="black" stroke="#8CFFFD"/>
<rect x="26.5" y="180.5" width="7" height="7" fill="black" stroke="#8CFFFD"/>
<rect x="119.5" y="180.5" width="7" height="7" fill="black" stroke="#8CFFFD"/>
<rect x="100.5" y="42.5" width="7" height="7" fill="black" stroke="#8CFFFD"/>
<rect x="193.5" y="42.5" width="7" height="7" fill="black" stroke="#8CFFFD"/>
<rect x="100.5" y="180.5" width="7" height="7" fill="black" stroke="#8CFFFD"/>
<rect x="193.5" y="180.5" width="7" height="7" fill="black" stroke="#8CFFFD"/>
<rect x="266.5" y="0.5" width="7" height="7" fill="black" stroke="#8CFFFD"/>
<rect x="220.5" y="37.5" width="7" height="7" fill="black" stroke="#8CFFFD"/>
<rect x="220.5" y="141.5" width="7" height="7" fill="black" stroke="#8CFFFD"/>
<rect x="399.5" y="172.5" width="7" height="7" fill="black" stroke="#8CFFFD"/>
<rect x="399.5" y="195.5" width="7" height="7" fill="black" stroke="#8CFFFD"/>
<rect x="0.5" y="195.5" width="7" height="7" fill="black" stroke="#8CFFFD"/>
<path d="M52.408 176H40.936C40.952 174.608 41.288 173.392 41.944 172.352C42.6 171.312 43.496 170.408 44.632 169.64C45.176 169.24 45.744 168.856 46.336 168.488C46.928 168.104 47.472 167.696 47.968 167.264C48.464 166.832 48.872 166.368 49.192 165.872C49.512 165.36 49.68 164.776 49.696 164.12C49.696 163.816 49.656 163.496 49.576 163.16C49.512 162.808 49.376 162.488 49.168 162.2C48.96 161.896 48.672 161.648 48.304 161.456C47.936 161.248 47.456 161.144 46.864 161.144C46.32 161.144 45.864 161.256 45.496 161.48C45.144 161.688 44.856 161.984 44.632 162.368C44.424 162.736 44.264 163.176 44.152 163.688C44.056 164.2 44 164.752 43.984 165.344H41.248C41.248 164.416 41.368 163.56 41.608 162.776C41.864 161.976 42.24 161.288 42.736 160.712C43.232 160.136 43.832 159.688 44.536 159.368C45.256 159.032 46.088 158.864 47.032 158.864C48.056 158.864 48.912 159.032 49.6 159.368C50.288 159.704 50.84 160.128 51.256 160.64C51.688 161.152 51.992 161.712 52.168 162.32C52.344 162.912 52.432 163.48 52.432 164.024C52.432 164.696 52.328 165.304 52.12 165.848C51.912 166.392 51.632 166.896 51.28 167.36C50.928 167.808 50.528 168.224 50.08 168.608C49.632 168.992 49.168 169.352 48.688 169.688C48.208 170.024 47.728 170.344 47.248 170.648C46.768 170.952 46.32 171.256 45.904 171.56C45.504 171.864 45.152 172.184 44.848 172.52C44.544 172.84 44.336 173.184 44.224 173.552H52.408V176ZM60.0079 158.864C61.2079 158.864 62.1839 159.144 62.9359 159.704C63.7039 160.248 64.2959 160.952 64.7119 161.816C65.1439 162.664 65.4319 163.6 65.5759 164.624C65.7359 165.648 65.8159 166.64 65.8159 167.6C65.8159 168.56 65.7359 169.552 65.5759 170.576C65.4319 171.6 65.1439 172.544 64.7119 173.408C64.2959 174.256 63.7039 174.96 62.9359 175.52C62.1839 176.064 61.2079 176.336 60.0079 176.336C58.8079 176.336 57.8239 176.064 57.0559 175.52C56.3039 174.96 55.7119 174.256 55.2799 173.408C54.8639 172.544 54.5759 171.6 54.4159 170.576C54.2719 169.552 54.1999 168.56 54.1999 167.6C54.1999 166.64 54.2719 165.648 54.4159 164.624C54.5759 163.6 54.8639 162.664 55.2799 161.816C55.7119 160.952 56.3039 160.248 57.0559 159.704C57.8239 159.144 58.8079 158.864 60.0079 158.864ZM60.0079 174.056C60.5999 174.056 61.0959 173.888 61.4959 173.552C61.8959 173.2 62.2079 172.736 62.4319 172.16C62.6719 171.568 62.8399 170.88 62.9359 170.096C63.0319 169.312 63.0799 168.48 63.0799 167.6C63.0799 166.72 63.0319 165.896 62.9359 165.128C62.8399 164.344 62.6719 163.656 62.4319 163.064C62.2079 162.472 61.8959 162.008 61.4959 161.672C61.0959 161.32 60.5999 161.144 60.0079 161.144C59.3999 161.144 58.8959 161.32 58.4959 161.672C58.1119 162.008 57.7999 162.472 57.5599 163.064C57.3359 163.656 57.1759 164.344 57.0799 165.128C56.9839 165.896 56.9359 166.72 56.9359 167.6C56.9359 168.48 56.9839 169.312 57.0799 170.096C57.1759 170.88 57.3359 171.568 57.5599 172.16C57.7999 172.736 58.1119 173.2 58.4959 173.552C58.8959 173.888 59.3999 174.056 60.0079 174.056ZM79.0799 176H67.6079C67.6239 174.608 67.9599 173.392 68.6159 172.352C69.2719 171.312 70.1679 170.408 71.3039 169.64C71.8479 169.24 72.4159 168.856 73.0079 168.488C73.5999 168.104 74.1439 167.696 74.6399 167.264C75.1359 166.832 75.5439 166.368 75.8639 165.872C76.1839 165.36 76.3519 164.776 76.3679 164.12C76.3679 163.816 76.3279 163.496 76.2479 163.16C76.1839 162.808 76.0479 162.488 75.8399 162.2C75.6319 161.896 75.3439 161.648 74.9759 161.456C74.6079 161.248 74.1279 161.144 73.5359 161.144C72.9919 161.144 72.5359 161.256 72.1679 161.48C71.8159 161.688 71.5279 161.984 71.3039 162.368C71.0959 162.736 70.9359 163.176 70.8239 163.688C70.7279 164.2 70.6719 164.752 70.6559 165.344H67.9199C67.9199 164.416 68.0399 163.56 68.2799 162.776C68.5359 161.976 68.9119 161.288 69.4079 160.712C69.9039 160.136 70.5039 159.688 71.2079 159.368C71.9279 159.032 72.7599 158.864 73.7039 158.864C74.7279 158.864 75.5839 159.032 76.2719 159.368C76.9599 159.704 77.5119 160.128 77.9279 160.64C78.3599 161.152 78.6639 161.712 78.8399 162.32C79.0159 162.912 79.1039 163.48 79.1039 164.024C79.1039 164.696 78.9999 165.304 78.7919 165.848C78.5839 166.392 78.3039 166.896 77.9519 167.36C77.5999 167.808 77.1999 168.224 76.7519 168.608C76.3039 168.992 75.8399 169.352 75.3599 169.688C74.8799 170.024 74.3999 170.344 73.9199 170.648C73.4399 170.952 72.9919 171.256 72.5759 171.56C72.1759 171.864 71.8239 172.184 71.5199 172.52C71.2159 172.84 71.0079 173.184 70.8959 173.552H79.0799V176ZM82.9598 159.2H91.6478V161.648H84.9998L84.1358 165.92L84.1838 165.968C84.5518 165.552 85.0158 165.24 85.5758 165.032C86.1518 164.808 86.7198 164.696 87.2798 164.696C88.1118 164.696 88.8558 164.84 89.5118 165.128C90.1678 165.4 90.7198 165.792 91.1678 166.304C91.6158 166.8 91.9518 167.392 92.1758 168.08C92.4158 168.768 92.5358 169.512 92.5358 170.312C92.5358 170.984 92.4238 171.68 92.1998 172.4C91.9918 173.104 91.6478 173.752 91.1678 174.344C90.7038 174.92 90.1038 175.4 89.3678 175.784C88.6318 176.152 87.7518 176.336 86.7278 176.336C85.9118 176.336 85.1518 176.224 84.4478 176C83.7598 175.792 83.1518 175.472 82.6238 175.04C82.0958 174.608 81.6718 174.08 81.3518 173.456C81.0478 172.816 80.8798 172.072 80.8478 171.224H83.5838C83.6638 172.136 83.9758 172.84 84.5198 173.336C85.0638 173.816 85.7838 174.056 86.6798 174.056C87.2558 174.056 87.7438 173.96 88.1438 173.768C88.5438 173.576 88.8638 173.312 89.1038 172.976C89.3598 172.64 89.5358 172.248 89.6318 171.8C89.7438 171.352 89.7998 170.872 89.7998 170.36C89.7998 169.896 89.7358 169.456 89.6078 169.04C89.4798 168.608 89.2878 168.232 89.0318 167.912C88.7758 167.592 88.4398 167.336 88.0238 167.144C87.6238 166.952 87.1518 166.856 86.6078 166.856C86.0318 166.856 85.4878 166.968 84.9758 167.192C84.4798 167.4 84.1198 167.8 83.8958 168.392H81.1598L82.9598 159.2Z" fill="#FE3B2E"/>
<path d="M141.304 103.068V99.576H136.708V98.232H141.304V94.248H137.188V92.928H146.8V94.248H142.696V98.232H147.28V99.576H142.696V103.068H141.304ZM146.464 95.28C146.044 95.892 145 97.308 144.448 98.016L143.368 97.248C143.968 96.564 144.952 95.172 145.372 94.536L146.464 95.28ZM139.504 98.004C138.976 97.224 138.004 95.904 137.536 95.292L138.568 94.548C139.084 95.208 140.08 96.528 140.608 97.26L139.504 98.004ZM149.236 103.008V95.1H152.644C152.776 94.788 152.908 94.428 153.016 94.104H148.804V92.88H159.1V94.104H154.54L154.156 95.1H158.68V103.02H157.384V102.54H150.544V103.008H149.236ZM157.384 96.3H156.22V101.364H157.384V96.3ZM150.544 96.3V101.364H151.696V96.3H150.544ZM152.968 100.452V101.364H154.924V100.452H152.968ZM152.968 96.3V97.212H154.924V96.3H152.968ZM152.968 98.388V99.288H154.924V98.388H152.968ZM170.896 103.38C169.576 102.876 168.496 102.348 167.596 101.76C166.696 102.348 165.58 102.9 164.224 103.404L163.504 102.204C163.144 102.492 162.796 102.78 162.556 102.996L161.68 101.976C161.968 101.76 161.968 101.532 161.968 101.196V97.392H160.612V96.144H163.336V100.68L164.452 99.816L165.052 100.992L163.624 102.12C164.752 101.724 165.688 101.304 166.468 100.86C165.784 100.212 165.256 99.48 164.872 98.604L165.46 98.316H164.428V97.092H164.728L163.996 96.36C165.1 95.628 165.352 95.172 165.352 94.224V92.988H169.864V95.028C169.864 95.412 169.972 95.448 170.38 95.46H171.304L171.148 96.708H169.792C168.868 96.744 168.52 96.492 168.52 95.616V94.212H166.66V94.812C166.66 95.556 166.228 96.396 165.268 97.092H170.608V98.328C170.188 99.276 169.576 100.14 168.688 100.932C169.42 101.328 170.332 101.7 171.484 102.06L170.896 103.38ZM163.072 95.58C162.652 95.04 161.764 93.948 161.32 93.42L162.412 92.556C162.868 93.06 163.756 94.092 164.236 94.668L163.072 95.58ZM166.192 98.316C166.54 99.06 166.96 99.648 167.536 100.152C168.316 99.552 168.82 98.928 169.12 98.316H166.192ZM179.152 103.104V97.644H176.332V96.276H179.152V92.544H180.52V96.276H183.364V97.644H180.52V103.104H179.152ZM177.712 100.656C177.304 100.932 175.54 102.192 174.664 102.948L173.8 101.94C174.088 101.736 174.088 101.52 174.088 101.184V97.344H172.624V96H175.48V100.656L177.232 99.336L177.712 100.656ZM175.228 95.616C174.832 95.076 173.896 93.864 173.404 93.276L174.484 92.46C174.976 93 175.924 94.164 176.38 94.74L175.228 95.616Z" fill="#FE3B2E"/>
<path d="M151.754 36.418H147.68V39.442H146.756V29.852H145.79C145.202 30.972 144.516 32.022 143.704 32.946L143.088 32.26C144.334 30.79 145.384 28.872 146.098 26.828L146.98 27.08C146.756 27.724 146.504 28.34 146.224 28.942H152.146V29.852H147.68V32.218H151.446V33.128H147.68V35.508H151.754V36.418ZM141.478 39.358V31.84C141.002 32.61 140.484 33.324 139.91 33.996L139.378 33.17C140.638 31.616 141.828 29.432 142.626 27.052L143.564 27.318C143.214 28.34 142.836 29.278 142.416 30.132V39.358H141.478ZM155.604 27.43H164.242V31.728L155.604 31.728V27.43ZM160.644 39.106V33.38H165.488V39.106H164.634V38.21H161.512V39.106H160.644ZM154.372 39.106V33.38H159.062V39.106H158.208V38.21H155.24V39.106H154.372ZM156.542 28.27V30.888H163.318V28.27H156.542ZM161.512 34.206V37.37H164.634V34.206H161.512ZM155.24 34.206V37.37H158.208V34.206H155.24ZM179.838 34.01L170.388 34.01V34.64H169.52V29.992C169.002 30.622 168.456 31.196 167.952 31.672L167.518 30.86C168.568 29.992 169.982 28.214 170.682 26.73L171.508 26.996C171.284 27.444 171.018 27.892 170.738 28.326H174.77C174.518 27.962 174.098 27.388 173.804 27.01L174.504 26.562L175.61 28.032L175.05 28.326L179.614 28.326V28.984L175.204 28.984V30.02L179.264 30.02V30.636L175.204 30.636V31.658L179.264 31.658V32.288H175.204V33.324H179.838V34.01ZM173.566 39.428V36.782C172.166 37.776 170.584 38.406 167.994 39.134L167.658 38.322C170.514 37.636 172.096 36.978 173.412 35.984L167.938 35.984V35.242L173.566 35.242V34.346H174.434V35.242H180.09V35.984H174.574C175.904 36.908 177.584 37.594 180.328 38.238L180.006 39.05C177.472 38.378 175.848 37.734 174.434 36.754V39.428H173.566ZM170.388 28.984V30.02H174.35V28.984H170.388ZM170.388 32.288V33.324L174.35 33.324V32.288H170.388ZM170.388 30.636V31.658H174.35V30.636H170.388Z" fill="white"/>
<path d="M145.286 172.07H132.714V171.09H145.286V172.07ZM144.11 163.53H133.89V162.55H144.11V163.53ZM146.49 167.198C146.49 163.628 149.402 160.702 152.986 160.702C156.668 160.702 159.524 163.67 159.524 167.198C159.524 170.852 156.696 173.68 153 173.68C149.318 173.68 146.49 170.866 146.49 167.198ZM147.484 167.212C147.484 170.264 149.934 172.714 152.986 172.714C156.038 172.714 158.53 170.264 158.53 167.212C158.53 164.16 156.038 161.668 152.986 161.668C149.934 161.668 147.484 164.16 147.484 167.212ZM173.286 172.07H160.714V171.09H173.286V172.07ZM172.11 163.53H161.89V162.55H172.11V163.53ZM187.314 172.364H174.7V171.482H177.724L178.564 166.862H175.596V165.98H178.718L179.306 162.76H175.302V161.864H186.81V162.76H180.286L179.698 165.98H185.06L184.85 171.482H187.314V172.364ZM184.052 166.862H179.544L178.704 171.482H183.87L184.052 166.862Z" fill="#8CFFFD"/>
<path d="M30 103H197" stroke="#FF2875" stroke-width="0.2"/>
<path d="M30 93H197" stroke="#FF2875" stroke-width="0.2"/>
</svg>
