<svg width="276" height="195" viewBox="0 0 276 195" fill="none" xmlns="http://www.w3.org/2000/svg">
<path d="M275.5 0.5V148.5H174.666L174.538 148.81L155.666 194.5H0.5V0.5H275.5Z" fill="#FE3B2E" stroke="black"/>
<path d="M16.064 14.004H17.814V22.488H22.896V24H16.064V14.004ZM24.0471 22.25H25.9231V24H24.0471V22.25ZM24.1171 14.004H25.8671V16.888L25.4051 21.214H24.5791L24.1171 16.888V14.004ZM33.8375 22.39C33.8375 22.586 33.8609 22.726 33.9075 22.81C33.9635 22.894 34.0662 22.936 34.2155 22.936C34.2622 22.936 34.3182 22.936 34.3835 22.936C34.4489 22.936 34.5235 22.9267 34.6075 22.908V24.014C34.5515 24.0327 34.4769 24.0513 34.3835 24.07C34.2995 24.098 34.2109 24.1213 34.1175 24.14C34.0242 24.1587 33.9309 24.1727 33.8375 24.182C33.7442 24.1913 33.6649 24.196 33.5995 24.196C33.2729 24.196 33.0022 24.1307 32.7875 24C32.5729 23.8693 32.4329 23.6407 32.3675 23.314C32.0502 23.622 31.6582 23.846 31.1915 23.986C30.7342 24.126 30.2909 24.196 29.8615 24.196C29.5349 24.196 29.2222 24.1493 28.9235 24.056C28.6249 23.972 28.3589 23.846 28.1255 23.678C27.9015 23.5007 27.7195 23.2813 27.5795 23.02C27.4489 22.7493 27.3835 22.4367 27.3835 22.082C27.3835 21.634 27.4629 21.27 27.6215 20.99C27.7895 20.71 28.0042 20.4907 28.2655 20.332C28.5362 20.1733 28.8349 20.0613 29.1615 19.996C29.4975 19.9213 29.8335 19.8653 30.1695 19.828C30.4589 19.772 30.7342 19.7347 30.9955 19.716C31.2569 19.688 31.4855 19.646 31.6815 19.59C31.8869 19.534 32.0455 19.45 32.1575 19.338C32.2789 19.2167 32.3395 19.0393 32.3395 18.806C32.3395 18.6007 32.2882 18.4327 32.1855 18.302C32.0922 18.1713 31.9709 18.0733 31.8215 18.008C31.6815 17.9333 31.5229 17.8867 31.3455 17.868C31.1682 17.84 31.0002 17.826 30.8415 17.826C30.3935 17.826 30.0249 17.9193 29.7355 18.106C29.4462 18.2927 29.2829 18.582 29.2455 18.974H27.6495C27.6775 18.5073 27.7895 18.12 27.9855 17.812C28.1815 17.504 28.4289 17.2567 28.7275 17.07C29.0355 16.8833 29.3809 16.7527 29.7635 16.678C30.1462 16.6033 30.5382 16.566 30.9395 16.566C31.2942 16.566 31.6442 16.6033 31.9895 16.678C32.3349 16.7527 32.6429 16.874 32.9135 17.042C33.1935 17.21 33.4175 17.4293 33.5855 17.7C33.7535 17.9613 33.8375 18.2833 33.8375 18.666V22.39ZM32.2415 20.374C31.9989 20.5327 31.7002 20.6307 31.3455 20.668C30.9909 20.696 30.6362 20.7427 30.2815 20.808C30.1135 20.836 29.9502 20.878 29.7915 20.934C29.6329 20.9807 29.4929 21.0507 29.3715 21.144C29.2502 21.228 29.1522 21.3447 29.0775 21.494C29.0122 21.634 28.9795 21.8067 28.9795 22.012C28.9795 22.1893 29.0309 22.3387 29.1335 22.46C29.2362 22.5813 29.3575 22.6793 29.4975 22.754C29.6469 22.8193 29.8055 22.866 29.9735 22.894C30.1509 22.922 30.3095 22.936 30.4495 22.936C30.6269 22.936 30.8182 22.9127 31.0235 22.866C31.2289 22.8193 31.4202 22.74 31.5975 22.628C31.7842 22.516 31.9382 22.376 32.0595 22.208C32.1809 22.0307 32.2415 21.816 32.2415 21.564V20.374ZM35.5548 16.762H37.0668V17.826L37.0948 17.854C37.3375 17.4527 37.6548 17.14 38.0468 16.916C38.4388 16.6827 38.8728 16.566 39.3488 16.566C40.1422 16.566 40.7675 16.7713 41.2248 17.182C41.6822 17.5927 41.9108 18.2087 41.9108 19.03V24H40.3148V19.45C40.2962 18.8807 40.1748 18.47 39.9508 18.218C39.7268 17.9567 39.3768 17.826 38.9008 17.826C38.6302 17.826 38.3875 17.8773 38.1728 17.98C37.9582 18.0733 37.7762 18.2087 37.6268 18.386C37.4775 18.554 37.3608 18.7547 37.2768 18.988C37.1928 19.2213 37.1508 19.4687 37.1508 19.73V24H35.5548V16.762ZM50.2859 23.622C50.2859 24.714 49.9779 25.526 49.3619 26.058C48.7552 26.5993 47.8779 26.87 46.7299 26.87C46.3659 26.87 45.9972 26.8327 45.6239 26.758C45.2599 26.6833 44.9239 26.5573 44.6159 26.38C44.3172 26.2027 44.0652 25.9693 43.8599 25.68C43.6546 25.3907 43.5332 25.036 43.4959 24.616H45.0919C45.1386 24.84 45.2179 25.022 45.3299 25.162C45.4419 25.302 45.5726 25.4093 45.7219 25.484C45.8806 25.568 46.0532 25.6193 46.2399 25.638C46.4266 25.666 46.6226 25.68 46.8279 25.68C47.4719 25.68 47.9432 25.5213 48.2419 25.204C48.5406 24.8867 48.6899 24.4293 48.6899 23.832V22.726H48.6619C48.4379 23.1273 48.1299 23.44 47.7379 23.664C47.3552 23.888 46.9399 24 46.4919 24C45.9132 24 45.4186 23.902 45.0079 23.706C44.6066 23.5007 44.2706 23.2253 43.9999 22.88C43.7386 22.5253 43.5472 22.1193 43.4259 21.662C43.3046 21.2047 43.2439 20.7147 43.2439 20.192C43.2439 19.7067 43.3186 19.2447 43.4679 18.806C43.6172 18.3673 43.8319 17.9847 44.1119 17.658C44.3919 17.322 44.7326 17.056 45.1339 16.86C45.5446 16.664 46.0066 16.566 46.5199 16.566C46.9772 16.566 47.3972 16.664 47.7799 16.86C48.1626 17.0467 48.4566 17.3453 48.6619 17.756H48.6899V16.762H50.2859V23.622ZM46.7439 22.74C47.0986 22.74 47.3972 22.67 47.6399 22.53C47.8919 22.3807 48.0926 22.1893 48.2419 21.956C48.4006 21.7133 48.5126 21.4427 48.5779 21.144C48.6526 20.836 48.6899 20.528 48.6899 20.22C48.6899 19.912 48.6526 19.6133 48.5779 19.324C48.5032 19.0347 48.3866 18.778 48.2279 18.554C48.0786 18.33 47.8779 18.1527 47.6259 18.022C47.3832 17.8913 47.0892 17.826 46.7439 17.826C46.3892 17.826 46.0906 17.9007 45.8479 18.05C45.6052 18.1993 45.4092 18.3953 45.2599 18.638C45.1106 18.8713 45.0032 19.142 44.9379 19.45C44.8726 19.7487 44.8399 20.0473 44.8399 20.346C44.8399 20.6447 44.8772 20.9387 44.9519 21.228C45.0266 21.508 45.1386 21.76 45.2879 21.984C45.4466 22.208 45.6426 22.39 45.8759 22.53C46.1186 22.67 46.4079 22.74 46.7439 22.74ZM62.6072 24H61.0952V23.02H61.0672C60.8526 23.44 60.5399 23.7433 60.1292 23.93C59.7186 24.1073 59.2846 24.196 58.8272 24.196C58.2579 24.196 57.7586 24.098 57.3292 23.902C56.9092 23.6967 56.5592 23.4213 56.2792 23.076C55.9992 22.7307 55.7892 22.3247 55.6492 21.858C55.5092 21.382 55.4392 20.8733 55.4392 20.332C55.4392 19.6787 55.5279 19.114 55.7052 18.638C55.8826 18.162 56.1159 17.77 56.4052 17.462C56.7039 17.154 57.0399 16.93 57.4132 16.79C57.7959 16.6407 58.1832 16.566 58.5752 16.566C58.7992 16.566 59.0279 16.5893 59.2612 16.636C59.4946 16.6733 59.7186 16.7387 59.9332 16.832C60.1479 16.9253 60.3439 17.0467 60.5212 17.196C60.7079 17.336 60.8619 17.504 60.9832 17.7H61.0112V14.004H62.6072V24ZM57.0352 20.458C57.0352 20.766 57.0726 21.0693 57.1472 21.368C57.2312 21.6667 57.3526 21.9327 57.5112 22.166C57.6792 22.3993 57.8892 22.586 58.1412 22.726C58.3932 22.866 58.6919 22.936 59.0372 22.936C59.3919 22.936 59.6952 22.8613 59.9472 22.712C60.2086 22.5627 60.4186 22.3667 60.5772 22.124C60.7452 21.8813 60.8666 21.6107 60.9412 21.312C61.0252 21.004 61.0672 20.6913 61.0672 20.374C61.0672 19.5713 60.8852 18.946 60.5212 18.498C60.1666 18.05 59.6812 17.826 59.0652 17.826C58.6919 17.826 58.3746 17.9053 58.1132 18.064C57.8612 18.2133 57.6512 18.414 57.4832 18.666C57.3246 18.9087 57.2079 19.1887 57.1332 19.506C57.0679 19.814 57.0352 20.1313 57.0352 20.458ZM70.4098 22.39C70.4098 22.586 70.4331 22.726 70.4798 22.81C70.5358 22.894 70.6385 22.936 70.7878 22.936C70.8345 22.936 70.8905 22.936 70.9558 22.936C71.0211 22.936 71.0958 22.9267 71.1798 22.908V24.014C71.1238 24.0327 71.0491 24.0513 70.9558 24.07C70.8718 24.098 70.7831 24.1213 70.6898 24.14C70.5965 24.1587 70.5031 24.1727 70.4098 24.182C70.3165 24.1913 70.2371 24.196 70.1718 24.196C69.8451 24.196 69.5745 24.1307 69.3598 24C69.1451 23.8693 69.0051 23.6407 68.9398 23.314C68.6225 23.622 68.2305 23.846 67.7638 23.986C67.3065 24.126 66.8631 24.196 66.4338 24.196C66.1071 24.196 65.7945 24.1493 65.4958 24.056C65.1971 23.972 64.9311 23.846 64.6978 23.678C64.4738 23.5007 64.2918 23.2813 64.1518 23.02C64.0211 22.7493 63.9558 22.4367 63.9558 22.082C63.9558 21.634 64.0351 21.27 64.1938 20.99C64.3618 20.71 64.5765 20.4907 64.8378 20.332C65.1085 20.1733 65.4071 20.0613 65.7338 19.996C66.0698 19.9213 66.4058 19.8653 66.7418 19.828C67.0311 19.772 67.3065 19.7347 67.5678 19.716C67.8291 19.688 68.0578 19.646 68.2538 19.59C68.4591 19.534 68.6178 19.45 68.7298 19.338C68.8511 19.2167 68.9118 19.0393 68.9118 18.806C68.9118 18.6007 68.8605 18.4327 68.7578 18.302C68.6645 18.1713 68.5431 18.0733 68.3938 18.008C68.2538 17.9333 68.0951 17.8867 67.9178 17.868C67.7405 17.84 67.5725 17.826 67.4138 17.826C66.9658 17.826 66.5971 17.9193 66.3078 18.106C66.0185 18.2927 65.8551 18.582 65.8178 18.974H64.2218C64.2498 18.5073 64.3618 18.12 64.5578 17.812C64.7538 17.504 65.0011 17.2567 65.2998 17.07C65.6078 16.8833 65.9531 16.7527 66.3358 16.678C66.7185 16.6033 67.1105 16.566 67.5118 16.566C67.8665 16.566 68.2165 16.6033 68.5618 16.678C68.9071 16.7527 69.2151 16.874 69.4858 17.042C69.7658 17.21 69.9898 17.4293 70.1578 17.7C70.3258 17.9613 70.4098 18.2833 70.4098 18.666V22.39ZM68.8138 20.374C68.5711 20.5327 68.2725 20.6307 67.9178 20.668C67.5631 20.696 67.2085 20.7427 66.8538 20.808C66.6858 20.836 66.5225 20.878 66.3638 20.934C66.2051 20.9807 66.0651 21.0507 65.9438 21.144C65.8225 21.228 65.7245 21.3447 65.6498 21.494C65.5845 21.634 65.5518 21.8067 65.5518 22.012C65.5518 22.1893 65.6031 22.3387 65.7058 22.46C65.8085 22.5813 65.9298 22.6793 66.0698 22.754C66.2191 22.8193 66.3778 22.866 66.5458 22.894C66.7231 22.922 66.8818 22.936 67.0218 22.936C67.1991 22.936 67.3905 22.9127 67.5958 22.866C67.8011 22.8193 67.9925 22.74 68.1698 22.628C68.3565 22.516 68.5105 22.376 68.6318 22.208C68.7531 22.0307 68.8138 21.816 68.8138 21.564V20.374ZM72.2951 22.25H74.1711V24H72.2951V22.25ZM72.3651 14.004H74.1151V16.888L73.6531 21.214H72.8271L72.3651 16.888V14.004Z" fill="#8CFFFD"/>
<path d="M16.832 41.36H27.056V46.568H24.944V48.104H27.92V49.016H24.944V50.6H28.568V51.512H15.296V50.6H18.944V49.016H15.872V48.104H18.944V46.568H16.832V41.36ZM27.656 37.04H22.52V38.768H29.192V38.552C29.144 37.448 29.072 34.376 29.072 33.872H30.272C30.272 34.376 30.344 37.448 30.368 38.576V38.768H36.848V39.824H30.416C30.608 43.64 30.944 46.448 31.4 48.536C32.84 46.184 33.848 43.688 34.592 41.144L35.72 41.528C34.64 44.792 33.464 47.504 31.784 50.024C32.024 50.864 32.288 51.56 32.6 52.136C33.176 53.216 33.728 53.552 34.112 53.528C34.424 53.528 34.88 53.192 35.144 51.632C35.312 50.816 35.504 49.664 35.576 48.8L36.704 49.16C36.56 50.096 36.368 51.416 36.176 52.352C35.792 54.416 35 55.016 34.112 55.016C33.152 55.016 32.504 54.392 31.568 52.616C31.352 52.184 31.136 51.728 30.944 51.2C30.272 52.112 29.504 53 28.64 53.888L27.8 53.024C28.832 52.016 29.744 50.936 30.512 49.832C29.912 47.552 29.504 44.408 29.24 39.824H15.128V38.768H21.32V37.04H16.232V35.984H21.32V33.968H22.52V35.984H27.656V37.04ZM20.024 49.016V50.6H23.864V49.016H20.024ZM20.024 46.568V48.104H23.864V46.568H20.024ZM20.792 52.808C19.496 53.6 17.192 54.68 15.68 55.28L15.248 54.32C16.88 53.72 18.968 52.688 20.312 51.896L20.792 52.808ZM27.704 55.232C26.384 54.536 24.056 53.408 22.808 52.832L23.24 51.92C24.488 52.472 26.864 53.6 28.208 54.248L27.704 55.232ZM35 38.192C33.944 37.112 33.08 36.32 31.808 35.216L32.624 34.4C33.896 35.48 34.832 36.296 35.888 37.304L35 38.192ZM17.912 42.176V43.616H21.44V42.176H17.912ZM25.904 42.176H22.424V43.616H25.904V42.176ZM17.912 44.384V45.752H21.44V44.384H17.912ZM22.424 45.752H25.904V44.384H22.424V45.752ZM42.968 39.248H57.104V43.304H42.968V39.248ZM60.032 50.12L59.888 52.496C59.768 54.2 59.072 54.68 57.056 54.68H55.232C53.456 54.68 52.88 54.224 52.88 52.544V49.472H46.52V50.336C46.52 52.568 45.152 54.056 39.92 55.304L39.344 54.08C44.336 52.928 45.176 51.92 45.176 49.616V48.296H54.224V52.136C54.224 53.192 54.536 53.432 55.664 53.432H56.864C58.184 53.432 58.568 53.12 58.616 51.992C58.664 51.56 58.712 50.744 58.76 49.856L60.032 50.12ZM40.52 48.92V45.2H59.552V48.944H58.208V46.28H41.864V48.92H40.52ZM60.464 37.352H39.584V36.2H60.464V37.352ZM44.312 40.256V42.32H55.76V40.256H44.312ZM49.88 36.176C49.592 35.624 49.088 34.664 48.656 33.944L50 33.392C50.312 33.992 50.936 35.072 51.272 35.696L49.88 36.176ZM66.56 36.368H67.976L67.736 39.704L70.832 38.408L71.264 39.776L68 40.616L70.376 43.136L69.2 43.976L67.232 41.192L65.24 44.024L64.088 43.184L66.512 40.616L63.224 39.776L63.632 38.384L66.824 39.728L66.56 36.368Z" fill="white"/>
<circle cx="214" cy="75" r="21.5" fill="#6E6D6D" stroke="black"/>
<rect x="19.5" y="158.5" width="77" height="24" rx="12" fill="black" stroke="#8CFFFD"/>
<mask id="path-6-inside-1_6347_45" fill="white">
<path d="M137.646 161.407C139.027 159.015 142.085 158.196 144.477 159.577C146.868 160.957 147.687 164.015 146.307 166.407L138.16 180.516C137.143 182.278 135.215 183.185 133.313 182.989C133.21 182.995 133.105 183 133 183H112C109.239 183 107 180.761 107 178C107 175.238 109.239 173 112 173H130.953L137.646 161.407Z"/>
</mask>
<path d="M137.646 161.407C139.027 159.015 142.085 158.196 144.477 159.577C146.868 160.957 147.687 164.015 146.307 166.407L138.16 180.516C137.143 182.278 135.215 183.185 133.313 182.989C133.21 182.995 133.105 183 133 183H112C109.239 183 107 180.761 107 178C107 175.238 109.239 173 112 173H130.953L137.646 161.407Z" fill="black"/>
<path d="M137.646 161.407L138.513 161.907L138.513 161.907L137.646 161.407ZM144.477 159.577L144.977 158.711L144.977 158.711L144.477 159.577ZM146.307 166.407L147.173 166.907L147.173 166.907L146.307 166.407ZM138.16 180.516L137.294 180.016L137.294 180.016L138.16 180.516ZM133.313 182.989L133.416 181.994L133.334 181.986L133.252 181.991L133.313 182.989ZM112 183V184V184V183ZM107 178L106 177.999V178H107ZM130.953 173V174H131.53L131.819 173.5L130.953 173ZM137.646 161.407L138.513 161.907C139.617 159.994 142.063 159.338 143.977 160.443L144.477 159.577L144.977 158.711C142.107 157.054 138.437 158.037 136.78 160.907L137.646 161.407ZM144.477 159.577L143.977 160.443C145.89 161.547 146.545 163.994 145.441 165.907L146.307 166.407L147.173 166.907C148.829 164.037 147.846 160.368 144.977 158.711L144.477 159.577ZM146.307 166.407L145.441 165.907L137.294 180.016L138.16 180.516L139.026 181.016L147.173 166.907L146.307 166.407ZM138.16 180.516L137.294 180.016C136.481 181.424 134.94 182.151 133.416 181.994L133.313 182.989L133.211 183.983C135.489 184.219 137.804 183.133 139.026 181.016L138.16 180.516ZM133.313 182.989L133.252 181.991C133.161 181.996 133.078 182 133 182V183V184C133.132 184 133.258 183.994 133.375 183.987L133.313 182.989ZM133 183V182H112V183V184H133V183ZM112 183V182C109.791 182 108 180.209 108 178H107H106C106 181.313 108.686 184 112 184V183ZM107 178L108 178C108 175.79 109.791 174 112 174V173V172C108.686 172 106 174.686 106 177.999L107 178ZM112 173V174H130.953V173V172H112V173ZM130.953 173L131.819 173.5L138.513 161.907L137.646 161.407L136.78 160.907L130.087 172.499L130.953 173Z" fill="#8CFFFD" mask="url(#path-6-inside-1_6347_45)"/>
<path d="M19 146H158.5" stroke="#C4C4C4" stroke-width="2"/>
<circle cx="124.5" cy="162.5" r="6" fill="black" stroke="#8CFFFD"/>
</svg>
