<svg width="258" height="171" viewBox="0 0 258 171" fill="none" xmlns="http://www.w3.org/2000/svg">
<path d="M257.5 16.0898V146.138L69.0537 170.488L0.5 146.225V23.4414L184.477 0.505859L257.5 16.0898Z" fill="black" stroke="#FE3B2E"/>
<path d="M95.2927 47.0269L96.9501 46.4653L99.6728 54.5006L104.486 52.8697L104.971 54.3017L98.5006 56.4942L95.2927 47.0269ZM105.5 52.2748L107.277 51.6728L107.838 53.3302L106.061 53.9323L105.5 52.2748ZM102.92 44.4425L104.577 43.8809L105.503 46.6124L106.453 50.8578L105.671 51.1229L103.845 47.174L102.92 44.4425ZM114.817 49.2655C114.88 49.4511 114.947 49.5762 115.018 49.6408C115.098 49.7024 115.209 49.7092 115.351 49.6613C115.395 49.6463 115.448 49.6283 115.51 49.6074C115.572 49.5864 115.639 49.5536 115.713 49.509L116.068 50.5565C116.021 50.5921 115.956 50.6338 115.874 50.6814C115.803 50.7349 115.727 50.7854 115.644 50.8331C115.562 50.8807 115.478 50.9239 115.392 50.9627C115.307 51.0015 115.233 51.0314 115.172 51.0523C114.862 51.1572 114.585 51.1822 114.34 51.1273C114.094 51.0724 113.888 50.9008 113.722 50.6124C113.52 51.0059 113.221 51.3439 112.823 51.6262C112.435 51.9056 112.038 52.1142 111.631 52.2519C111.322 52.3568 111.011 52.4129 110.698 52.4204C110.388 52.4367 110.096 52.4027 109.821 52.3185C109.552 52.2224 109.309 52.0731 109.093 51.8705C108.882 51.6561 108.72 51.3809 108.606 51.045C108.462 50.6207 108.42 50.2505 108.481 49.9344C108.55 49.6153 108.683 49.3386 108.88 49.1045C109.085 48.8674 109.332 48.6654 109.62 48.4987C109.915 48.3202 110.215 48.1593 110.521 48.0161C110.777 47.8702 111.026 47.7465 111.268 47.645C111.506 47.5346 111.709 47.4214 111.877 47.3055C112.053 47.1866 112.177 47.0561 112.247 46.9141C112.323 46.7602 112.323 46.5728 112.248 46.3518C112.183 46.1573 112.08 46.0147 111.941 45.9239C111.81 45.8301 111.664 45.7762 111.502 45.7622C111.345 45.7364 111.18 45.7432 111.006 45.7824C110.829 45.8128 110.665 45.8534 110.515 45.9044C110.091 46.0481 109.772 46.2548 109.558 46.5245C109.343 46.7941 109.282 47.1206 109.372 47.5038L107.86 48.016C107.737 47.5651 107.719 47.1623 107.806 46.8077C107.893 46.453 108.047 46.1394 108.27 45.8668C108.502 45.5911 108.787 45.3566 109.126 45.163C109.464 44.9695 109.824 44.8084 110.204 44.6796C110.54 44.5657 110.883 44.4888 111.234 44.4487C111.585 44.4086 111.916 44.4246 112.226 44.4969C112.545 44.5661 112.828 44.702 113.074 44.9044C113.317 45.098 113.499 45.376 113.622 45.7385L114.817 49.2655ZM112.659 47.8683C112.48 48.0965 112.228 48.2851 111.905 48.4343C111.578 48.5746 111.257 48.7327 110.942 48.9084C110.792 48.9888 110.65 49.081 110.518 49.1849C110.383 49.2801 110.273 49.3913 110.188 49.5186C110.1 49.6371 110.044 49.7791 110.022 49.9445C110.005 50.098 110.029 50.272 110.095 50.4665C110.152 50.6345 110.248 50.7594 110.385 50.8414C110.521 50.9234 110.667 50.9772 110.824 51.003C110.986 51.017 111.151 51.0103 111.319 50.9829C111.496 50.9525 111.651 50.9148 111.784 50.8699C111.952 50.813 112.125 50.7295 112.305 50.6194C112.484 50.5093 112.64 50.3727 112.772 50.2098C112.913 50.0438 113.014 49.8618 113.075 49.6637C113.133 49.4568 113.122 49.234 113.041 48.9954L112.659 47.8683ZM114.638 43.3841L116.07 42.8988L116.411 43.9065L116.447 43.9241C116.548 43.4661 116.748 43.0681 117.047 42.7302C117.344 42.3834 117.717 42.1336 118.168 41.9809C118.919 41.7263 119.578 41.72 120.143 41.9622C120.707 42.2044 121.122 42.7144 121.385 43.4923L122.98 48.1994L121.469 48.7116L120.009 44.4023C119.808 43.8691 119.561 43.5191 119.268 43.3523C118.972 43.1767 118.599 43.1652 118.148 43.318C117.892 43.4048 117.678 43.5313 117.508 43.6975C117.335 43.8548 117.206 44.0413 117.121 44.2572C117.034 44.4642 116.988 44.6917 116.983 44.9397C116.978 45.1876 117.018 45.4354 117.102 45.6829L118.472 49.727L116.96 50.2392L114.638 43.3841ZM130.791 45.1537C131.142 46.188 131.11 47.0559 130.698 47.7574C130.297 48.4648 129.553 49.0027 128.466 49.3711C128.121 49.4879 127.76 49.5709 127.382 49.62C127.013 49.6661 126.655 49.6546 126.306 49.5855C125.966 49.5133 125.653 49.3732 125.365 49.1651C125.078 48.957 124.849 48.66 124.679 48.2742L126.191 47.762C126.307 47.9592 126.44 48.1061 126.591 48.2027C126.742 48.2994 126.901 48.3591 127.066 48.3819C127.243 48.4105 127.423 48.4038 127.606 48.3615C127.792 48.3281 127.982 48.2785 128.176 48.2126C128.786 48.0059 129.182 47.7044 129.363 47.308C129.544 46.9116 129.539 46.4305 129.347 45.8648L128.992 44.8173L128.965 44.8263C128.882 45.2783 128.691 45.6732 128.391 46.0112C128.101 46.3462 127.743 46.5855 127.319 46.7293C126.771 46.915 126.271 46.9809 125.819 46.9271C125.373 46.8614 124.967 46.7085 124.599 46.4683C124.238 46.2162 123.927 45.8931 123.665 45.4989C123.403 45.1047 123.189 44.6601 123.021 44.1651C122.865 43.7054 122.787 43.2439 122.788 42.7805C122.789 42.3171 122.869 41.8858 123.03 41.4865C123.187 41.0784 123.424 40.7172 123.742 40.4028C124.068 40.0853 124.474 39.8443 124.96 39.6795C125.393 39.5328 125.822 39.4908 126.248 39.5536C126.67 39.6076 127.044 39.7961 127.37 40.1192L127.397 40.1102L127.078 39.1688L128.59 38.6566L130.791 45.1537ZM127.153 45.4551C127.489 45.3412 127.75 45.1791 127.935 44.9686C128.125 44.7463 128.254 44.5007 128.321 44.2318C128.393 43.9511 128.412 43.6588 128.378 43.3549C128.35 43.0393 128.287 42.7356 128.188 42.4439C128.089 42.1521 127.958 41.8813 127.794 41.6312C127.631 41.3811 127.438 41.1755 127.216 41.0142C127.002 40.85 126.755 40.7465 126.475 40.7036C126.203 40.6577 125.903 40.6902 125.576 40.801C125.24 40.9148 124.982 41.0814 124.8 41.3007C124.618 41.52 124.495 41.7685 124.431 42.0463C124.365 42.3152 124.35 42.606 124.387 42.9187C124.421 43.2225 124.486 43.5159 124.582 43.7987C124.678 44.0816 124.807 44.3481 124.971 44.5981C125.132 44.8394 125.318 45.0421 125.532 45.2063C125.754 45.3675 125.998 45.477 126.264 45.5347C126.539 45.5895 126.835 45.5629 127.153 45.4551ZM142.582 41.5576L141.15 42.0428L140.835 41.1146L140.809 41.1236C140.74 41.5903 140.542 41.9779 140.213 42.2865C139.881 42.5863 139.498 42.8095 139.065 42.9563C138.526 43.139 138.021 43.2064 137.552 43.1586C137.088 43.0989 136.668 42.9504 136.292 42.7132C135.916 42.476 135.587 42.1589 135.305 41.7618C135.019 41.3559 134.79 40.8966 134.616 40.3839C134.406 39.7652 134.309 39.2019 134.324 38.6942C134.339 38.1864 134.435 37.7403 134.61 37.3557C134.794 36.9682 135.04 36.6482 135.349 36.3958C135.663 36.1316 136.006 35.9365 136.378 35.8107C136.59 35.7388 136.814 35.6876 137.05 35.6569C137.283 35.6174 137.516 35.6074 137.749 35.6269C137.982 35.6464 138.207 35.6984 138.423 35.7829C138.645 35.8556 138.844 35.9653 139.022 36.112L139.049 36.103L137.862 32.6025L139.374 32.0903L142.582 41.5576ZM136.168 39.9911C136.267 40.2828 136.4 40.5581 136.566 40.817C136.742 41.0729 136.942 41.2859 137.167 41.456C137.401 41.6231 137.66 41.7325 137.943 41.7842C138.227 41.8359 138.532 41.8064 138.859 41.6955C139.195 41.5817 139.459 41.4137 139.649 41.1913C139.849 40.966 139.985 40.713 140.057 40.4323C140.139 40.1485 140.167 39.8532 140.141 39.5464C140.122 39.2277 140.062 38.9181 139.96 38.6176C139.702 37.8574 139.329 37.3235 138.841 37.016C138.361 36.7056 137.829 36.6492 137.246 36.8468C136.892 36.9666 136.617 37.1436 136.421 37.3778C136.23 37.6001 136.095 37.8575 136.017 38.1501C135.945 38.4309 135.924 38.7335 135.955 39.058C135.992 39.3707 136.063 39.6817 136.168 39.9911ZM149.455 37.5287C149.518 37.7144 149.585 37.8395 149.656 37.9041C149.736 37.9656 149.847 37.9725 149.988 37.9245C150.033 37.9096 150.086 37.8916 150.148 37.8706C150.209 37.8497 150.277 37.8169 150.351 37.7722L150.706 38.8197C150.659 38.8554 150.594 38.897 150.511 38.9446C150.441 38.9981 150.364 39.0487 150.282 39.0963C150.2 39.1439 150.116 39.1872 150.03 39.2259C149.945 39.2647 149.871 39.2946 149.809 39.3156C149.5 39.4204 149.223 39.4454 148.977 39.3905C148.732 39.3357 148.526 39.164 148.359 38.8756C148.158 39.2692 147.858 39.6071 147.461 39.8895C147.073 40.1688 146.676 40.3774 146.269 40.5152C145.96 40.62 145.649 40.6762 145.336 40.6836C145.026 40.6999 144.734 40.6659 144.459 40.5817C144.19 40.4856 143.947 40.3363 143.73 40.1337C143.52 39.9193 143.358 39.6441 143.244 39.3082C143.1 38.8839 143.058 38.5137 143.119 38.1976C143.188 37.8785 143.321 37.6019 143.517 37.3677C143.723 37.1306 143.97 36.9287 144.258 36.762C144.552 36.5834 144.853 36.4226 145.159 36.2794C145.415 36.1335 145.664 36.0098 145.905 35.9082C146.144 35.7978 146.347 35.6847 146.515 35.5687C146.691 35.4498 146.814 35.3193 146.885 35.1773C146.961 35.0235 146.961 34.836 146.886 34.615C146.82 34.4206 146.718 34.2779 146.579 34.1871C146.448 34.0933 146.302 34.0394 146.14 34.0255C145.983 33.9997 145.818 34.0064 145.644 34.0456C145.467 34.076 145.303 34.1167 145.153 34.1676C144.729 34.3114 144.409 34.5181 144.195 34.7877C143.981 35.0574 143.919 35.3838 144.01 35.7671L142.498 36.2793C142.375 35.8283 142.357 35.4255 142.444 35.0709C142.53 34.7163 142.685 34.4027 142.908 34.13C143.14 33.8544 143.425 33.6198 143.764 33.4263C144.102 33.2328 144.461 33.0716 144.841 32.9428C145.177 32.829 145.521 32.752 145.872 32.7119C146.223 32.6718 146.554 32.6879 146.864 32.7601C147.183 32.8294 147.465 32.9652 147.711 33.1677C147.954 33.3613 148.137 33.6393 148.26 34.0017L149.455 37.5287ZM147.297 36.1316C147.118 36.3597 146.866 36.5484 146.542 36.6975C146.215 36.8379 145.895 36.9959 145.58 37.1716C145.429 37.252 145.288 37.3442 145.156 37.4482C145.021 37.5433 144.911 37.6545 144.826 37.7819C144.738 37.9004 144.682 38.0423 144.659 38.2077C144.642 38.3613 144.667 38.5353 144.733 38.7298C144.79 38.8977 144.886 39.0227 145.022 39.1046C145.159 39.1866 145.305 39.2405 145.462 39.2663C145.624 39.2802 145.789 39.2735 145.957 39.2461C146.134 39.2157 146.289 39.1781 146.422 39.1331C146.59 39.0762 146.763 38.9927 146.943 38.8826C147.122 38.7725 147.278 38.636 147.41 38.473C147.551 38.307 147.652 38.125 147.713 37.927C147.771 37.7201 147.759 37.4973 147.679 37.2586L147.297 36.1316ZM151.196 36.7911L152.973 36.1891L153.534 37.8465L151.757 38.4485L151.196 36.7911ZM148.616 28.9588L150.273 28.3972L151.199 31.1286L152.15 35.3741L151.367 35.6392L149.541 31.6903L148.616 28.9588Z" fill="#FE3B2E"/>
<path d="M226.5 57L126.5 93L98.5 154.5L202 115L226.5 57Z" fill="#6E6D6D" stroke="#FE3B2E"/>
<path d="M153 116L167.5 78.5L226.5 57L202 115L98.5 154.5L113.5 121.5L153 116Z" fill="black"/>
<path d="M202 115L153 116M153 116L113.5 121.5L98.5 154.5L202 115L226.5 57L167.5 78.5L153 116Z" stroke="#FE3B2E"/>
<path d="M205.588 146.184L199.444 147.113C199.34 146.366 199.421 145.687 199.689 145.077C199.956 144.467 200.362 143.91 200.909 143.407C201.168 143.149 201.441 142.897 201.728 142.652C202.014 142.399 202.272 142.136 202.503 141.865C202.734 141.593 202.915 141.311 203.046 141.02C203.176 140.72 203.219 140.393 203.174 140.041C203.149 139.878 203.102 139.71 203.032 139.536C202.969 139.353 202.87 139.193 202.736 139.055C202.6 138.909 202.425 138.8 202.213 138.727C201.999 138.645 201.733 138.628 201.416 138.676C201.125 138.72 200.89 138.817 200.711 138.967C200.539 139.107 200.409 139.289 200.32 139.512C200.238 139.726 200.188 139.975 200.17 140.258C200.16 140.54 200.174 140.84 200.214 141.159L198.748 141.38C198.673 140.883 198.668 140.415 198.733 139.976C198.806 139.527 198.951 139.128 199.17 138.779C199.389 138.43 199.675 138.142 200.026 137.913C200.384 137.675 200.816 137.518 201.322 137.441C201.87 137.359 202.342 137.379 202.738 137.503C203.134 137.628 203.464 137.81 203.728 138.051C204.001 138.29 204.209 138.565 204.352 138.877C204.494 139.179 204.588 139.476 204.632 139.768C204.686 140.128 204.679 140.462 204.612 140.77C204.545 141.078 204.436 141.371 204.285 141.648C204.132 141.916 203.952 142.171 203.743 142.413C203.534 142.655 203.315 142.886 203.085 143.104C202.855 143.323 202.624 143.534 202.391 143.735C202.159 143.937 201.944 144.136 201.745 144.332C201.556 144.528 201.393 144.728 201.258 144.932C201.121 145.128 201.037 145.329 201.007 145.535L205.39 144.873L205.588 146.184ZM208.271 136.391C208.914 136.294 209.459 136.365 209.908 136.604C210.363 136.833 210.737 137.162 211.03 137.591C211.33 138.01 211.56 138.488 211.72 139.025C211.888 139.561 212.012 140.085 212.089 140.6C212.167 141.114 212.204 141.651 212.202 142.213C212.207 142.773 212.13 143.302 211.968 143.8C211.814 144.287 211.554 144.712 211.188 145.074C210.829 145.427 210.329 145.651 209.686 145.749C209.043 145.846 208.494 145.78 208.039 145.551C207.591 145.311 207.217 144.982 206.917 144.563C206.624 144.134 206.393 143.652 206.225 143.116C206.065 142.58 205.946 142.054 205.868 141.54C205.79 141.026 205.748 140.489 205.743 139.929C205.745 139.367 205.824 138.843 205.978 138.355C206.14 137.857 206.4 137.432 206.758 137.08C207.124 136.718 207.629 136.488 208.271 136.391ZM209.501 144.527C209.818 144.48 210.07 144.349 210.257 144.137C210.443 143.916 210.573 143.642 210.646 143.316C210.727 142.979 210.761 142.597 210.749 142.169C210.737 141.742 210.695 141.292 210.624 140.821C210.553 140.35 210.46 139.912 210.347 139.509C210.232 139.097 210.086 138.742 209.91 138.444C209.742 138.145 209.537 137.922 209.296 137.774C209.053 137.618 208.773 137.564 208.456 137.612C208.13 137.661 207.875 137.796 207.689 138.017C207.51 138.228 207.381 138.502 207.3 138.839C207.228 139.174 207.198 139.555 207.21 139.983C207.221 140.402 207.262 140.847 207.333 141.318C207.405 141.79 207.498 142.231 207.613 142.644C207.727 143.056 207.869 143.411 208.037 143.71C208.212 143.999 208.417 144.222 208.651 144.38C208.892 144.528 209.176 144.577 209.501 144.527ZM219.873 144.025L213.729 144.953C213.625 144.207 213.706 143.528 213.974 142.918C214.241 142.308 214.647 141.751 215.194 141.248C215.453 140.99 215.726 140.738 216.013 140.493C216.299 140.239 216.557 139.977 216.788 139.705C217.019 139.434 217.2 139.152 217.331 138.861C217.461 138.56 217.504 138.234 217.459 137.881C217.434 137.719 217.387 137.55 217.317 137.377C217.254 137.194 217.155 137.033 217.021 136.896C216.885 136.75 216.71 136.64 216.498 136.567C216.284 136.486 216.018 136.469 215.701 136.517C215.41 136.561 215.175 136.658 214.996 136.808C214.824 136.947 214.694 137.129 214.605 137.353C214.523 137.567 214.473 137.816 214.455 138.099C214.445 138.381 214.459 138.681 214.499 138.999L213.033 139.221C212.958 138.724 212.953 138.256 213.018 137.816C213.091 137.367 213.236 136.968 213.455 136.62C213.674 136.271 213.96 135.982 214.311 135.754C214.669 135.516 215.101 135.359 215.607 135.282C216.155 135.199 216.627 135.22 217.023 135.344C217.419 135.468 217.748 135.651 218.013 135.891C218.286 136.131 218.494 136.406 218.637 136.717C218.779 137.02 218.873 137.317 218.917 137.609C218.971 137.968 218.964 138.302 218.897 138.611C218.83 138.919 218.721 139.211 218.57 139.488C218.417 139.757 218.237 140.012 218.028 140.254C217.819 140.496 217.6 140.726 217.37 140.945C217.14 141.164 216.909 141.374 216.676 141.576C216.444 141.778 216.229 141.977 216.03 142.173C215.841 142.368 215.678 142.568 215.543 142.773C215.406 142.969 215.322 143.17 215.292 143.376L219.675 142.713L219.873 144.025ZM220.591 134.713L225.244 134.009L225.443 135.32L221.882 135.859L221.765 138.217L221.795 138.238C221.958 137.986 222.181 137.781 222.464 137.624C222.755 137.458 223.05 137.352 223.35 137.306C223.795 137.239 224.206 137.256 224.58 137.357C224.954 137.45 225.281 137.615 225.562 137.853C225.842 138.082 226.07 138.372 226.246 138.723C226.43 139.072 226.555 139.46 226.62 139.889C226.674 140.249 226.67 140.631 226.609 141.034C226.554 141.428 226.422 141.803 226.213 142.159C226.011 142.505 225.729 142.811 225.366 143.076C225.001 143.333 224.545 143.502 223.997 143.585C223.56 143.651 223.143 143.653 222.748 143.59C222.363 143.534 222.011 143.412 221.694 143.224C221.376 143.035 221.106 142.786 220.884 142.478C220.669 142.16 220.519 141.775 220.433 141.324L221.899 141.102C222.016 141.584 222.24 141.936 222.571 142.157C222.901 142.37 223.306 142.441 223.786 142.368C224.095 142.321 224.348 142.231 224.547 142.095C224.746 141.96 224.896 141.793 224.997 141.593C225.107 141.393 225.17 141.169 225.185 140.921C225.208 140.672 225.2 140.41 225.158 140.136C225.12 139.888 225.051 139.657 224.948 139.445C224.845 139.224 224.712 139.038 224.549 138.887C224.386 138.736 224.185 138.627 223.947 138.557C223.717 138.487 223.456 138.474 223.165 138.518C222.856 138.564 222.574 138.668 222.318 138.83C222.069 138.981 221.909 139.225 221.837 139.56L220.371 139.781L220.591 134.713Z" fill="white"/>
<path d="M9.5 32L95.5 67M95.5 67L246 21.5M95.5 67L72 163.5" stroke="#8CFFFD"/>
<path d="M209.5 120.5L251 140.5" stroke="#8CFFFD"/>
<path d="M78 164.5L94 158" stroke="#8CFFFD"/>
<path d="M234 51L248 29" stroke="#8CFFFD"/>
<path d="M19.1357 48.7019L23.8207 50.5602C24.5742 50.8591 25.1457 51.212 25.5351 51.619C25.9245 52.0259 26.1832 52.4441 26.3112 52.8735C26.4392 53.303 26.4711 53.7287 26.407 54.1508C26.3528 54.5768 26.2608 54.9534 26.131 55.2806C26.0012 55.6078 25.81 55.9451 25.5575 56.2925C25.3188 56.6339 25.0057 56.917 24.6181 57.142C24.2305 57.3669 23.7555 57.4941 23.193 57.5234C22.6345 57.5429 21.9785 57.4031 21.2249 57.1042L18.3991 55.9834L16.7827 60.0585L14.9236 59.3211L19.1357 48.7019ZM19.0009 54.4663L21.7226 55.5459C21.9308 55.6285 22.1558 55.6833 22.3975 55.7104C22.6392 55.7374 22.8749 55.7219 23.1045 55.6637C23.3479 55.5997 23.5675 55.4802 23.763 55.3053C23.9725 55.1245 24.1441 54.8655 24.2778 54.5284C24.4154 54.1813 24.4799 53.8741 24.4712 53.6067C24.4625 53.3394 24.3995 53.1078 24.282 52.912C24.1685 52.7064 24.0125 52.5355 23.8141 52.3994C23.6156 52.2633 23.3924 52.1461 23.1446 52.0478L20.3931 50.9564L19.0009 54.4663ZM28.0479 64.7679C27.4331 64.524 26.9222 64.2066 26.515 63.8156C26.1217 63.4186 25.8272 62.9747 25.6317 62.4841C25.4461 61.9974 25.3624 61.4707 25.3805 60.9042C25.4086 60.3415 25.5407 59.7628 25.7766 59.1679C26.0087 58.5829 26.3073 58.0759 26.6725 57.647C27.0476 57.2221 27.4696 56.896 27.9383 56.6688C28.417 56.4456 28.9337 56.3292 29.4883 56.3197C30.0567 56.3042 30.6483 56.4184 31.263 56.6622C31.8778 56.9061 32.3818 57.2265 32.7751 57.6235C33.1823 58.0145 33.4787 58.4534 33.6643 58.9401C33.8599 59.4308 33.9436 59.9574 33.9155 60.52C33.8973 61.0866 33.7722 61.6623 33.5402 62.2473C33.3042 62.8422 32.9987 63.3522 32.6235 63.7771C32.2583 64.206 31.8364 64.5321 31.3577 64.7553C30.8889 64.9825 30.3703 65.1038 29.8019 65.1193C29.2473 65.1289 28.6626 65.0117 28.0479 64.7679ZM28.5788 63.4293C28.9556 63.5788 29.3143 63.6292 29.6548 63.5807C29.9954 63.5322 30.306 63.4144 30.5867 63.2274C30.8675 63.0404 31.1104 62.804 31.3156 62.5182C31.5346 62.2264 31.711 61.9119 31.8447 61.5748C31.9745 61.2476 32.0596 60.9027 32.1002 60.5401C32.1507 60.1814 32.1358 59.8428 32.0557 59.5241C31.9795 59.1955 31.834 58.8968 31.6193 58.6281C31.4046 58.3593 31.1089 58.1502 30.7321 58.0008C30.3553 57.8513 29.9966 57.8009 29.6561 57.8494C29.3155 57.8979 29.0049 58.0157 28.7242 58.2027C28.4474 58.3797 28.1995 58.6142 27.9805 58.906C27.7713 59.2017 27.6019 59.5132 27.4721 59.8404C27.3384 60.1775 27.2463 60.5254 27.1958 60.8841C27.1592 61.2367 27.179 61.5774 27.2552 61.906C27.3315 62.2346 27.4769 62.5332 27.6916 62.802C27.9063 63.0708 28.2021 63.2799 28.5788 63.4293ZM36.4718 58.9693L38.0631 59.6005L37.4732 61.0878L37.5029 61.0996C37.6351 60.911 37.8099 60.7451 38.0274 60.6019C38.2548 60.4626 38.4991 60.3529 38.7603 60.2729C39.0354 60.187 39.3165 60.1436 39.6037 60.1427C39.891 60.1419 40.1635 60.1926 40.4213 60.2949C40.6196 60.3735 40.7514 60.4316 40.8169 60.469C40.8923 60.5104 40.9677 60.5518 41.0431 60.5932L40.3942 62.2292C40.283 62.1621 40.165 62.0981 40.04 62.0371C39.9289 61.97 39.8139 61.9129 39.6949 61.8657C39.4073 61.7517 39.1111 61.703 38.8061 61.7197C38.515 61.7305 38.23 61.8125 37.9511 61.9658C37.6762 62.1093 37.4193 62.3229 37.1805 62.6069C36.9416 62.8908 36.7376 63.2459 36.5685 63.6723L35.1173 67.331L33.4218 66.6585L36.4718 58.9693ZM40.9271 60.7365L42.2061 61.2438L43.1205 58.9386L44.816 59.6111L43.9016 61.9164L45.4335 62.524L44.9321 63.7882L43.4002 63.1805L41.7719 67.2854C41.7012 67.4639 41.6452 67.6195 41.6039 67.7524C41.5726 67.8891 41.5641 68.012 41.5783 68.1209C41.6024 68.2337 41.6591 68.3365 41.7485 68.4294C41.8418 68.5123 41.9827 68.5911 42.1711 68.6658C42.2901 68.713 42.4091 68.7602 42.528 68.8074C42.651 68.8447 42.7778 68.8721 42.9086 68.8895L42.3894 70.1983C42.1932 70.1434 42.0019 70.0905 41.8156 70.0395C41.6292 69.9886 41.4418 69.9257 41.2535 69.851C40.8073 69.674 40.4611 69.4908 40.2149 69.3014C39.9826 69.1059 39.8186 68.8974 39.7229 68.6759C39.641 68.4483 39.6195 68.1988 39.6583 67.9273C39.7071 67.6598 39.7894 67.3654 39.9054 67.0442L41.7047 62.508L40.4256 62.0007L40.9271 60.7365ZM45.8947 62.7069L47.1588 63.2084L47.4125 62.5688C47.6052 62.083 47.8201 61.7149 48.057 61.4647C48.2979 61.2045 48.549 61.0344 48.8102 60.9544C49.0754 60.8645 49.3418 60.844 49.6093 60.8927C49.8907 60.9355 50.1702 61.0119 50.4478 61.122C50.9932 61.3383 51.376 61.5304 51.5963 61.6981L51.0713 63.0218C50.974 62.9488 50.8629 62.8817 50.738 62.8207C50.6268 62.7537 50.487 62.6867 50.3184 62.6199C50.0904 62.5294 49.8705 62.5053 49.6586 62.5475C49.4567 62.5936 49.2929 62.7753 49.167 63.0926L48.8543 63.8809L50.297 64.4531L49.7955 65.7173L48.3529 65.1451L45.8044 71.5701L44.1089 70.8976L46.6574 64.4725L45.3932 63.9711L45.8947 62.7069ZM51.7368 74.1642C51.122 73.9203 50.6111 73.6029 50.2039 73.2119C49.8105 72.8149 49.5161 72.3711 49.3206 71.8804C49.135 71.3937 49.0512 70.867 49.0694 70.3005C49.0975 69.7379 49.2295 69.1591 49.4655 68.5642C49.6975 67.9792 49.9962 67.4722 50.3614 67.0433C50.7365 66.6184 51.1584 66.2923 51.6272 66.0652C52.1059 65.8419 52.6226 65.7256 53.1771 65.716C53.7456 65.7005 54.3372 65.8147 54.9519 66.0585C55.5666 66.3024 56.0707 66.6228 56.464 67.0198C56.8712 67.4108 57.1676 67.8497 57.3532 68.3364C57.5487 68.8271 57.6325 69.3537 57.6044 69.9163C57.5862 70.4829 57.4611 71.0586 57.2291 71.6436C56.9931 72.2385 56.6875 72.7485 56.3124 73.1734C55.9472 73.6023 55.5253 73.9284 55.0466 74.1516C54.5778 74.3788 54.0592 74.5001 53.4907 74.5156C52.9362 74.5252 52.3515 74.408 51.7368 74.1642ZM52.2677 72.8256C52.6445 72.9751 53.0031 73.0255 53.3437 72.977C53.6842 72.9285 53.9949 72.8107 54.2756 72.6237C54.5563 72.4367 54.7993 72.2003 55.0045 71.9145C55.2235 71.6227 55.3999 71.3082 55.5336 70.9711C55.6634 70.6439 55.7485 70.299 55.7891 69.9364C55.8395 69.5778 55.8247 69.2391 55.7445 68.9204C55.6683 68.5918 55.5229 68.2932 55.3082 68.0244C55.0935 67.7556 54.7977 67.5465 54.421 67.3971C54.0442 67.2476 53.6855 67.1972 53.345 67.2457C53.0044 67.2942 52.6938 67.412 52.4131 67.599C52.1363 67.7761 51.8883 68.0105 51.6693 68.3023C51.4602 68.598 51.2908 68.9095 51.161 69.2367C51.0273 69.5738 50.9352 69.9217 50.8847 70.2804C50.8481 70.6331 50.8679 70.9737 50.9441 71.3023C51.0203 71.6309 51.1658 71.9295 51.3805 72.1983C51.5952 72.4671 51.8909 72.6762 52.2677 72.8256ZM61.3674 65.4533L63.0629 66.1259L58.8508 76.745L57.1553 76.0725L61.3674 65.4533ZM64.9549 66.8763L66.6504 67.5489L66.0132 69.1551L64.3177 68.4826L64.9549 66.8763ZM63.7927 69.8063L65.4882 70.4788L62.4382 78.168L60.7428 77.4955L63.7927 69.8063ZM67.7278 80.5071C67.1131 80.2633 66.6021 79.9458 66.195 79.5548C65.8016 79.1578 65.5072 78.714 65.3117 78.2233C65.126 77.7366 65.0423 77.21 65.0605 76.6434C65.0886 76.0808 65.2206 75.502 65.4566 74.9071C65.6886 74.3221 65.9872 73.8152 66.3524 73.3863C66.7276 72.9613 67.1495 72.6353 67.6183 72.4081C68.097 72.1849 68.6136 72.0685 69.1682 72.059C69.7367 72.0435 70.3282 72.1576 70.943 72.4015C71.5577 72.6453 72.0618 72.9657 72.4551 73.3627C72.8623 73.7537 73.1587 74.1926 73.3443 74.6793C73.5398 75.17 73.6235 75.6966 73.5955 76.2593C73.5773 76.8258 73.4522 77.4016 73.2201 77.9866C72.9842 78.5815 72.6786 79.0914 72.3035 79.5164C71.9383 79.9453 71.5164 80.2713 71.0377 80.4946C70.5689 80.7217 70.0503 80.8431 69.4818 80.8586C68.9272 80.8681 68.3426 80.7509 67.7278 80.5071ZM68.2588 79.1686C68.6356 79.318 68.9942 79.3685 69.3348 79.3199C69.6753 79.2714 69.986 79.1537 70.2667 78.9667C70.5474 78.7797 70.7904 78.5432 70.9955 78.2574C71.2146 77.9656 71.3909 77.6512 71.5246 77.314C71.6544 76.9868 71.7396 76.642 71.7802 76.2794C71.8306 75.9207 71.8158 75.582 71.7356 75.2634C71.6594 74.9348 71.5139 74.6361 71.2992 74.3673C71.0846 74.0986 70.7888 73.8895 70.412 73.74C70.0353 73.5906 69.6766 73.5401 69.336 73.5886C68.9955 73.6371 68.6849 73.7549 68.4041 73.9419C68.1273 74.119 67.8794 74.3534 67.6604 74.6452C67.4513 74.941 67.2819 75.2524 67.1521 75.5796C67.0184 75.9168 66.9263 76.2646 66.8758 76.6233C66.8392 76.976 66.859 77.3166 66.9352 77.6452C67.0114 77.9738 67.1569 78.2725 67.3716 78.5412C67.5863 78.81 67.882 79.0191 68.2588 79.1686Z" fill="#8CFFFD"/>
</svg>
