<svg width="291" height="201" viewBox="0 0 291 201" fill="none" xmlns="http://www.w3.org/2000/svg">
<path d="M208 6.5V61L208.993 61.085L218.422 6.5H290.41L271.007 122.918L271 122.959V200.5H0.5V6.5H208Z" fill="#FE3B2E" stroke="black"/>
<path d="M10.824 37.864H18.384C19.6 37.864 20.592 38.04 21.36 38.392C22.128 38.744 22.72 39.184 23.136 39.712C23.552 40.24 23.832 40.816 23.976 41.44C24.136 42.064 24.216 42.64 24.216 43.168C24.216 43.696 24.136 44.272 23.976 44.896C23.832 45.504 23.552 46.072 23.136 46.6C22.72 47.128 22.128 47.568 21.36 47.92C20.592 48.256 19.6 48.424 18.384 48.424H13.824V55H10.824V37.864ZM13.824 45.976H18.216C18.552 45.976 18.896 45.928 19.248 45.832C19.6 45.736 19.92 45.584 20.208 45.376C20.512 45.152 20.752 44.864 20.928 44.512C21.12 44.144 21.216 43.688 21.216 43.144C21.216 42.584 21.136 42.12 20.976 41.752C20.816 41.384 20.6 41.096 20.328 40.888C20.056 40.664 19.744 40.512 19.392 40.432C19.04 40.352 18.664 40.312 18.264 40.312H13.824V45.976ZM32.1358 55.336C31.1438 55.336 30.2558 55.176 29.4718 54.856C28.7038 54.52 28.0478 54.064 27.5038 53.488C26.9758 52.912 26.5678 52.224 26.2798 51.424C26.0078 50.624 25.8718 49.744 25.8718 48.784C25.8718 47.84 26.0078 46.968 26.2798 46.168C26.5678 45.368 26.9758 44.68 27.5038 44.104C28.0478 43.528 28.7038 43.08 29.4718 42.76C30.2558 42.424 31.1438 42.256 32.1358 42.256C33.1278 42.256 34.0078 42.424 34.7758 42.76C35.5598 43.08 36.2158 43.528 36.7438 44.104C37.2878 44.68 37.6958 45.368 37.9678 46.168C38.2558 46.968 38.3998 47.84 38.3998 48.784C38.3998 49.744 38.2558 50.624 37.9678 51.424C37.6958 52.224 37.2878 52.912 36.7438 53.488C36.2158 54.064 35.5598 54.52 34.7758 54.856C34.0078 55.176 33.1278 55.336 32.1358 55.336ZM32.1358 53.176C32.7438 53.176 33.2718 53.048 33.7198 52.792C34.1678 52.536 34.5358 52.2 34.8238 51.784C35.1118 51.368 35.3198 50.904 35.4478 50.392C35.5918 49.864 35.6638 49.328 35.6638 48.784C35.6638 48.256 35.5918 47.728 35.4478 47.2C35.3198 46.672 35.1118 46.208 34.8238 45.808C34.5358 45.392 34.1678 45.056 33.7198 44.8C33.2718 44.544 32.7438 44.416 32.1358 44.416C31.5278 44.416 30.9998 44.544 30.5518 44.8C30.1038 45.056 29.7358 45.392 29.4478 45.808C29.1598 46.208 28.9438 46.672 28.7998 47.2C28.6718 47.728 28.6078 48.256 28.6078 48.784C28.6078 49.328 28.6718 49.864 28.7998 50.392C28.9438 50.904 29.1598 51.368 29.4478 51.784C29.7358 52.2 30.1038 52.536 30.5518 52.792C30.9998 53.048 31.5278 53.176 32.1358 53.176ZM40.6744 42.592H43.2424V44.992H43.2904C43.3704 44.656 43.5224 44.328 43.7464 44.008C43.9864 43.688 44.2664 43.4 44.5864 43.144C44.9224 42.872 45.2904 42.656 45.6904 42.496C46.0904 42.336 46.4984 42.256 46.9144 42.256C47.2344 42.256 47.4504 42.264 47.5624 42.28C47.6904 42.296 47.8184 42.312 47.9464 42.328V44.968C47.7544 44.936 47.5544 44.912 47.3464 44.896C47.1544 44.864 46.9624 44.848 46.7704 44.848C46.3064 44.848 45.8664 44.944 45.4504 45.136C45.0504 45.312 44.6984 45.584 44.3944 45.952C44.0904 46.304 43.8504 46.744 43.6744 47.272C43.4984 47.8 43.4104 48.408 43.4104 49.096V55H40.6744V42.592ZM47.8639 42.592H49.9279V38.872H52.6639V42.592H55.1359V44.632H52.6639V51.256C52.6639 51.544 52.6719 51.792 52.6879 52C52.7199 52.208 52.7759 52.384 52.8559 52.528C52.9519 52.672 53.0879 52.784 53.2639 52.864C53.4399 52.928 53.6799 52.96 53.9839 52.96C54.1759 52.96 54.3679 52.96 54.5599 52.96C54.7519 52.944 54.9439 52.912 55.1359 52.864V54.976C54.8319 55.008 54.5359 55.04 54.2479 55.072C53.9599 55.104 53.6639 55.12 53.3599 55.12C52.6399 55.12 52.0559 55.056 51.6079 54.928C51.1759 54.784 50.8319 54.584 50.5759 54.328C50.3359 54.056 50.1679 53.72 50.0719 53.32C49.9919 52.92 49.9439 52.464 49.9279 51.952V44.632H47.8639V42.592ZM55.8801 42.592H57.9201V41.56C57.9201 40.776 58.0161 40.144 58.2081 39.664C58.4001 39.168 58.6561 38.792 58.9761 38.536C59.2961 38.264 59.6561 38.088 60.0561 38.008C60.4721 37.912 60.9041 37.864 61.3521 37.864C62.2321 37.864 62.8721 37.92 63.2721 38.032V40.168C63.0961 40.12 62.9041 40.088 62.6961 40.072C62.5041 40.04 62.2721 40.024 62.0001 40.024C61.6321 40.024 61.3121 40.112 61.0401 40.288C60.7841 40.464 60.6561 40.808 60.6561 41.32V42.592H62.9841V44.632H60.6561V55H57.9201V44.632H55.8801V42.592ZM70.3624 55.336C69.3704 55.336 68.4824 55.176 67.6984 54.856C66.9304 54.52 66.2744 54.064 65.7304 53.488C65.2024 52.912 64.7944 52.224 64.5064 51.424C64.2344 50.624 64.0984 49.744 64.0984 48.784C64.0984 47.84 64.2344 46.968 64.5064 46.168C64.7944 45.368 65.2024 44.68 65.7304 44.104C66.2744 43.528 66.9304 43.08 67.6984 42.76C68.4824 42.424 69.3704 42.256 70.3624 42.256C71.3544 42.256 72.2344 42.424 73.0024 42.76C73.7864 43.08 74.4424 43.528 74.9704 44.104C75.5144 44.68 75.9224 45.368 76.1944 46.168C76.4824 46.968 76.6264 47.84 76.6264 48.784C76.6264 49.744 76.4824 50.624 76.1944 51.424C75.9224 52.224 75.5144 52.912 74.9704 53.488C74.4424 54.064 73.7864 54.52 73.0024 54.856C72.2344 55.176 71.3544 55.336 70.3624 55.336ZM70.3624 53.176C70.9704 53.176 71.4984 53.048 71.9464 52.792C72.3944 52.536 72.7624 52.2 73.0504 51.784C73.3384 51.368 73.5464 50.904 73.6744 50.392C73.8184 49.864 73.8904 49.328 73.8904 48.784C73.8904 48.256 73.8184 47.728 73.6744 47.2C73.5464 46.672 73.3384 46.208 73.0504 45.808C72.7624 45.392 72.3944 45.056 71.9464 44.8C71.4984 44.544 70.9704 44.416 70.3624 44.416C69.7544 44.416 69.2264 44.544 68.7784 44.8C68.3304 45.056 67.9624 45.392 67.6744 45.808C67.3864 46.208 67.1704 46.672 67.0264 47.2C66.8984 47.728 66.8344 48.256 66.8344 48.784C66.8344 49.328 66.8984 49.864 67.0264 50.392C67.1704 50.904 67.3864 51.368 67.6744 51.784C67.9624 52.2 68.3304 52.536 68.7784 52.792C69.2264 53.048 69.7544 53.176 70.3624 53.176ZM78.9729 37.864H81.7089V55H78.9729V37.864ZM84.762 37.864H87.498V40.456H84.762V37.864ZM84.762 42.592H87.498V55H84.762V42.592ZM96.1671 55.336C95.1751 55.336 94.2871 55.176 93.5031 54.856C92.7351 54.52 92.0791 54.064 91.5351 53.488C91.0071 52.912 90.5991 52.224 90.3111 51.424C90.0391 50.624 89.9031 49.744 89.9031 48.784C89.9031 47.84 90.0391 46.968 90.3111 46.168C90.5991 45.368 91.0071 44.68 91.5351 44.104C92.0791 43.528 92.7351 43.08 93.5031 42.76C94.2871 42.424 95.1751 42.256 96.1671 42.256C97.1591 42.256 98.0391 42.424 98.8071 42.76C99.5911 43.08 100.247 43.528 100.775 44.104C101.319 44.68 101.727 45.368 101.999 46.168C102.287 46.968 102.431 47.84 102.431 48.784C102.431 49.744 102.287 50.624 101.999 51.424C101.727 52.224 101.319 52.912 100.775 53.488C100.247 54.064 99.5911 54.52 98.8071 54.856C98.0391 55.176 97.1591 55.336 96.1671 55.336ZM96.1671 53.176C96.7751 53.176 97.3031 53.048 97.7511 52.792C98.1991 52.536 98.5671 52.2 98.8551 51.784C99.1431 51.368 99.3511 50.904 99.4791 50.392C99.6231 49.864 99.6951 49.328 99.6951 48.784C99.6951 48.256 99.6231 47.728 99.4791 47.2C99.3511 46.672 99.1431 46.208 98.8551 45.808C98.5671 45.392 98.1991 45.056 97.7511 44.8C97.3031 44.544 96.7751 44.416 96.1671 44.416C95.5591 44.416 95.0311 44.544 94.5831 44.8C94.1351 45.056 93.7671 45.392 93.4791 45.808C93.1911 46.208 92.9751 46.672 92.8311 47.2C92.7031 47.728 92.6391 48.256 92.6391 48.784C92.6391 49.328 92.7031 49.864 92.8311 50.392C92.9751 50.904 93.1911 51.368 93.4791 51.784C93.7671 52.2 94.1351 52.536 94.5831 52.792C95.0311 53.048 95.5591 53.176 96.1671 53.176Z" fill="#8CFFFD"/>
<path d="M119.312 53.52V54H108.32C108.304 53.312 108.448 52.688 108.752 52.128C109.056 51.568 109.456 51.048 109.952 50.568C110.448 50.072 111 49.608 111.608 49.176C112.232 48.728 112.848 48.288 113.456 47.856C114.08 47.424 114.688 46.984 115.28 46.536C115.872 46.088 116.4 45.624 116.864 45.144C117.328 44.648 117.696 44.128 117.968 43.584C118.256 43.024 118.4 42.424 118.4 41.784C118.4 41.144 118.28 40.584 118.04 40.104C117.816 39.608 117.504 39.2 117.104 38.88C116.704 38.544 116.224 38.296 115.664 38.136C115.12 37.96 114.52 37.872 113.864 37.872C113.016 37.872 112.288 38 111.68 38.256C111.072 38.512 110.576 38.872 110.192 39.336C109.808 39.784 109.528 40.328 109.352 40.968C109.176 41.592 109.088 42.28 109.088 43.032H108.608C108.624 41.24 109.064 39.856 109.928 38.88C110.808 37.888 112.12 37.392 113.864 37.392C114.568 37.392 115.224 37.488 115.832 37.68C116.44 37.856 116.968 38.128 117.416 38.496C117.864 38.864 118.216 39.32 118.472 39.864C118.744 40.408 118.88 41.048 118.88 41.784C118.88 42.68 118.64 43.496 118.16 44.232C117.68 44.968 117.072 45.656 116.336 46.296C115.616 46.936 114.832 47.544 113.984 48.12C113.136 48.68 112.336 49.248 111.584 49.824C110.848 50.384 110.216 50.968 109.688 51.576C109.16 52.168 108.864 52.816 108.8 53.52H119.312ZM133.176 45.84C133.176 46.864 133.072 47.88 132.864 48.888C132.672 49.896 132.336 50.8 131.856 51.6C131.376 52.4 130.744 53.048 129.96 53.544C129.176 54.024 128.192 54.264 127.008 54.264C125.84 54.264 124.856 54.024 124.056 53.544C123.272 53.048 122.64 52.4 122.16 51.6C121.68 50.8 121.336 49.896 121.128 48.888C120.936 47.88 120.84 46.864 120.84 45.84C120.84 44.816 120.936 43.8 121.128 42.792C121.336 41.784 121.68 40.88 122.16 40.08C122.64 39.28 123.272 38.632 124.056 38.136C124.856 37.64 125.84 37.392 127.008 37.392C128.192 37.392 129.176 37.64 129.96 38.136C130.744 38.632 131.376 39.28 131.856 40.08C132.336 40.88 132.672 41.784 132.864 42.792C133.072 43.8 133.176 44.816 133.176 45.84ZM132.696 45.84C132.696 44.928 132.608 44 132.432 43.056C132.256 42.112 131.952 41.256 131.52 40.488C131.088 39.72 130.504 39.096 129.768 38.616C129.048 38.12 128.128 37.872 127.008 37.872C125.888 37.872 124.96 38.12 124.224 38.616C123.504 39.096 122.928 39.72 122.496 40.488C122.064 41.256 121.76 42.112 121.584 43.056C121.408 44 121.32 44.928 121.32 45.84C121.32 46.752 121.408 47.68 121.584 48.624C121.76 49.568 122.064 50.424 122.496 51.192C122.928 51.96 123.504 52.592 124.224 53.088C124.96 53.568 125.888 53.808 127.008 53.808C128.128 53.808 129.048 53.568 129.768 53.088C130.504 52.592 131.088 51.96 131.52 51.192C131.952 50.424 132.256 49.568 132.432 48.624C132.608 47.68 132.696 46.752 132.696 45.84ZM145.984 53.52V54H134.992C134.976 53.312 135.12 52.688 135.424 52.128C135.728 51.568 136.128 51.048 136.624 50.568C137.12 50.072 137.672 49.608 138.28 49.176C138.904 48.728 139.52 48.288 140.128 47.856C140.752 47.424 141.36 46.984 141.952 46.536C142.544 46.088 143.072 45.624 143.536 45.144C144 44.648 144.368 44.128 144.64 43.584C144.928 43.024 145.072 42.424 145.072 41.784C145.072 41.144 144.952 40.584 144.712 40.104C144.488 39.608 144.176 39.2 143.776 38.88C143.376 38.544 142.896 38.296 142.336 38.136C141.792 37.96 141.192 37.872 140.536 37.872C139.688 37.872 138.96 38 138.352 38.256C137.744 38.512 137.248 38.872 136.864 39.336C136.48 39.784 136.2 40.328 136.024 40.968C135.848 41.592 135.76 42.28 135.76 43.032H135.28C135.296 41.24 135.736 39.856 136.6 38.88C137.48 37.888 138.792 37.392 140.536 37.392C141.24 37.392 141.896 37.488 142.504 37.68C143.112 37.856 143.64 38.128 144.088 38.496C144.536 38.864 144.888 39.32 145.144 39.864C145.416 40.408 145.552 41.048 145.552 41.784C145.552 42.68 145.312 43.496 144.832 44.232C144.352 44.968 143.744 45.656 143.008 46.296C142.288 46.936 141.504 47.544 140.656 48.12C139.808 48.68 139.008 49.248 138.256 49.824C137.52 50.384 136.888 50.968 136.36 51.576C135.832 52.168 135.536 52.816 135.472 53.52H145.984ZM150.536 38.16L149.048 45.144H149.096C149.56 44.376 150.176 43.816 150.944 43.464C151.728 43.112 152.6 42.936 153.56 42.936C154.408 42.936 155.176 43.08 155.864 43.368C156.552 43.64 157.144 44.024 157.64 44.52C158.136 45.016 158.52 45.616 158.792 46.32C159.064 47.008 159.2 47.76 159.2 48.576C159.2 49.44 159.064 50.224 158.792 50.928C158.52 51.632 158.136 52.232 157.64 52.728C157.144 53.224 156.552 53.608 155.864 53.88C155.176 54.136 154.408 54.264 153.56 54.264C152.728 54.264 151.952 54.144 151.232 53.904C150.528 53.648 149.92 53.288 149.408 52.824C148.912 52.36 148.528 51.792 148.256 51.12C147.984 50.432 147.864 49.648 147.896 48.768H148.376C148.344 49.568 148.448 50.28 148.688 50.904C148.928 51.528 149.272 52.056 149.72 52.488C150.184 52.92 150.744 53.248 151.4 53.472C152.056 53.696 152.776 53.808 153.56 53.808C154.36 53.808 155.072 53.688 155.696 53.448C156.336 53.192 156.88 52.84 157.328 52.392C157.776 51.928 158.12 51.376 158.36 50.736C158.6 50.08 158.72 49.36 158.72 48.576C158.72 47.824 158.592 47.136 158.336 46.512C158.096 45.872 157.752 45.328 157.304 44.88C156.856 44.416 156.312 44.056 155.672 43.8C155.032 43.544 154.328 43.416 153.56 43.416C152.6 43.416 151.712 43.632 150.896 44.064C150.08 44.48 149.448 45.096 149 45.912H148.4L150.152 37.68H158.528V38.16H150.536Z" fill="#8CFFFD"/>
<circle cx="17" cy="20" r="4.5" fill="#6E6D6D" stroke="black"/>
<circle cx="81" cy="20" r="4.5" fill="#6E6D6D" stroke="black"/>
<circle cx="145" cy="20" r="4.5" fill="#6E6D6D" stroke="black"/>
<circle cx="228" cy="20" r="4.5" fill="#6E6D6D" stroke="black"/>
<circle cx="49" cy="20" r="4.5" fill="#6E6D6D" stroke="black"/>
<circle cx="113" cy="20" r="4.5" fill="#6E6D6D" stroke="black"/>
<circle cx="177" cy="20" r="4.5" fill="#6E6D6D" stroke="black"/>
<circle cx="260" cy="20" r="4.5" fill="#6E6D6D" stroke="black"/>
<circle cx="33" cy="20" r="4.5" fill="#6E6D6D" stroke="black"/>
<circle cx="97" cy="20" r="4.5" fill="#6E6D6D" stroke="black"/>
<circle cx="161" cy="20" r="4.5" fill="#6E6D6D" stroke="black"/>
<circle cx="244" cy="20" r="4.5" fill="#6E6D6D" stroke="black"/>
<circle cx="65" cy="20" r="4.5" fill="#6E6D6D" stroke="black"/>
<circle cx="129" cy="20" r="4.5" fill="#6E6D6D" stroke="black"/>
<circle cx="193" cy="20" r="4.5" fill="#6E6D6D" stroke="black"/>
<circle cx="276" cy="20" r="4.5" fill="#6E6D6D" stroke="black"/>
<rect x="119.5" y="160.5" width="16" height="15" fill="black" stroke="#8CFFFD"/>
<rect x="135.5" y="160.5" width="16" height="15" fill="black" stroke="#8CFFFD"/>
<rect x="151.5" y="160.5" width="16" height="15" fill="black" stroke="#8CFFFD"/>
<rect x="55.5" y="160.5" width="16" height="15" fill="black" stroke="#8CFFFD"/>
<rect x="71.5" y="160.5" width="16" height="15" fill="black" stroke="#8CFFFD"/>
<rect x="247.5" y="66.5" width="16" height="15" fill="black" stroke="#8CFFFD"/>
<rect x="7.5" y="144.5" width="16" height="16" fill="black" stroke="#8CFFFD"/>
<rect x="135.5" y="144.5" width="16" height="16" fill="black" stroke="#8CFFFD"/>
<rect x="71.5" y="144.5" width="16" height="16" fill="black" stroke="#8CFFFD"/>
<rect x="199.5" y="144.5" width="16" height="16" fill="black" stroke="#8CFFFD"/>
<rect x="55.5" y="97.5" width="16" height="16" fill="black" stroke="#8CFFFD"/>
<rect x="39.5" y="144.5" width="16" height="16" fill="black" stroke="#8CFFFD"/>
<rect x="167.5" y="144.5" width="16" height="16" fill="black" stroke="#8CFFFD"/>
<rect x="23.5" y="97.5" width="16" height="16" fill="black" stroke="#8CFFFD"/>
<rect x="103.5" y="144.5" width="16" height="16" fill="black" stroke="#8CFFFD"/>
<rect x="231.5" y="144.5" width="16" height="16" fill="black" stroke="#8CFFFD"/>
<rect x="87.5" y="97.5" width="16" height="16" fill="black" stroke="#8CFFFD"/>
<rect x="151.5" y="97.5" width="16" height="16" fill="black" stroke="#8CFFFD"/>
<rect x="215.5" y="97.5" width="16" height="16" fill="black" stroke="#8CFFFD"/>
<rect x="119.5" y="97.5" width="16" height="16" fill="black" stroke="#8CFFFD"/>
<rect x="183.5" y="97.5" width="16" height="16" fill="black" stroke="#8CFFFD"/>
<rect x="247.5" y="97.5" width="16" height="16" fill="black" stroke="#8CFFFD"/>
<rect x="135.5" y="97.5" width="16" height="16" fill="black" stroke="#8CFFFD"/>
<rect x="199.5" y="97.5" width="16" height="16" fill="black" stroke="#8CFFFD"/>
<rect x="23.5" y="144.5" width="16" height="16" fill="black" stroke="#8CFFFD"/>
<rect x="151.5" y="144.5" width="16" height="16" fill="black" stroke="#8CFFFD"/>
<rect x="7.5" y="97.5" width="16" height="16" fill="black" stroke="#8CFFFD"/>
<rect x="87.5" y="144.5" width="16" height="16" fill="black" stroke="#8CFFFD"/>
<rect x="215.5" y="144.5" width="16" height="16" fill="black" stroke="#8CFFFD"/>
<rect x="71.5" y="97.5" width="16" height="16" fill="black" stroke="#8CFFFD"/>
<rect x="103.5" y="97.5" width="16" height="16" fill="black" stroke="#8CFFFD"/>
<rect x="167.5" y="97.5" width="16" height="16" fill="black" stroke="#8CFFFD"/>
<rect x="231.5" y="97.5" width="16" height="16" fill="black" stroke="#8CFFFD"/>
<rect x="55.5" y="144.5" width="16" height="16" fill="black" stroke="#8CFFFD"/>
<rect x="183.5" y="144.5" width="16" height="16" fill="black" stroke="#8CFFFD"/>
<rect x="39.5" y="97.5" width="16" height="16" fill="black" stroke="#8CFFFD"/>
<rect x="119.5" y="144.5" width="16" height="16" fill="black" stroke="#8CFFFD"/>
<rect x="247.5" y="144.5" width="16" height="16" fill="black" stroke="#8CFFFD"/>
<rect x="7.5" y="66.5" width="16" height="15" fill="black" stroke="#8CFFFD"/>
<rect x="23.5" y="66.5" width="16" height="15" fill="black" stroke="#8CFFFD"/>
<rect x="39.5" y="66.5" width="16" height="15" fill="black" stroke="#8CFFFD"/>
<rect x="55.5" y="66.5" width="16" height="15" fill="black" stroke="#8CFFFD"/>
<rect x="71.5" y="66.5" width="16" height="15" fill="black" stroke="#8CFFFD"/>
<rect x="55.5" y="113.5" width="16" height="15" fill="black" stroke="#8CFFFD"/>
<rect x="167.5" y="66.5" width="16" height="15" fill="black" stroke="#8CFFFD"/>
<rect x="183.5" y="66.5" width="16" height="15" fill="black" stroke="#8CFFFD"/>
<rect x="199.5" y="66.5" width="16" height="15" fill="black" stroke="#8CFFFD"/>
<rect x="215.5" y="66.5" width="16" height="15" fill="black" stroke="#8CFFFD"/>
<rect x="39.5" y="160.5" width="16" height="15" fill="black" stroke="#8CFFFD"/>
<rect x="7.5" y="160.5" width="16" height="15" fill="black" stroke="#8CFFFD"/>
<rect x="23.5" y="160.5" width="16" height="15" fill="black" stroke="#8CFFFD"/>
<rect x="87.5" y="160.5" width="16" height="15" fill="black" stroke="#8CFFFD"/>
<rect x="167.5" y="160.5" width="16" height="15" fill="black" stroke="#8CFFFD"/>
<rect x="199.5" y="160.5" width="16" height="15" fill="black" stroke="#8CFFFD"/>
<rect x="231.5" y="160.5" width="16" height="15" fill="black" stroke="#8CFFFD"/>
<rect x="23.5" y="113.5" width="16" height="15" fill="black" stroke="#8CFFFD"/>
<rect x="231.5" y="66.5" width="16" height="15" fill="black" stroke="#8CFFFD"/>
<rect x="103.5" y="160.5" width="16" height="15" fill="black" stroke="#8CFFFD"/>
<rect x="87.5" y="113.5" width="16" height="15" fill="black" stroke="#8CFFFD"/>
<rect x="151.5" y="113.5" width="16" height="15" fill="black" stroke="#8CFFFD"/>
<rect x="215.5" y="113.5" width="16" height="15" fill="black" stroke="#8CFFFD"/>
<rect x="119.5" y="113.5" width="16" height="15" fill="black" stroke="#8CFFFD"/>
<rect x="183.5" y="113.5" width="16" height="15" fill="black" stroke="#8CFFFD"/>
<rect x="247.5" y="113.5" width="16" height="15" fill="black" stroke="#8CFFFD"/>
<rect x="135.5" y="113.5" width="16" height="15" fill="black" stroke="#8CFFFD"/>
<rect x="199.5" y="113.5" width="16" height="15" fill="black" stroke="#8CFFFD"/>
<rect x="151.5" y="66.5" width="16" height="15" fill="black" stroke="#8CFFFD"/>
<rect x="7.5" y="113.5" width="16" height="15" fill="black" stroke="#8CFFFD"/>
<rect x="87.5" y="66.5" width="16" height="15" fill="black" stroke="#8CFFFD"/>
<rect x="103.5" y="66.5" width="16" height="15" fill="black" stroke="#8CFFFD"/>
<rect x="119.5" y="66.5" width="16" height="15" fill="black" stroke="#8CFFFD"/>
<rect x="135.5" y="66.5" width="16" height="15" fill="black" stroke="#8CFFFD"/>
<rect x="71.5" y="113.5" width="16" height="15" fill="black" stroke="#8CFFFD"/>
<rect x="103.5" y="113.5" width="16" height="15" fill="black" stroke="#8CFFFD"/>
<rect x="167.5" y="113.5" width="16" height="15" fill="black" stroke="#8CFFFD"/>
<rect x="231.5" y="113.5" width="16" height="15" fill="black" stroke="#8CFFFD"/>
<rect x="183.5" y="160.5" width="16" height="15" fill="black" stroke="#8CFFFD"/>
<rect x="215.5" y="160.5" width="16" height="15" fill="black" stroke="#8CFFFD"/>
<rect x="247.5" y="160.5" width="16" height="15" fill="black" stroke="#8CFFFD"/>
<rect x="39.5" y="113.5" width="16" height="15" fill="black" stroke="#8CFFFD"/>
<rect x="7.5" y="81.5" width="16" height="16" fill="black" stroke="#8CFFFD"/>
<rect x="135.5" y="81.5" width="16" height="16" fill="black" stroke="#8CFFFD"/>
<rect x="7.5" y="175.5" width="16" height="16" fill="black" stroke="#8CFFFD"/>
<rect x="135.5" y="175.5" width="16" height="16" fill="black" stroke="#8CFFFD"/>
<rect x="71.5" y="81.5" width="16" height="16" fill="black" stroke="#8CFFFD"/>
<rect x="199.5" y="81.5" width="16" height="16" fill="black" stroke="#8CFFFD"/>
<rect x="71.5" y="175.5" width="16" height="16" fill="black" stroke="#8CFFFD"/>
<rect x="199.5" y="175.5" width="16" height="16" fill="black" stroke="#8CFFFD"/>
<rect x="55.5" y="128.5" width="16" height="16" fill="black" stroke="#8CFFFD"/>
<rect x="39.5" y="81.5" width="16" height="16" fill="black" stroke="#8CFFFD"/>
<rect x="167.5" y="81.5" width="16" height="16" fill="black" stroke="#8CFFFD"/>
<rect x="39.5" y="175.5" width="16" height="16" fill="black" stroke="#8CFFFD"/>
<rect x="167.5" y="175.5" width="16" height="16" fill="black" stroke="#8CFFFD"/>
<rect x="23.5" y="128.5" width="16" height="16" fill="black" stroke="#8CFFFD"/>
<rect x="103.5" y="81.5" width="16" height="16" fill="black" stroke="#8CFFFD"/>
<rect x="231.5" y="81.5" width="16" height="16" fill="black" stroke="#8CFFFD"/>
<rect x="103.5" y="175.5" width="16" height="16" fill="black" stroke="#8CFFFD"/>
<rect x="231.5" y="175.5" width="16" height="16" fill="black" stroke="#8CFFFD"/>
<rect x="87.5" y="128.5" width="16" height="16" fill="black" stroke="#8CFFFD"/>
<rect x="151.5" y="128.5" width="16" height="16" fill="black" stroke="#8CFFFD"/>
<rect x="215.5" y="128.5" width="16" height="16" fill="black" stroke="#8CFFFD"/>
<rect x="119.5" y="128.5" width="16" height="16" fill="black" stroke="#8CFFFD"/>
<rect x="183.5" y="128.5" width="16" height="16" fill="black" stroke="#8CFFFD"/>
<rect x="247.5" y="128.5" width="16" height="16" fill="black" stroke="#8CFFFD"/>
<rect x="135.5" y="128.5" width="16" height="16" fill="black" stroke="#8CFFFD"/>
<rect x="199.5" y="128.5" width="16" height="16" fill="black" stroke="#8CFFFD"/>
<rect x="23.5" y="81.5" width="16" height="16" fill="black" stroke="#8CFFFD"/>
<rect x="151.5" y="81.5" width="16" height="16" fill="black" stroke="#8CFFFD"/>
<rect x="23.5" y="175.5" width="16" height="16" fill="black" stroke="#8CFFFD"/>
<rect x="151.5" y="175.5" width="16" height="16" fill="black" stroke="#8CFFFD"/>
<rect x="7.5" y="128.5" width="16" height="16" fill="black" stroke="#8CFFFD"/>
<rect x="87.5" y="81.5" width="16" height="16" fill="black" stroke="#8CFFFD"/>
<rect x="215.5" y="81.5" width="16" height="16" fill="black" stroke="#8CFFFD"/>
<rect x="87.5" y="175.5" width="16" height="16" fill="black" stroke="#8CFFFD"/>
<rect x="215.5" y="175.5" width="16" height="16" fill="black" stroke="#8CFFFD"/>
<rect x="71.5" y="128.5" width="16" height="16" fill="black" stroke="#8CFFFD"/>
<rect x="103.5" y="128.5" width="16" height="16" fill="black" stroke="#8CFFFD"/>
<rect x="167.5" y="128.5" width="16" height="16" fill="black" stroke="#8CFFFD"/>
<rect x="231.5" y="128.5" width="16" height="16" fill="black" stroke="#8CFFFD"/>
<rect x="55.5" y="81.5" width="16" height="16" fill="black" stroke="#8CFFFD"/>
<rect x="183.5" y="81.5" width="16" height="16" fill="black" stroke="#8CFFFD"/>
<rect x="55.5" y="175.5" width="16" height="16" fill="black" stroke="#8CFFFD"/>
<rect x="183.5" y="175.5" width="16" height="16" fill="black" stroke="#8CFFFD"/>
<rect x="39.5" y="128.5" width="16" height="16" fill="black" stroke="#8CFFFD"/>
<rect x="119.5" y="81.5" width="16" height="16" fill="black" stroke="#8CFFFD"/>
<rect x="247.5" y="81.5" width="16" height="16" fill="black" stroke="#8CFFFD"/>
<rect x="119.5" y="175.5" width="16" height="16" fill="black" stroke="#8CFFFD"/>
<rect x="247.5" y="175.5" width="16" height="16" fill="black" stroke="#8CFFFD"/>
<path d="M263.5 66.5H273.5L271 81.5L268.5 97.5L265.5 113.5L263.5 123.5V113.5V97.5V81.5V66.5Z" fill="black"/>
<path d="M271 81.5L273.5 66.5H263.5V81.5M271 81.5H263.5M263.5 113.5V123.5L265.5 113.5L268.5 97.5L271 81.5M263.5 81.5V97.5M263.5 97.5H268.5M263.5 97.5V113.5M263.5 113.5H265.5" stroke="#8CFFFD"/>
<rect x="15" width="4" height="20" fill="black"/>
<rect x="111" width="4" height="20" fill="black"/>
<rect x="47" width="4" height="20" fill="black"/>
<rect x="143" width="4" height="20" fill="black"/>
<rect x="226" width="4" height="20" fill="black"/>
<rect x="79" width="4" height="20" fill="black"/>
<rect x="175" width="4" height="20" fill="black"/>
<rect x="258" width="4" height="20" fill="black"/>
<rect x="31" width="4" height="20" fill="black"/>
<rect x="127" width="4" height="20" fill="black"/>
<rect x="63" width="4" height="20" fill="black"/>
<rect x="159" width="4" height="20" fill="black"/>
<rect x="242" width="4" height="20" fill="black"/>
<rect x="95" width="4" height="20" fill="black"/>
<rect x="191" width="4" height="20" fill="black"/>
<rect x="274" width="4" height="20" fill="black"/>
<path d="M217 58L219.5 45H233L230.5 58H217Z" fill="black" stroke="#8CFFFD"/>
<path d="M219.5 45L222 32H235L232.5 45H219.5Z" fill="black" stroke="#8CFFFD"/>
<path d="M230 58L232.5 45H245.5L243 58H230Z" fill="black" stroke="#8CFFFD"/>
<path d="M232.5 45L235 32H248L245.5 45H232.5Z" fill="black" stroke="#8CFFFD"/>
<path d="M243 58L245.5 45H258.5L256 58H243Z" fill="black" stroke="#8CFFFD"/>
<path d="M245.5 45L248 32H261L258.5 45H245.5Z" fill="black" stroke="#8CFFFD"/>
<path d="M256 58L258.5 45H272.5L270 58H256Z" fill="black" stroke="#8CFFFD"/>
<path d="M258.5 45L261 32H275L272.5 45H258.5Z" fill="black" stroke="#8CFFFD"/>
</svg>
