<svg width="312" height="207" viewBox="0 0 312 207" fill="none" xmlns="http://www.w3.org/2000/svg">
<path d="M311.39 19.457V176.722L83.5059 206.168L0.604492 176.826V28.3467L223.082 0.612305L311.39 19.457Z" fill="black" stroke="#FE3B2E" stroke-width="1.20928"/>
<path d="M115.258 56.9351L117.262 56.256L120.555 65.9728L126.375 64.0006L126.962 65.7323L119.137 68.3837L115.258 56.9351ZM127.601 63.2813L129.75 62.5533L130.429 64.5576L128.28 65.2856L127.601 63.2813ZM124.481 53.8099L126.485 53.1307L127.605 56.4338L128.754 61.5678L127.808 61.8883L125.6 57.113L124.481 53.8099ZM138.869 59.6422C138.945 59.8666 139.026 60.0179 139.112 60.096C139.209 60.1705 139.342 60.1788 139.513 60.1208C139.567 60.1027 139.631 60.081 139.706 60.0556C139.781 60.0302 139.863 59.9906 139.952 59.9366L140.381 61.2033C140.324 61.2464 140.246 61.2968 140.146 61.3544C140.061 61.4191 139.968 61.4802 139.868 61.5378C139.769 61.5954 139.667 61.6476 139.564 61.6946C139.461 61.7415 139.372 61.7776 139.297 61.803C138.923 61.9297 138.587 61.9599 138.291 61.8936C137.994 61.8273 137.745 61.6197 137.544 61.2709C137.3 61.7468 136.938 62.1555 136.458 62.4969C135.988 62.8348 135.507 63.087 135.016 63.2536C134.642 63.3804 134.265 63.4483 133.887 63.4573C133.512 63.477 133.159 63.4359 132.826 63.334C132.501 63.2179 132.208 63.0373 131.946 62.7923C131.691 62.533 131.495 62.2003 131.357 61.7941C131.183 61.281 131.133 60.8333 131.206 60.451C131.29 60.0651 131.451 59.7306 131.688 59.4475C131.937 59.1607 132.235 58.9165 132.584 58.7149C132.94 58.499 133.303 58.3045 133.673 58.1313C133.983 57.9549 134.284 57.8053 134.576 57.6825C134.864 57.549 135.11 57.4122 135.313 57.272C135.526 57.1281 135.675 56.9704 135.76 56.7986C135.852 56.6126 135.853 56.3859 135.762 56.1187C135.682 55.8835 135.558 55.711 135.39 55.6012C135.233 55.4878 135.056 55.4226 134.859 55.4057C134.67 55.3746 134.47 55.3827 134.26 55.4301C134.046 55.4669 133.848 55.516 133.666 55.5776C133.153 55.7515 132.767 56.0015 132.508 56.3275C132.249 56.6536 132.174 57.0484 132.284 57.5118L130.456 58.1312C130.307 57.5859 130.285 57.0988 130.39 56.6699C130.495 56.2411 130.682 55.8619 130.951 55.5322C131.232 55.1988 131.577 54.9152 131.986 54.6812C132.395 54.4471 132.83 54.2522 133.289 54.0965C133.696 53.9589 134.111 53.8658 134.535 53.8173C134.96 53.7688 135.36 53.7882 135.735 53.8756C136.121 53.9593 136.462 54.1236 136.76 54.3684C137.054 54.6025 137.275 54.9387 137.423 55.377L138.869 59.6422ZM136.258 57.9526C136.042 58.2285 135.738 58.4566 135.346 58.637C134.951 58.8067 134.563 58.9978 134.182 59.2103C134 59.3075 133.83 59.419 133.67 59.5447C133.506 59.6598 133.373 59.7943 133.27 59.9483C133.164 60.0916 133.097 60.2632 133.069 60.4632C133.049 60.6489 133.078 60.8594 133.158 61.0945C133.227 61.2976 133.344 61.4487 133.508 61.5479C133.673 61.647 133.85 61.7121 134.039 61.7433C134.236 61.7602 134.435 61.7521 134.639 61.7189C134.853 61.6822 135.04 61.6366 135.2 61.5823C135.403 61.5135 135.613 61.4125 135.83 61.2794C136.048 61.1463 136.236 60.9811 136.396 60.784C136.566 60.5833 136.688 60.3632 136.762 60.1237C136.832 59.8735 136.818 59.6041 136.72 59.3155L136.258 57.9526ZM138.651 52.5299L140.383 51.9431L140.796 53.1617L140.839 53.1829C140.961 52.6291 141.203 52.1478 141.565 51.7391C141.924 51.3198 142.375 51.0177 142.921 50.833C143.829 50.5251 144.625 50.5176 145.308 50.8105C145.991 51.1033 146.492 51.7201 146.811 52.6608L148.74 58.353L146.912 58.9724L145.146 53.7612C144.904 53.1164 144.606 52.6931 144.251 52.4914C143.893 52.2791 143.442 52.2652 142.897 52.45C142.587 52.555 142.329 52.708 142.123 52.9089C141.913 53.0991 141.757 53.3247 141.655 53.5858C141.549 53.8361 141.493 54.1112 141.487 54.4111C141.482 54.7109 141.53 55.0105 141.631 55.3098L143.288 60.2003L141.46 60.8197L138.651 52.5299ZM158.185 54.6699C158.609 55.9206 158.571 56.9701 158.072 57.8185C157.588 58.6739 156.688 59.3244 155.373 59.7699C154.956 59.9111 154.519 60.0115 154.063 60.0708C153.617 60.1266 153.183 60.1127 152.762 60.0291C152.351 59.9419 151.972 59.7724 151.624 59.5208C151.277 59.2691 151 58.9099 150.794 58.4434L152.622 57.824C152.763 58.0625 152.924 58.2401 153.107 58.357C153.289 58.4739 153.481 58.5461 153.681 58.5737C153.895 58.6083 154.113 58.6001 154.334 58.549C154.558 58.5086 154.788 58.4486 155.024 58.3689C155.761 58.119 156.239 57.7544 156.458 57.275C156.677 56.7957 156.671 56.2139 156.439 55.5298L156.01 54.2631L155.978 54.2739C155.877 54.8205 155.645 55.2981 155.283 55.7068C154.932 56.1119 154.5 56.4013 153.987 56.5752C153.324 56.7998 152.719 56.8795 152.173 56.8144C151.634 56.735 151.142 56.55 150.698 56.2595C150.261 55.9548 149.884 55.564 149.568 55.0873C149.251 54.6106 148.992 54.0729 148.789 53.4743C148.601 52.9185 148.507 52.3603 148.508 51.8C148.508 51.2396 148.606 50.718 148.8 50.2352C148.99 49.7417 149.277 49.3049 149.66 48.9246C150.055 48.5408 150.546 48.2493 151.134 48.05C151.658 47.8726 152.177 47.8218 152.691 47.8978C153.202 47.9631 153.654 48.191 154.049 48.5817L154.081 48.5708L153.695 47.4324L155.523 46.813L158.185 54.6699ZM153.786 55.0343C154.193 54.8967 154.507 54.7006 154.731 54.4461C154.962 54.1772 155.117 53.8802 155.198 53.555C155.285 53.2155 155.309 52.8621 155.267 52.4946C155.233 52.1129 155.157 51.7457 155.037 51.3929C154.918 51.0401 154.759 50.7126 154.561 50.4102C154.363 50.1078 154.13 49.8591 153.861 49.6641C153.604 49.4655 153.305 49.3403 152.966 49.2884C152.637 49.2329 152.275 49.2722 151.879 49.4062C151.473 49.5439 151.16 49.7453 150.94 50.0105C150.72 50.2757 150.572 50.5762 150.495 50.9121C150.414 51.2373 150.396 51.589 150.441 51.9671C150.482 52.3345 150.561 52.6893 150.677 53.0313C150.793 53.3734 150.949 53.6956 151.147 53.998C151.341 54.2897 151.567 54.5349 151.825 54.7335C152.094 54.9285 152.389 55.0608 152.711 55.1306C153.043 55.1968 153.402 55.1647 153.786 55.0343ZM172.444 50.3211L170.712 50.9079L170.332 49.7855L170.3 49.7964C170.217 50.3607 169.976 50.8295 169.579 51.2026C169.177 51.5651 168.714 51.8351 168.191 52.0126C167.539 52.2335 166.929 52.3151 166.361 52.2572C165.8 52.185 165.292 52.0055 164.838 51.7186C164.383 51.4318 163.985 51.0483 163.643 50.5681C163.298 50.0773 163.021 49.5219 162.811 48.9019C162.557 48.1536 162.44 47.4725 162.458 46.8585C162.476 46.2445 162.591 45.705 162.803 45.2399C163.026 44.7713 163.324 44.3843 163.697 44.0791C164.077 43.7596 164.492 43.5237 164.941 43.3716C165.197 43.2847 165.468 43.2227 165.754 43.1856C166.036 43.1378 166.317 43.1257 166.599 43.1492C166.882 43.1728 167.153 43.2357 167.414 43.3379C167.682 43.4259 167.924 43.5585 168.139 43.7359L168.171 43.725L166.737 39.4919L168.565 38.8726L172.444 50.3211ZM164.688 48.4268C164.807 48.7796 164.968 49.1125 165.169 49.4256C165.381 49.7351 165.623 49.9926 165.896 50.1983C166.179 50.4003 166.491 50.5326 166.834 50.5952C167.177 50.6577 167.547 50.622 167.942 50.488C168.348 50.3503 168.667 50.1471 168.897 49.8783C169.139 49.6058 169.303 49.2998 169.391 48.9603C169.489 48.6172 169.523 48.2601 169.493 47.8891C169.469 47.5037 169.396 47.1293 169.273 46.7659C168.961 45.8466 168.51 45.201 167.919 44.8292C167.339 44.4537 166.697 44.3855 165.991 44.6245C165.564 44.7694 165.231 44.9834 164.993 45.2666C164.762 45.5354 164.6 45.8467 164.505 46.2006C164.418 46.5401 164.393 46.906 164.43 47.2984C164.475 47.6766 164.561 48.0527 164.688 48.4268ZM180.755 45.4491C180.832 45.6736 180.913 45.8249 180.999 45.903C181.095 45.9775 181.229 45.9857 181.4 45.9278C181.454 45.9097 181.518 45.8879 181.593 45.8626C181.668 45.8372 181.749 45.7976 181.838 45.7436L182.268 47.0103C182.211 47.0534 182.132 47.1038 182.033 47.1614C181.947 47.226 181.855 47.2872 181.755 47.3448C181.656 47.4024 181.554 47.4546 181.451 47.5015C181.348 47.5485 181.259 47.5846 181.184 47.6099C180.81 47.7367 180.474 47.7669 180.178 47.7006C179.881 47.6342 179.632 47.4267 179.43 47.0779C179.187 47.5538 178.824 47.9625 178.344 48.3039C177.875 48.6418 177.394 48.894 176.903 49.0606C176.528 49.1874 176.152 49.2553 175.774 49.2643C175.399 49.284 175.046 49.2429 174.713 49.141C174.388 49.0249 174.094 48.8443 173.833 48.5993C173.578 48.34 173.382 48.0073 173.244 47.6011C173.07 47.088 173.02 46.6403 173.093 46.258C173.177 45.8721 173.337 45.5376 173.575 45.2545C173.824 44.9677 174.122 44.7235 174.471 44.5219C174.827 44.306 175.19 44.1115 175.56 43.9383C175.87 43.7619 176.171 43.6123 176.463 43.4895C176.751 43.356 176.997 43.2192 177.2 43.079C177.413 42.9351 177.562 42.7774 177.647 42.6056C177.739 42.4196 177.739 42.1929 177.649 41.9257C177.569 41.6905 177.445 41.518 177.277 41.4082C177.119 41.2948 176.942 41.2296 176.746 41.2127C176.557 41.1816 176.357 41.1897 176.146 41.2371C175.932 41.2739 175.735 41.323 175.553 41.3846C175.04 41.5585 174.654 41.8084 174.395 42.1345C174.136 42.4606 174.061 42.8554 174.17 43.3188L172.343 43.9382C172.194 43.3928 172.171 42.9058 172.276 42.4769C172.381 42.0481 172.569 41.6689 172.838 41.3392C173.119 41.0058 173.463 40.7222 173.873 40.4881C174.282 40.2541 174.716 40.0592 175.176 39.9035C175.582 39.7658 175.998 39.6728 176.422 39.6243C176.847 39.5758 177.247 39.5952 177.622 39.6826C178.008 39.7663 178.349 39.9306 178.647 40.1754C178.941 40.4095 179.162 40.7457 179.31 41.184L180.755 45.4491ZM178.145 43.7596C177.929 44.0355 177.625 44.2636 177.233 44.444C176.838 44.6137 176.45 44.8048 176.069 45.0173C175.887 45.1145 175.716 45.226 175.556 45.3517C175.393 45.4668 175.26 45.6013 175.157 45.7553C175.051 45.8985 174.984 46.0702 174.956 46.2702C174.936 46.4559 174.965 46.6663 175.045 46.9015C175.114 47.1046 175.23 47.2557 175.395 47.3548C175.56 47.454 175.737 47.5191 175.926 47.5503C176.122 47.5672 176.322 47.5591 176.526 47.5259C176.74 47.4892 176.927 47.4436 177.087 47.3893C177.29 47.3205 177.5 47.2195 177.717 47.0864C177.934 46.9532 178.123 46.7881 178.282 46.591C178.453 46.3903 178.575 46.1702 178.648 45.9307C178.719 45.6805 178.705 45.4111 178.607 45.1225L178.145 43.7596ZM182.86 44.5571L185.009 43.8291L185.688 45.8334L183.54 46.5615L182.86 44.5571ZM179.74 35.0857L181.745 34.4066L182.864 37.7097L184.014 42.8436L183.068 43.1641L180.86 38.3888L179.74 35.0857Z" fill="#FE3B2E"/>
<path d="M273.902 68.929L152.974 112.463L119.114 186.834L244.274 139.067L273.902 68.929Z" fill="#6E6D6D" stroke="#FE3B2E" stroke-width="1.20928"/>
<path d="M185.019 140.276L202.554 94.9285L273.902 68.929L244.274 139.067L119.114 186.834L137.253 146.927L185.019 140.276Z" fill="black"/>
<path d="M244.274 139.067L185.019 140.276M185.019 140.276L137.253 146.927L119.114 186.834L244.274 139.067L273.902 68.929L202.554 94.9285L185.019 140.276Z" stroke="#FE3B2E" stroke-width="1.20928"/>
<path d="M248.506 176.065L241.076 177.188C240.95 176.285 241.048 175.464 241.371 174.726C241.694 173.989 242.186 173.315 242.847 172.707C243.16 172.395 243.49 172.09 243.838 171.794C244.183 171.487 244.496 171.17 244.775 170.841C245.054 170.513 245.273 170.173 245.431 169.82C245.588 169.457 245.64 169.062 245.586 168.636C245.556 168.439 245.499 168.236 245.414 168.026C245.339 167.804 245.219 167.61 245.056 167.444C244.892 167.268 244.681 167.135 244.424 167.047C244.165 166.948 243.844 166.928 243.461 166.986C243.108 167.039 242.824 167.156 242.608 167.337C242.4 167.506 242.242 167.726 242.135 167.997C242.036 168.256 241.976 168.556 241.953 168.899C241.941 169.24 241.959 169.603 242.007 169.988L240.235 170.256C240.144 169.655 240.138 169.089 240.216 168.557C240.304 168.014 240.48 167.532 240.745 167.11C241.01 166.688 241.354 166.34 241.779 166.063C242.212 165.775 242.735 165.585 243.346 165.493C244.009 165.392 244.58 165.417 245.059 165.568C245.537 165.718 245.936 165.938 246.256 166.229C246.586 166.519 246.837 166.852 247.011 167.228C247.183 167.594 247.296 167.954 247.349 168.306C247.415 168.741 247.407 169.145 247.325 169.518C247.244 169.891 247.112 170.244 246.929 170.579C246.745 170.904 246.527 171.213 246.274 171.505C246.022 171.798 245.756 172.076 245.478 172.341C245.2 172.605 244.921 172.86 244.64 173.104C244.359 173.347 244.098 173.588 243.859 173.826C243.629 174.062 243.433 174.304 243.269 174.551C243.103 174.788 243.002 175.031 242.966 175.28L248.266 174.479L248.506 176.065ZM251.75 164.222C252.528 164.105 253.187 164.191 253.729 164.48C254.28 164.757 254.732 165.155 255.086 165.674C255.449 166.181 255.727 166.759 255.92 167.408C256.124 168.055 256.273 168.69 256.367 169.312C256.461 169.933 256.507 170.584 256.503 171.263C256.51 171.94 256.416 172.58 256.221 173.181C256.034 173.771 255.72 174.285 255.277 174.723C254.844 175.149 254.238 175.421 253.461 175.538C252.684 175.656 252.02 175.576 251.469 175.299C250.927 175.01 250.475 174.612 250.112 174.105C249.758 173.586 249.479 173.003 249.275 172.355C249.082 171.706 248.938 171.071 248.844 170.449C248.75 169.827 248.699 169.178 248.692 168.5C248.696 167.821 248.791 167.187 248.977 166.597C249.172 165.995 249.487 165.481 249.921 165.055C250.363 164.617 250.973 164.34 251.75 164.222ZM253.238 174.062C253.621 174.004 253.926 173.846 254.152 173.59C254.377 173.322 254.533 172.991 254.622 172.596C254.719 172.189 254.761 171.727 254.746 171.21C254.732 170.693 254.681 170.149 254.595 169.58C254.509 169.01 254.397 168.481 254.26 167.993C254.121 167.494 253.945 167.065 253.731 166.705C253.528 166.344 253.281 166.074 252.989 165.895C252.695 165.706 252.357 165.641 251.974 165.699C251.58 165.758 251.271 165.922 251.046 166.189C250.83 166.444 250.674 166.775 250.576 167.182C250.489 167.587 250.453 168.049 250.467 168.566C250.48 169.073 250.53 169.611 250.616 170.181C250.702 170.751 250.815 171.285 250.954 171.784C251.093 172.282 251.264 172.712 251.467 173.073C251.678 173.423 251.926 173.693 252.209 173.883C252.501 174.062 252.844 174.121 253.238 174.062ZM265.78 173.454L258.35 174.577C258.224 173.674 258.323 172.853 258.646 172.115C258.969 171.377 259.461 170.704 260.121 170.096C260.435 169.783 260.765 169.479 261.112 169.183C261.458 168.876 261.77 168.559 262.049 168.23C262.328 167.902 262.547 167.561 262.706 167.209C262.863 166.846 262.915 166.451 262.861 166.025C262.831 165.828 262.774 165.624 262.689 165.415C262.613 165.193 262.494 164.999 262.331 164.833C262.166 164.656 261.956 164.524 261.698 164.436C261.44 164.337 261.119 164.317 260.735 164.375C260.383 164.428 260.098 164.545 259.882 164.726C259.674 164.895 259.517 165.115 259.409 165.386C259.311 165.644 259.25 165.945 259.228 166.288C259.216 166.629 259.233 166.992 259.281 167.377L257.509 167.645C257.418 167.044 257.412 166.477 257.491 165.946C257.578 165.403 257.754 164.92 258.019 164.499C258.284 164.077 258.629 163.728 259.054 163.452C259.487 163.164 260.009 162.974 260.621 162.881C261.284 162.781 261.855 162.806 262.333 162.956C262.812 163.107 263.211 163.327 263.53 163.618C263.86 163.907 264.112 164.24 264.286 164.617C264.457 164.983 264.57 165.342 264.623 165.695C264.689 166.13 264.681 166.534 264.6 166.907C264.518 167.279 264.386 167.633 264.204 167.968C264.02 168.293 263.801 168.601 263.549 168.894C263.296 169.186 263.031 169.465 262.753 169.73C262.475 169.994 262.195 170.248 261.914 170.492C261.633 170.736 261.373 170.977 261.133 171.215C260.904 171.451 260.707 171.692 260.543 171.94C260.378 172.177 260.277 172.42 260.24 172.669L265.541 171.868L265.78 173.454ZM271.292 164.305C271.184 163.866 270.969 163.532 270.648 163.305C270.337 163.066 269.948 162.982 269.481 163.052C269.16 163.101 268.89 163.205 268.67 163.366C268.459 163.514 268.286 163.7 268.15 163.921C268.024 164.142 267.929 164.389 267.865 164.664C267.809 164.927 267.771 165.203 267.751 165.492C267.731 165.781 267.727 166.068 267.738 166.353C267.758 166.625 267.776 166.882 267.791 167.124L267.827 167.15C268 166.679 268.277 166.308 268.661 166.038C269.053 165.757 269.492 165.579 269.979 165.505C270.518 165.424 271.014 165.444 271.467 165.566C271.92 165.689 272.317 165.894 272.657 166.182C273.006 166.457 273.292 166.806 273.515 167.228C273.738 167.65 273.888 168.121 273.967 168.639C274.046 169.167 274.033 169.673 273.926 170.155C273.827 170.626 273.643 171.057 273.374 171.447C273.102 171.827 272.758 172.144 272.341 172.398C271.923 172.652 271.445 172.82 270.906 172.901C270.108 173.022 269.429 172.976 268.867 172.764C268.313 172.541 267.848 172.198 267.471 171.735C267.102 171.261 266.809 170.69 266.592 170.024C266.373 169.347 266.203 168.609 266.083 167.811C265.984 167.158 265.952 166.49 265.986 165.807C266.031 165.121 266.174 164.485 266.413 163.898C266.652 163.3 267.004 162.791 267.47 162.371C267.947 161.949 268.569 161.68 269.336 161.564C269.771 161.498 270.191 161.509 270.597 161.596C271.002 161.683 271.369 161.834 271.699 162.05C272.038 162.263 272.329 162.537 272.57 162.872C272.812 163.206 272.976 163.595 273.064 164.037L271.292 164.305ZM270.621 171.434C270.942 171.385 271.213 171.281 271.432 171.121C271.65 170.95 271.821 170.749 271.945 170.518C272.08 170.286 272.163 170.03 272.195 169.749C272.235 169.457 272.234 169.166 272.19 168.876C272.146 168.585 272.062 168.312 271.939 168.055C271.825 167.796 271.671 167.581 271.475 167.409C271.289 167.226 271.067 167.09 270.81 167.001C270.552 166.913 270.263 166.893 269.942 166.942C269.621 166.99 269.345 167.096 269.115 167.257C268.894 167.407 268.716 167.599 268.582 167.831C268.446 168.053 268.357 168.305 268.315 168.587C268.272 168.869 268.274 169.16 268.319 169.461C268.365 169.761 268.449 170.04 268.573 170.297C268.697 170.554 268.858 170.778 269.056 170.971C269.254 171.153 269.481 171.288 269.738 171.377C270.005 171.463 270.3 171.483 270.621 171.434Z" fill="white"/>
<path d="M11.4883 38.6969L115.486 81.0217M115.486 81.0217L297.483 25.9995M115.486 81.0217L87.0682 197.717" stroke="#8CFFFD" stroke-width="1.20928"/>
<path d="M253.344 145.718L303.529 169.904" stroke="#8CFFFD" stroke-width="1.20928"/>
<path d="M94.3237 198.926L113.672 191.066" stroke="#8CFFFD" stroke-width="1.20928"/>
<path d="M282.971 61.6732L299.901 35.0691" stroke="#8CFFFD" stroke-width="1.20928"/>
<path d="M23.269 58.5703L28.9344 60.8175C29.8456 61.1789 30.5367 61.6057 31.0076 62.0978C31.4785 62.5899 31.7914 63.0956 31.9461 63.6149C32.1009 64.1342 32.1396 64.6491 32.062 65.1595C31.9964 65.6747 31.8851 66.1301 31.7282 66.5258C31.5713 66.9215 31.3401 67.3293 31.0347 67.7494C30.7461 68.1622 30.3674 68.5046 29.8987 68.7767C29.43 69.0487 28.8556 69.2024 28.1754 69.2379C27.5 69.2614 26.7067 69.0925 25.7954 68.731L22.3782 67.3756L20.4235 72.3035L18.1754 71.4118L23.269 58.5703ZM23.1059 65.5411L26.3972 66.8466C26.649 66.9465 26.9211 67.0127 27.2134 67.0454C27.5057 67.0781 27.7907 67.0593 28.0683 66.9891C28.3627 66.9116 28.6282 66.7671 28.8647 66.5556C29.118 66.3369 29.3255 66.0237 29.4872 65.6161C29.6536 65.1964 29.7316 64.8249 29.7211 64.5016C29.7106 64.1782 29.6343 63.8982 29.4923 63.6615C29.3551 63.4128 29.1664 63.2061 28.9264 63.0415C28.6864 62.877 28.4165 62.7352 28.1168 62.6163L24.7895 61.2965L23.1059 65.5411ZM34.0463 77.9985C33.3029 77.7036 32.685 77.3197 32.1926 76.8469C31.7169 76.3668 31.3609 75.8301 31.1244 75.2368C30.9 74.6482 30.7987 74.0113 30.8207 73.3262C30.8547 72.6458 31.0143 71.9459 31.2997 71.2265C31.5803 70.5191 31.9414 69.9061 32.383 69.3874C32.8367 68.8735 33.3469 68.4792 33.9138 68.2045C34.4927 67.9346 35.1175 67.7938 35.7881 67.7823C36.4755 67.7636 37.1909 67.9016 37.9343 68.1965C38.6777 68.4914 39.2872 68.8788 39.7629 69.3589C40.2553 69.8318 40.6137 70.3625 40.8381 70.9511C41.0746 71.5444 41.1758 72.1813 41.1419 72.8616C41.1199 73.5468 40.9686 74.243 40.688 74.9504C40.4027 75.6699 40.0332 76.2865 39.5795 76.8004C39.1379 77.3191 38.6277 77.7134 38.0488 77.9833C37.4819 78.258 36.8547 78.4047 36.1673 78.4235C35.4967 78.435 34.7897 78.2933 34.0463 77.9985ZM34.6883 76.3798C35.144 76.5605 35.5777 76.6215 35.9895 76.5629C36.4013 76.5042 36.777 76.3618 37.1165 76.1357C37.4559 75.9095 37.7497 75.6236 37.9978 75.278C38.2627 74.9251 38.476 74.5448 38.6377 74.1372C38.7946 73.7415 38.8976 73.3244 38.9467 72.8859C39.0077 72.4522 38.9897 72.0427 38.8928 71.6573C38.8006 71.26 38.6247 70.8988 38.3651 70.5738C38.1055 70.2488 37.7479 69.9959 37.2922 69.8152C36.8366 69.6344 36.4029 69.5734 35.9911 69.6321C35.5792 69.6908 35.2036 69.8332 34.8641 70.0593C34.5294 70.2735 34.2296 70.557 33.9647 70.9098C33.7119 71.2675 33.507 71.6441 33.35 72.0398C33.1883 72.4475 33.077 72.8682 33.0159 73.3019C32.9716 73.7284 32.9956 74.1403 33.0878 74.5376C33.1799 74.935 33.3558 75.2962 33.6155 75.6212C33.8751 75.9462 34.2327 76.1991 34.6883 76.3798ZM44.2331 70.9864L46.1575 71.7497L45.4441 73.5482L45.4801 73.5625C45.6399 73.3345 45.8513 73.1339 46.1143 72.9606C46.3893 72.7922 46.6847 72.6596 47.0006 72.5629C47.3333 72.4589 47.6732 72.4064 48.0205 72.4054C48.3679 72.4044 48.6974 72.4657 49.0091 72.5894C49.2489 72.6845 49.4084 72.7547 49.4876 72.8C49.5788 72.85 49.6699 72.9001 49.7611 72.9501L48.9764 74.9285C48.842 74.8474 48.6993 74.77 48.5481 74.6962C48.4138 74.6151 48.2746 74.5461 48.1308 74.489C47.783 74.3511 47.4248 74.2922 47.056 74.3125C46.7039 74.3254 46.3593 74.4246 46.0221 74.6101C45.6896 74.7835 45.379 75.0419 45.0901 75.3852C44.8013 75.7286 44.5546 76.1581 44.3501 76.6736L42.5952 81.098L40.5448 80.2847L44.2331 70.9864ZM49.6208 73.1234L51.1675 73.7369L52.2733 70.9492L54.3236 71.7625L53.2179 74.5502L55.0703 75.285L54.464 76.8138L52.6115 76.079L50.6425 81.0429C50.5569 81.2587 50.4892 81.4469 50.4393 81.6076C50.4015 81.773 50.3911 81.9215 50.4083 82.0532C50.4374 82.1896 50.5061 82.314 50.6142 82.4263C50.727 82.5265 50.8974 82.6219 51.1252 82.7122C51.2691 82.7693 51.413 82.8264 51.5568 82.8834C51.7055 82.9285 51.8589 82.9616 52.017 82.9827L51.3892 84.5654C51.1519 84.499 50.9206 84.435 50.6952 84.3734C50.4699 84.3118 50.2433 84.2358 50.0155 84.1454C49.476 83.9314 49.0573 83.7098 48.7597 83.4807C48.4787 83.2444 48.2804 82.9923 48.1646 82.7244C48.0656 82.4492 48.0396 82.1474 48.0866 81.8192C48.1455 81.4956 48.2451 81.1396 48.3853 80.7512L50.5612 75.2657L49.0144 74.6522L49.6208 73.1234ZM55.628 75.5062L57.1568 76.1126L57.4635 75.3392C57.6966 74.7517 57.9564 74.3066 58.2429 74.004C58.5343 73.6894 58.8379 73.4837 59.1538 73.387C59.4744 73.2783 59.7965 73.2534 60.12 73.3123C60.4603 73.364 60.7983 73.4565 61.1341 73.5897C61.7935 73.8512 62.2565 74.0834 62.5229 74.2863L61.888 75.887C61.7704 75.7987 61.636 75.7176 61.4849 75.6438C61.3505 75.5627 61.1814 75.4818 60.9776 75.4009C60.7018 75.2916 60.4359 75.2624 60.1797 75.3134C59.9356 75.3692 59.7374 75.589 59.5852 75.9726L59.2071 76.9259L60.9517 77.6179L60.3453 79.1466L58.6007 78.4546L55.5188 86.2243L53.4685 85.411L56.5504 77.6413L55.0216 77.035L55.628 75.5062ZM62.6927 89.3612C61.9494 89.0664 61.3315 88.6825 60.8391 88.2097C60.3634 87.7296 60.0074 87.1929 59.7709 86.5995C59.5464 86.0109 59.4452 85.3741 59.4672 84.6889C59.5011 84.0086 59.6608 83.3087 59.9462 82.5893C60.2268 81.8819 60.5879 81.2688 61.0295 80.7502C61.4831 80.2363 61.9934 79.842 62.5603 79.5673C63.1392 79.2973 63.7639 79.1566 64.4346 79.1451C65.122 79.1263 65.8374 79.2644 66.5807 79.5593C67.3241 79.8541 67.9337 80.2416 68.4093 80.7217C68.9017 81.1945 69.2601 81.7252 69.4846 82.3138C69.7211 82.9072 69.8223 83.544 69.7883 84.2244C69.7664 84.9095 69.6151 85.6058 69.3345 86.3132C69.0491 87.0326 68.6796 87.6493 68.226 88.1632C67.7844 88.6818 67.2741 89.0761 66.6952 89.3461C66.1283 89.6208 65.5012 89.7675 64.8138 89.7863C64.1432 89.7978 63.4361 89.6561 62.6927 89.3612ZM63.3348 87.7426C63.7904 87.9233 64.2242 87.9843 64.636 87.9256C65.0478 87.867 65.4234 87.7245 65.7629 87.4984C66.1024 87.2723 66.3962 86.9864 66.6443 86.6407C66.9092 86.2879 67.1224 85.9076 67.2841 85.4999C67.4411 85.1043 67.5441 84.6872 67.5931 84.2487C67.6541 83.815 67.6362 83.4054 67.5393 83.0201C67.4471 82.6227 67.2712 82.2615 67.0116 81.9365C66.7519 81.6115 66.3943 81.3587 65.9387 81.1779C65.4831 80.9972 65.0493 80.9362 64.6375 80.9949C64.2257 81.0535 63.8501 81.1959 63.5106 81.4221C63.1758 81.6362 62.8761 81.9197 62.6112 82.2726C62.3583 82.6302 62.1534 83.0069 61.9965 83.4026C61.8348 83.8102 61.7234 84.2309 61.6624 84.6646C61.6181 85.0911 61.6421 85.5031 61.7342 85.9004C61.8264 86.2978 62.0023 86.6589 62.2619 86.9839C62.5215 87.309 62.8792 87.5618 63.3348 87.7426ZM74.3389 78.8274L76.3892 79.6407L71.2956 92.4822L69.2453 91.6689L74.3389 78.8274ZM78.6771 80.5482L80.7275 81.3615L79.957 83.3039L77.9067 82.4906L78.6771 80.5482ZM77.2718 84.0913L79.3221 84.9046L75.6338 94.203L73.5835 93.3897L77.2718 84.0913ZM82.0304 97.0316C81.287 96.7367 80.6691 96.3529 80.1767 95.88C79.7011 95.4 79.345 94.8632 79.1086 94.2699C78.8841 93.6813 78.7829 93.0444 78.8049 92.3593C78.8388 91.679 78.9985 90.9791 79.2838 90.2597C79.5644 89.5523 79.9256 88.9392 80.3672 88.4206C80.8208 87.9067 81.3311 87.5124 81.898 87.2377C82.4768 86.9677 83.1016 86.827 83.7722 86.8155C84.4596 86.7967 85.175 86.9348 85.9184 87.2296C86.6618 87.5245 87.2713 87.912 87.747 88.3921C88.2394 88.8649 88.5978 89.3956 88.8223 89.9842C89.0587 90.5776 89.16 91.2144 89.126 91.8948C89.104 92.5799 88.9527 93.2762 88.6721 93.9836C88.3868 94.703 88.0173 95.3197 87.5637 95.8336C87.122 96.3522 86.6118 96.7465 86.0329 97.0165C85.466 97.2912 84.8389 97.4379 84.1515 97.4566C83.4808 97.4682 82.7738 97.3265 82.0304 97.0316ZM82.6725 95.4129C83.1281 95.5937 83.5618 95.6547 83.9737 95.596C84.3855 95.5373 84.7611 95.3949 85.1006 95.1688C85.4401 94.9427 85.7339 94.6568 85.982 94.3111C86.2468 93.9583 86.4601 93.578 86.6218 93.1703C86.7788 92.7746 86.8818 92.3576 86.9308 91.9191C86.9918 91.4854 86.9739 91.0758 86.877 90.6905C86.7848 90.2931 86.6089 89.9319 86.3493 89.6069C86.0896 89.2819 85.732 89.029 85.2764 88.8483C84.8207 88.6676 84.387 88.6066 83.9752 88.6652C83.5634 88.7239 83.1877 88.8663 82.8483 89.0925C82.5135 89.3066 82.2137 89.5901 81.9489 89.943C81.696 90.3006 81.4911 90.6773 81.3342 91.0729C81.1725 91.4806 81.0611 91.9013 81.0001 92.335C80.9558 92.7615 80.9797 93.1734 81.0719 93.5708C81.1641 93.9681 81.34 94.3293 81.5996 94.6543C81.8592 94.9793 82.2169 95.2322 82.6725 95.4129Z" fill="#8CFFFD"/>
</svg>
