<svg width="205" height="195" viewBox="0 0 205 195" fill="none" xmlns="http://www.w3.org/2000/svg">
<rect x="0.5" y="0.5" width="204" height="194" rx="43.5" fill="black" stroke="#FE3B2E"/>
<path d="M168.092 99.5103C168.092 101.576 167.746 103.521 167.071 105.297C166.356 107.186 165.295 108.841 163.929 110.232C162.547 111.63 160.883 112.715 158.978 113.446C157.21 114.122 155.273 114.467 153.224 114.467C151.174 114.467 149.213 114.122 147.453 113.438C147.027 113.27 146.609 113.085 146.207 112.884C145.106 113.639 143.772 114.081 142.334 114.081H138.074C137.471 114.081 136.893 114.001 136.338 113.856C135.783 114.001 135.205 114.081 134.602 114.081H130.342C128.904 114.081 127.57 113.639 126.469 112.884C126.051 113.085 125.625 113.278 125.183 113.446C123.423 114.122 121.486 114.467 119.428 114.467C117.371 114.467 115.426 114.122 113.658 113.438C112.926 113.149 112.227 112.812 111.568 112.426C110.371 113.454 108.811 114.081 107.108 114.081H102.848C102.334 114.081 101.827 114.025 101.345 113.913C101.233 113.945 101.12 113.969 101.008 113.985C100.373 114.089 99.7216 114.154 98.9983 114.194C98.4438 114.218 97.9133 114.226 97.3909 114.226C96.3943 114.226 95.4138 114.154 94.4896 114.017C93.051 113.8 91.7249 113.334 90.5354 112.651C90.0451 112.369 89.587 112.048 89.1611 111.678C87.9073 113.149 86.0427 114.081 83.9612 114.081H79.7016C78.2871 114.081 76.969 113.655 75.876 112.916C75.4822 113.109 75.0803 113.286 74.6704 113.446C72.8943 114.122 70.9574 114.467 68.9079 114.467C66.8585 114.467 64.9055 114.122 63.1374 113.438C61.2568 112.707 59.6011 111.622 58.2188 110.224C57.0293 109.01 56.0649 107.587 55.3657 105.98C54.7227 106.133 54.0637 106.237 53.3725 106.31V107.242C53.3725 111.019 50.3104 114.081 46.5411 114.081H41.8314C38.054 114.081 35 111.019 35 107.242V85.8314C35 82.0621 38.054 79 41.8314 79H51.4838C53.7181 79 55.7514 79.3697 57.5196 80.1091C59.3761 80.8807 60.9594 81.9576 62.2212 83.3319C62.7918 83.9508 63.2981 84.6098 63.7241 85.3171C65.3315 84.7625 67.0755 84.4892 68.9079 84.4892C70.9815 84.4892 72.9425 84.8429 74.7267 85.5501C75.1205 85.7028 75.5063 85.8796 75.884 86.0725C76.977 85.3331 78.2871 84.9072 79.7016 84.9072H83.7522C84.2183 84.9072 84.6845 84.9554 85.1265 85.0438C85.44 84.9474 85.7534 84.8589 86.0749 84.7866C87.0152 82.1425 89.5388 80.2618 92.5045 80.2618H96.764C98.1143 80.2618 99.368 80.6476 100.429 81.3388C102.044 80.1171 104.496 79 108.032 79C108.586 79 109.149 79.0241 109.712 79.0643C110.033 79.0884 110.347 79.1125 110.652 79.1286C113.835 79.3054 116.422 81.6442 117.001 84.6661C117.789 84.5455 118.6 84.4892 119.428 84.4892C120.867 84.4892 122.249 84.658 123.559 85.0036C123.969 81.6281 126.846 79 130.342 79H134.602C135.205 79 135.783 79.0804 136.338 79.225C136.893 79.0804 137.471 79 138.074 79H142.334C145.83 79 148.707 81.62 149.125 84.9956C150.419 84.658 151.793 84.4892 153.224 84.4892C155.297 84.4892 157.25 84.8429 159.034 85.5501C160.915 86.2895 162.563 87.3665 163.937 88.7569C165.303 90.1473 166.364 91.819 167.079 93.7237C167.755 95.4999 168.092 97.4448 168.092 99.5103Z" fill="#6E6D6D" stroke="#FE3B2E" stroke-miterlimit="10"/>
<path d="M43.1612 107H42.5771V86.1471H51.0175C53.023 86.1471 54.5806 86.6242 55.6905 87.5782C56.8003 88.5323 57.3552 89.9536 57.3552 91.8423C57.3552 92.7574 57.1897 93.5751 56.8587 94.2955C56.5277 94.9965 56.0701 95.5903 55.486 96.0771C54.9019 96.5444 54.201 96.9046 53.3832 97.1577C52.5849 97.3913 51.699 97.5082 50.7255 97.5082H43.1612V107ZM43.1612 96.924H51.0175C51.8353 96.924 52.5947 96.817 53.2956 96.6028C53.9965 96.3691 54.6001 96.0381 55.1063 95.6098C55.632 95.162 56.0409 94.6265 56.333 94.0035C56.625 93.3804 56.7711 92.66 56.7711 91.8423C56.7711 90.1873 56.294 88.9217 55.34 88.0455C54.4054 87.1693 52.9646 86.7313 51.0175 86.7313H43.1612V96.924ZM62.9691 99.4941C62.9691 100.448 63.0956 101.363 63.3487 102.239C63.6213 103.116 64.0205 103.894 64.5462 104.576C65.0719 105.238 65.7144 105.773 66.4737 106.182C67.2526 106.572 68.1482 106.766 69.1607 106.766C70.1537 106.766 71.0298 106.572 71.7892 106.182C72.568 105.773 73.2202 105.238 73.746 104.576C74.2717 103.894 74.6611 103.116 74.9142 102.239C75.1868 101.363 75.3231 100.448 75.3231 99.4941C75.3231 98.5596 75.1868 97.6542 74.9142 96.778C74.6611 95.9018 74.2717 95.1328 73.746 94.4708C73.2202 93.7893 72.568 93.2441 71.7892 92.8352C71.0298 92.4264 70.1537 92.2219 69.1607 92.2219C68.1482 92.2219 67.2526 92.4264 66.4737 92.8352C65.7144 93.2441 65.0719 93.7893 64.5462 94.4708C64.0205 95.1328 63.6213 95.9018 63.3487 96.778C63.0956 97.6542 62.9691 98.5596 62.9691 99.4941ZM62.3849 99.4941C62.3849 98.4622 62.531 97.4789 62.823 96.5444C63.1151 95.5903 63.5434 94.7531 64.1081 94.0327C64.6922 93.3123 65.4029 92.7379 66.2401 92.3095C67.0773 91.8617 68.0508 91.6378 69.1607 91.6378C70.251 91.6378 71.2148 91.8617 72.052 92.3095C72.8893 92.7379 73.5902 93.3123 74.1548 94.0327C74.7389 94.7531 75.177 95.5903 75.4691 96.5444C75.7611 97.4789 75.9072 98.4622 75.9072 99.4941C75.9072 100.526 75.7611 101.519 75.4691 102.473C75.177 103.408 74.7389 104.235 74.1548 104.956C73.5902 105.676 72.8893 106.25 72.052 106.679C71.2148 107.107 70.2413 107.321 69.1315 107.321C68.0411 107.321 67.0773 107.107 66.2401 106.679C65.4029 106.25 64.6922 105.676 64.1081 104.956C63.5434 104.235 63.1151 103.408 62.823 102.473C62.531 101.519 62.3849 100.526 62.3849 99.4941ZM82.6991 107H82.115V91.9883H82.6991V95.6974H82.7575C82.8938 95.1328 83.108 94.6071 83.4 94.1203C83.6921 93.6141 84.0815 93.176 84.5683 92.806C85.055 92.4361 85.6294 92.144 86.2914 91.9299C86.9729 91.7157 87.7614 91.6183 88.657 91.6378V92.2219C87.6251 92.1635 86.7295 92.3095 85.9701 92.66C85.2302 92.991 84.6169 93.4583 84.1302 94.0619C83.6434 94.646 83.2832 95.3275 83.0496 96.1063C82.8159 96.8851 82.6991 97.6834 82.6991 98.5011V107ZM95.0761 92.5724V104.079C95.0761 104.644 95.1345 105.082 95.2514 105.394C95.3877 105.705 95.5532 105.939 95.7479 106.095C95.9426 106.25 96.1567 106.348 96.3904 106.387C96.624 106.406 96.8577 106.416 97.0913 106.416C97.3834 106.416 97.6462 106.416 97.8799 106.416C98.1135 106.396 98.279 106.367 98.3764 106.328V106.912C98.2011 106.932 98.0259 106.951 97.8507 106.971C97.6949 106.99 97.3931 107 96.9453 107C96.2638 107 95.6797 106.805 95.193 106.416C94.7257 106.007 94.492 105.267 94.492 104.196V92.5724H91.7467V91.9883H94.492V87.257H95.0761V91.9883H98.464V92.5724H95.0761ZM102.705 92.5724V91.9883H105.246V88.6588C105.246 88.0553 105.333 87.588 105.509 87.257C105.703 86.926 105.947 86.6826 106.239 86.5268C106.531 86.3516 106.852 86.2445 107.203 86.2056C107.553 86.1666 107.884 86.1471 108.196 86.1471C108.468 86.1471 108.702 86.1666 108.897 86.2056C109.111 86.225 109.296 86.2445 109.451 86.264V86.8481C109.179 86.8091 108.936 86.7799 108.721 86.7605C108.507 86.741 108.293 86.7313 108.079 86.7313C107.144 86.7313 106.531 86.9065 106.239 87.257C105.966 87.588 105.83 88.1234 105.83 88.8633V91.9883H109.072V92.5724H105.83V107H105.246V92.5724H102.705ZM113.865 99.4941C113.865 100.448 113.991 101.363 114.244 102.239C114.517 103.116 114.916 103.894 115.442 104.576C115.967 105.238 116.61 105.773 117.369 106.182C118.148 106.572 119.044 106.766 120.056 106.766C121.049 106.766 121.925 106.572 122.685 106.182C123.463 105.773 124.116 105.238 124.641 104.576C125.167 103.894 125.557 103.116 125.81 102.239C126.082 101.363 126.219 100.448 126.219 99.4941C126.219 98.5596 126.082 97.6542 125.81 96.778C125.557 95.9018 125.167 95.1328 124.641 94.4708C124.116 93.7893 123.463 93.2441 122.685 92.8352C121.925 92.4264 121.049 92.2219 120.056 92.2219C119.044 92.2219 118.148 92.4264 117.369 92.8352C116.61 93.2441 115.967 93.7893 115.442 94.4708C114.916 95.1328 114.517 95.9018 114.244 96.778C113.991 97.6542 113.865 98.5596 113.865 99.4941ZM113.28 99.4941C113.28 98.4622 113.426 97.4789 113.718 96.5444C114.011 95.5903 114.439 94.7531 115.004 94.0327C115.588 93.3123 116.298 92.7379 117.136 92.3095C117.973 91.8617 118.946 91.6378 120.056 91.6378C121.146 91.6378 122.11 91.8617 122.947 92.3095C123.785 92.7379 124.486 93.3123 125.05 94.0327C125.634 94.7531 126.072 95.5903 126.365 96.5444C126.657 97.4789 126.803 98.4622 126.803 99.4941C126.803 100.526 126.657 101.519 126.365 102.473C126.072 103.408 125.634 104.235 125.05 104.956C124.486 105.676 123.785 106.25 122.947 106.679C122.11 107.107 121.137 107.321 120.027 107.321C118.937 107.321 117.973 107.107 117.136 106.679C116.298 106.25 115.588 105.676 115.004 104.956C114.439 104.235 114.011 103.408 113.718 102.473C113.426 101.519 113.28 100.526 113.28 99.4941ZM133.01 86.1471H133.595V107H133.01V86.1471ZM141.185 89.0969H140.6V86.1471H141.185V89.0969ZM141.185 107H140.6V91.9883H141.185V107ZM147.986 99.4941C147.986 100.448 148.113 101.363 148.366 102.239C148.638 103.116 149.037 103.894 149.563 104.576C150.089 105.238 150.731 105.773 151.491 106.182C152.27 106.572 153.165 106.766 154.178 106.766C155.171 106.766 156.047 106.572 156.806 106.182C157.585 105.773 158.237 105.238 158.763 104.576C159.289 103.894 159.678 103.116 159.931 102.239C160.204 101.363 160.34 100.448 160.34 99.4941C160.34 98.5596 160.204 97.6542 159.931 96.778C159.678 95.9018 159.289 95.1328 158.763 94.4708C158.237 93.7893 157.585 93.2441 156.806 92.8352C156.047 92.4264 155.171 92.2219 154.178 92.2219C153.165 92.2219 152.27 92.4264 151.491 92.8352C150.731 93.2441 150.089 93.7893 149.563 94.4708C149.037 95.1328 148.638 95.9018 148.366 96.778C148.113 97.6542 147.986 98.5596 147.986 99.4941ZM147.402 99.4941C147.402 98.4622 147.548 97.4789 147.84 96.5444C148.132 95.5903 148.56 94.7531 149.125 94.0327C149.709 93.3123 150.42 92.7379 151.257 92.3095C152.094 91.8617 153.068 91.6378 154.178 91.6378C155.268 91.6378 156.232 91.8617 157.069 92.3095C157.906 92.7379 158.607 93.3123 159.172 94.0327C159.756 94.7531 160.194 95.5903 160.486 96.5444C160.778 97.4789 160.924 98.4622 160.924 99.4941C160.924 100.526 160.778 101.519 160.486 102.473C160.194 103.408 159.756 104.235 159.172 104.956C158.607 105.676 157.906 106.25 157.069 106.679C156.232 107.107 155.258 107.321 154.148 107.321C153.058 107.321 152.094 107.107 151.257 106.679C150.42 106.25 149.709 105.676 149.125 104.956C148.56 104.235 148.132 103.408 147.84 102.473C147.548 101.519 147.402 100.526 147.402 99.4941Z" fill="#8CFFFD"/>
<circle cx="14" cy="31" r="2.5" fill="black" stroke="#8CFFFD"/>
<circle cx="34" cy="13" r="2.5" fill="black" stroke="#8CFFFD"/>
<circle cx="3" cy="3" r="2.5" transform="matrix(-1 0 0 1 193 28)" fill="black" stroke="#8CFFFD"/>
<circle cx="3" cy="3" r="2.5" transform="matrix(-1 0 0 1 173 10)" fill="black" stroke="#8CFFFD"/>
<circle cx="3" cy="3" r="2.5" transform="matrix(1 0 0 -1 11 167)" fill="black" stroke="#8CFFFD"/>
<circle cx="3" cy="3" r="2.5" transform="matrix(1 0 0 -1 31 185)" fill="black" stroke="#8CFFFD"/>
<circle cx="190" cy="164" r="2.5" transform="rotate(180 190 164)" fill="black" stroke="#8CFFFD"/>
<circle cx="170" cy="182" r="2.5" transform="rotate(180 170 182)" fill="black" stroke="#8CFFFD"/>
<path d="M161.989 8.98925L164 11M164 8.98925L161.989 11" stroke="#FF2875" stroke-width="0.2"/>
<path d="M41.0054 8.98925L43.0161 11M43.0161 8.98925L41.0054 11" stroke="#FF2875" stroke-width="0.2"/>
<path d="M42 10H163" stroke="#FF2875" stroke-width="0.2"/>
<path d="M194.016 156.989L192.005 159M194.016 159L192.005 156.989" stroke="#FF2875" stroke-width="0.2"/>
<path d="M194.016 36.0054L192.005 38.0161M194.016 38.0161L192.005 36.0054" stroke="#FF2875" stroke-width="0.2"/>
<path d="M193.005 37L193.005 158" stroke="#FF2875" stroke-width="0.2"/>
<path d="M12.0161 156.989L10.0054 159M12.0161 159L10.0054 156.989" stroke="#FF2875" stroke-width="0.2"/>
<path d="M12.0161 36.0054L10.0054 38.0161M12.0161 38.0161L10.0054 36.0054" stroke="#FF2875" stroke-width="0.2"/>
<path d="M11.0054 37L11.0054 158" stroke="#FF2875" stroke-width="0.2"/>
<path d="M161.989 184.005L164 186.016M164 184.005L161.989 186.016" stroke="#FF2875" stroke-width="0.2"/>
<path d="M41.0054 184.005L43.0161 186.016M43.0161 184.005L41.0054 186.016" stroke="#FF2875" stroke-width="0.2"/>
<path d="M42 185.016H163" stroke="#FF2875" stroke-width="0.2"/>
</svg>
