<svg width="140" height="26" viewBox="0 0 140 26" fill="none" xmlns="http://www.w3.org/2000/svg">
<path d="M17.728 23.904C16.576 23.84 15.4347 23.5947 14.304 23.168C13.1947 22.7413 12.16 22.24 11.2 21.664C10.2613 21.088 9.48267 20.5547 8.864 20.064C8.13867 20.512 7.37067 20.8533 6.56 21.088C5.74933 21.344 4.992 21.472 4.288 21.472C4.13867 21.472 4 21.4613 3.872 21.44C3.744 21.44 3.616 21.4293 3.488 21.408C2.22933 21.1947 1.33333 20.7787 0.8 20.16C0.266667 19.5413 0 18.8907 0 18.208C0 17.6747 0.128 17.1627 0.384 16.672C0.64 16.1813 0.992 15.7867 1.44 15.488C1.888 15.168 2.38933 15.008 2.944 15.008C3.60533 15.008 4.30933 15.1787 5.056 15.52C5.824 15.8613 6.54933 16.2773 7.232 16.768C7.936 17.2373 8.52267 17.6853 8.992 18.112C10.016 17.1307 10.848 16.0213 11.488 14.784C12.1493 13.5467 12.8107 12.3093 13.472 11.072C12.4053 10.9867 11.3707 10.7307 10.368 10.304C9.36533 9.87733 8.544 9.28 7.904 8.512C7.264 7.744 6.944 6.83733 6.944 5.792C6.944 4.61867 7.21067 3.63733 7.744 2.848C8.27733 2.03733 8.93867 1.42933 9.728 1.024C10.5173 0.618667 11.296 0.416 12.064 0.416C12.8747 0.416 13.568 0.64 14.144 1.088C14.7413 1.536 15.04 2.22933 15.04 3.168C15.04 3.488 14.9227 3.648 14.688 3.648C14.6027 3.648 14.5173 3.60533 14.432 3.52C14.368 3.41333 14.336 3.28533 14.336 3.136C14.336 2.45333 14.112 1.93067 13.664 1.568C13.2373 1.20533 12.7147 1.024 12.096 1.024C11.5413 1.024 10.976 1.19467 10.4 1.536C9.84533 1.856 9.376 2.368 8.992 3.072C8.608 3.75467 8.416 4.64 8.416 5.728C8.416 7.02933 8.90667 8.11733 9.888 8.992C10.8693 9.86667 12.2133 10.304 13.92 10.304C14.56 9.04533 15.2 7.85067 15.84 6.72C16.5013 5.568 17.1733 4.58667 17.856 3.776C19.0933 2.304 20.256 1.312 21.344 0.799999C22.432 0.266666 23.3493 0 24.096 0C24.6293 0 25.0667 0.0853335 25.408 0.256001C25.7493 0.405333 25.9733 0.586666 26.08 0.799999C26.3147 1.26933 26.432 1.728 26.432 2.176C26.432 2.92267 26.1867 3.69067 25.696 4.48C25.2267 5.26933 24.5973 6.02667 23.808 6.752C23.0187 7.47733 22.1547 8.14933 21.216 8.768C20.2773 9.36533 19.3493 9.86667 18.432 10.272C17.5147 10.656 16.6933 10.9013 15.968 11.008C15.1787 12.7147 14.3147 14.24 13.376 15.584C12.4587 16.928 11.4347 18.016 10.304 18.848C10.752 19.1893 11.2853 19.552 11.904 19.936C12.544 20.32 13.2053 20.6827 13.888 21.024C14.5707 21.3653 15.2213 21.664 15.84 21.92C16.4587 22.176 16.9813 22.3573 17.408 22.464C17.7493 22.528 18.144 22.592 18.592 22.656C19.0613 22.72 19.5307 22.752 20 22.752C20.832 22.752 21.6107 22.6133 22.336 22.336C23.0613 22.08 23.52 21.5573 23.712 20.768C23.7333 20.6187 23.8507 20.544 24.064 20.544C24.1707 20.544 24.2667 20.576 24.352 20.64C24.4373 20.704 24.4587 20.8107 24.416 20.96C24.1387 22.0693 23.3813 22.8587 22.144 23.328C20.9067 23.7973 19.4347 23.9893 17.728 23.904ZM16.416 10.048C17.184 9.89867 17.9733 9.62133 18.784 9.216C19.5947 8.78933 20.384 8.288 21.152 7.712C21.9413 7.136 22.6453 6.528 23.264 5.888C23.904 5.22667 24.4267 4.58667 24.832 3.968C25.1307 3.47733 25.344 3.05067 25.472 2.688C25.6213 2.32533 25.696 2.016 25.696 1.76C25.696 1.16267 25.3867 0.864 24.768 0.864C24.1493 0.864 23.4133 1.13067 22.56 1.664C21.8347 2.112 21.0133 2.848 20.096 3.872C19.1787 4.896 18.24 6.34667 17.28 8.224C17.0027 8.8 16.7147 9.408 16.416 10.048ZM3.904 20.8C4.58667 20.8 5.248 20.672 5.888 20.416C6.528 20.16 7.11467 19.8187 7.648 19.392C6.944 18.816 6.24 18.272 5.536 17.76C4.85333 17.2267 4.224 16.8213 3.648 16.544C3.41333 16.416 3.17867 16.3307 2.944 16.288C2.73067 16.224 2.53867 16.192 2.368 16.192C1.856 16.192 1.472 16.3733 1.216 16.736C0.96 17.0773 0.832 17.4827 0.832 17.952C0.832 18.3787 0.938667 18.816 1.152 19.264C1.38667 19.712 1.728 20.0747 2.176 20.352C2.64533 20.6507 3.22133 20.8 3.904 20.8Z" fill="#8CFFFD"/>
<path d="M28.4895 2.45522C28.8723 2.45522 29.1958 2.58738 29.4602 2.8517C29.7245 3.11603 29.8567 3.43959 29.8567 3.82241C29.8567 4.1961 29.7199 4.51967 29.4465 4.79311C29.1822 5.05743 28.8632 5.18959 28.4895 5.18959C28.1158 5.18959 27.7922 5.05743 27.5188 4.79311C27.2544 4.51967 27.1223 4.1961 27.1223 3.82241C27.1223 3.43959 27.2544 3.11603 27.5188 2.8517C27.7831 2.58738 28.1067 2.45522 28.4895 2.45522ZM28.6672 7.88295L25.9602 17.4669C25.7779 18.1141 25.6867 18.5014 25.6867 18.629C25.6867 18.7749 25.7277 18.8934 25.8098 18.9845C25.9009 19.0757 26.0057 19.1212 26.1242 19.1212C26.261 19.1212 26.425 19.0483 26.6164 18.9025C27.136 18.4923 27.66 17.909 28.1887 17.1525L28.6672 17.4669C28.0474 18.4149 27.3182 19.2124 26.4797 19.8595C25.8599 20.3426 25.2675 20.5841 24.7024 20.5841C24.3287 20.5841 24.0233 20.4748 23.7863 20.256C23.5494 20.0281 23.4309 19.7456 23.4309 19.4083C23.4309 19.0711 23.5448 18.5106 23.7727 17.7267L25.55 11.6017C25.8417 10.5991 25.9875 9.97019 25.9875 9.71498C25.9875 9.51446 25.9146 9.3504 25.7688 9.2228C25.632 9.09519 25.4406 9.03139 25.1945 9.03139C24.994 9.03139 24.5793 9.08152 23.9504 9.18178V8.64858L28.6672 7.88295Z" fill="#8CFFFD"/>
<path d="M31.8127 10.232C31.8687 9.392 32.0461 8.664 32.3447 8.048C32.6434 7.432 33.0447 6.928 33.5487 6.536C34.0714 6.144 34.6781 5.85467 35.3687 5.668C36.0594 5.48133 36.8247 5.388 37.6647 5.388C38.2994 5.388 38.9341 5.45333 39.5687 5.584C40.2034 5.696 40.7727 5.92 41.2767 6.256C41.7807 6.592 42.1914 7.068 42.5087 7.684C42.8261 8.28133 42.9847 9.06533 42.9847 10.036V17.708C42.9847 18.4173 43.3301 18.772 44.0207 18.772C44.2261 18.772 44.4127 18.7347 44.5807 18.66V20.144C44.3754 20.1813 44.1887 20.2093 44.0207 20.228C43.8714 20.2467 43.6754 20.256 43.4327 20.256C42.9847 20.256 42.6207 20.2 42.3407 20.088C42.0794 19.9573 41.8741 19.78 41.7247 19.556C41.5754 19.332 41.4727 19.0707 41.4167 18.772C41.3794 18.4547 41.3607 18.1093 41.3607 17.736H41.3047C40.9874 18.2027 40.6607 18.6227 40.3247 18.996C40.0074 19.3507 39.6434 19.6493 39.2327 19.892C38.8407 20.1347 38.3834 20.3213 37.8607 20.452C37.3567 20.5827 36.7501 20.648 36.0407 20.648C35.3687 20.648 34.7341 20.564 34.1367 20.396C33.5581 20.2467 33.0447 20.004 32.5967 19.668C32.1674 19.3133 31.8221 18.8747 31.5607 18.352C31.3181 17.8107 31.1967 17.176 31.1967 16.448C31.1967 15.44 31.4207 14.656 31.8687 14.096C32.3167 13.5173 32.9047 13.0787 33.6327 12.78C34.3794 12.4813 35.2101 12.276 36.1247 12.164C37.0581 12.0333 38.0007 11.912 38.9527 11.8C39.3261 11.7627 39.6527 11.716 39.9327 11.66C40.2127 11.604 40.4461 11.5107 40.6327 11.38C40.8194 11.2307 40.9594 11.0347 41.0527 10.792C41.1647 10.5493 41.2207 10.232 41.2207 9.84C41.2207 9.24267 41.1181 8.75733 40.9127 8.384C40.7261 7.992 40.4554 7.684 40.1007 7.46C39.7647 7.236 39.3634 7.08667 38.8967 7.012C38.4487 6.91867 37.9634 6.872 37.4407 6.872C36.3207 6.872 35.4061 7.14267 34.6967 7.684C33.9874 8.20667 33.6141 9.056 33.5767 10.232H31.8127ZM41.2207 12.36H41.1647C41.0527 12.5653 40.8381 12.7147 40.5207 12.808C40.2034 12.9013 39.9234 12.9667 39.6807 13.004C38.9341 13.1347 38.1594 13.256 37.3567 13.368C36.5727 13.4613 35.8541 13.6107 35.2007 13.816C34.5474 14.0213 34.0061 14.32 33.5767 14.712C33.1661 15.0853 32.9607 15.6267 32.9607 16.336C32.9607 16.784 33.0447 17.1853 33.2127 17.54C33.3994 17.876 33.6421 18.1747 33.9407 18.436C34.2394 18.6787 34.5847 18.8653 34.9767 18.996C35.3687 19.1267 35.7701 19.192 36.1807 19.192C36.8527 19.192 37.4967 19.0893 38.1127 18.884C38.7287 18.6787 39.2607 18.38 39.7087 17.988C40.1754 17.596 40.5394 17.12 40.8007 16.56C41.0807 16 41.2207 15.3653 41.2207 14.656V12.36Z" fill="#8CFFFD"/>
<path d="M45.6602 5.78H48.6842V7.908L48.7402 7.964C49.2256 7.16133 49.8602 6.536 50.6442 6.088C51.4282 5.62133 52.2962 5.388 53.2482 5.388C54.8349 5.388 56.0856 5.79867 57.0002 6.62C57.9149 7.44133 58.3722 8.67333 58.3722 10.316V20.256H55.1802V11.156C55.1429 10.0173 54.9002 9.196 54.4522 8.692C54.0042 8.16933 53.3042 7.908 52.3522 7.908C51.8109 7.908 51.3256 8.01067 50.8962 8.216C50.4669 8.40267 50.1029 8.67333 49.8042 9.028C49.5056 9.364 49.2722 9.76533 49.1042 10.232C48.9362 10.6987 48.8522 11.1933 48.8522 11.716V20.256H45.6602V5.78Z" fill="#8CFFFD"/>
<path d="M68.3184 16.84C68.8784 16.84 69.373 16.728 69.8024 16.504C70.2317 16.28 70.5864 15.9813 70.8664 15.608C71.1464 15.2347 71.3517 14.8147 71.4824 14.348C71.6317 13.8627 71.7064 13.3587 71.7064 12.836C71.7064 12.2387 71.6504 11.6787 71.5384 11.156C71.4264 10.6147 71.2397 10.1387 70.9784 9.728C70.717 9.31733 70.3717 8.99067 69.9424 8.748C69.513 8.50533 68.9717 8.384 68.3184 8.384C67.7584 8.384 67.273 8.496 66.8624 8.72C66.4704 8.944 66.1344 9.252 65.8544 9.644C65.593 10.0173 65.397 10.456 65.2664 10.96C65.1544 11.4453 65.0984 11.9587 65.0984 12.5C65.0984 13.0227 65.145 13.5453 65.2384 14.068C65.3504 14.572 65.5277 15.0293 65.7704 15.44C66.0317 15.8507 66.3677 16.1867 66.7784 16.448C67.189 16.7093 67.7024 16.84 68.3184 16.84ZM75.4864 19.332C75.4864 19.9107 75.4024 20.5733 75.2344 21.32C75.085 22.0667 74.749 22.7573 74.2264 23.392C73.7037 24.0453 72.9477 24.596 71.9584 25.044C70.969 25.492 69.6437 25.716 67.9824 25.716C67.273 25.716 66.545 25.6227 65.7984 25.436C65.0704 25.268 64.3984 24.9973 63.7824 24.624C63.185 24.2507 62.681 23.7653 62.2704 23.168C61.8784 22.5893 61.6544 21.8893 61.5984 21.068H65.5464C65.733 21.8147 66.097 22.328 66.6384 22.608C67.1797 22.9067 67.805 23.056 68.5144 23.056C69.6344 23.056 70.4464 22.72 70.9504 22.048C71.473 21.376 71.725 20.5267 71.7064 19.5V17.596H71.6504C71.221 18.3613 70.605 18.9307 69.8024 19.304C69.0184 19.6587 68.1877 19.836 67.3104 19.836C66.2277 19.836 65.2944 19.6493 64.5104 19.276C63.7264 18.884 63.0824 18.3613 62.5784 17.708C62.0744 17.036 61.701 16.2613 61.4584 15.384C61.2344 14.488 61.1224 13.5453 61.1224 12.556C61.1224 11.6227 61.253 10.7267 61.5144 9.868C61.7944 8.99067 62.1957 8.22533 62.7184 7.572C63.241 6.9 63.885 6.368 64.6504 5.976C65.4344 5.584 66.3304 5.388 67.3384 5.388C68.2904 5.388 69.121 5.56533 69.8304 5.92C70.5584 6.27467 71.165 6.872 71.6504 7.712H71.7064V5.78H75.4864V19.332Z" fill="#8CFFFD"/>
<path d="M83.9568 20.256L84.1209 19.7501C85.0141 19.7501 85.6886 19.5678 86.1443 19.2033C86.6092 18.8296 86.992 18.1369 87.2928 17.1251L90.656 5.43569C90.8748 4.67006 90.9842 4.04116 90.9842 3.54897C90.9842 3.1297 90.8566 2.8198 90.6013 2.61928C90.3461 2.41876 89.6944 2.2866 88.6463 2.2228L88.8103 1.71694H95.1541C98.4991 1.71694 100.91 2.39597 102.387 3.75405C103.872 5.10301 104.615 6.99884 104.615 9.44155C104.615 11.1642 104.273 12.6089 103.59 13.7755C102.25 16.0542 100.659 17.7039 98.8181 18.7248C96.977 19.7456 94.6118 20.256 91.7224 20.256H83.9568ZM95.5369 2.81069L91.4627 16.8654C91.2713 17.5125 91.1756 17.9774 91.1756 18.2599C91.1756 18.5151 91.2804 18.7202 91.49 18.8751C91.7635 19.0848 92.1691 19.1896 92.7068 19.1896C93.992 19.1896 95.1404 18.7886 96.1521 17.9865C97.4464 16.9565 98.4308 15.5711 99.1053 13.8302C99.7888 12.0893 100.131 10.3621 100.131 8.64858C100.131 7.409 99.9347 6.32892 99.5428 5.40834C99.1508 4.48777 98.5447 3.78595 97.7244 3.30288C97.1502 2.97475 96.421 2.81069 95.5369 2.81069Z" fill="#8CFFFD"/>
<path d="M119.819 20.2C119.408 20.4427 118.839 20.564 118.111 20.564C117.495 20.564 117 20.396 116.627 20.06C116.272 19.7053 116.095 19.136 116.095 18.352C115.442 19.136 114.676 19.7053 113.799 20.06C112.94 20.396 112.007 20.564 110.999 20.564C110.346 20.564 109.72 20.4893 109.123 20.34C108.544 20.1907 108.04 19.9573 107.611 19.64C107.182 19.3227 106.836 18.912 106.575 18.408C106.332 17.8853 106.211 17.26 106.211 16.532C106.211 15.7107 106.351 15.0387 106.631 14.516C106.911 13.9933 107.275 13.5733 107.723 13.256C108.19 12.92 108.712 12.668 109.291 12.5C109.888 12.332 110.495 12.192 111.111 12.08C111.764 11.9493 112.38 11.856 112.959 11.8C113.556 11.7253 114.079 11.632 114.527 11.52C114.975 11.3893 115.33 11.212 115.591 10.988C115.852 10.7453 115.983 10.4 115.983 9.952C115.983 9.42933 115.88 9.00933 115.675 8.692C115.488 8.37467 115.236 8.132 114.919 7.964C114.62 7.796 114.275 7.684 113.883 7.628C113.51 7.572 113.136 7.544 112.763 7.544C111.755 7.544 110.915 7.74 110.243 8.132C109.571 8.50533 109.207 9.224 109.151 10.288H106.771C106.808 9.392 106.995 8.636 107.331 8.02C107.667 7.404 108.115 6.90933 108.675 6.536C109.235 6.144 109.87 5.864 110.579 5.696C111.307 5.528 112.082 5.444 112.903 5.444C113.556 5.444 114.2 5.49067 114.835 5.584C115.488 5.67733 116.076 5.87333 116.599 6.172C117.122 6.452 117.542 6.85333 117.859 7.376C118.176 7.89867 118.335 8.58 118.335 9.42V16.868C118.335 17.428 118.363 17.8387 118.419 18.1C118.494 18.3613 118.718 18.492 119.091 18.492C119.296 18.492 119.539 18.4453 119.819 18.352V20.2ZM115.955 12.78C115.656 13.004 115.264 13.172 114.779 13.284C114.294 13.3773 113.78 13.4613 113.239 13.536C112.716 13.592 112.184 13.6667 111.643 13.76C111.102 13.8347 110.616 13.9653 110.187 14.152C109.758 14.3387 109.403 14.6093 109.123 14.964C108.862 15.3 108.731 15.7667 108.731 16.364C108.731 16.756 108.806 17.092 108.955 17.372C109.123 17.6333 109.328 17.848 109.571 18.016C109.832 18.184 110.131 18.3053 110.467 18.38C110.803 18.4547 111.158 18.492 111.531 18.492C112.315 18.492 112.987 18.3893 113.547 18.184C114.107 17.96 114.564 17.6893 114.919 17.372C115.274 17.036 115.535 16.6813 115.703 16.308C115.871 15.916 115.955 15.552 115.955 15.216V12.78Z" fill="#8CFFFD"/>
<path d="M122.454 20.256V17.288H124.806V20.256H122.454ZM122.678 6.228V0.263999H124.582V6.228L124.162 15.272H123.098L122.678 6.228Z" fill="#8CFFFD"/>
<path d="M133.75 5.98256C133.713 5.35366 133.586 4.72931 133.367 4.10952C133.057 3.21629 132.902 2.60105 132.902 2.26381C132.902 1.78985 133.012 1.42983 133.23 1.18373C133.458 0.937641 133.736 0.814594 134.064 0.814594C134.347 0.814594 134.593 0.937641 134.803 1.18373C135.012 1.42983 135.117 1.78074 135.117 2.23647C135.117 2.64663 134.994 3.22084 134.748 3.95913C134.511 4.68829 134.365 5.36277 134.31 5.98256C134.812 5.66355 135.263 5.27618 135.664 4.82045C136.284 4.1004 136.744 3.65379 137.045 3.48061C137.345 3.30743 137.651 3.22084 137.961 3.22084C138.262 3.22084 138.512 3.32566 138.713 3.5353C138.922 3.73582 139.027 3.97735 139.027 4.25991C139.027 4.59715 138.877 4.89793 138.576 5.16225C138.275 5.42657 137.523 5.6909 136.32 5.95522C135.618 6.11017 135.035 6.2879 134.57 6.48842C135.044 6.73452 135.623 6.92137 136.306 7.04897C137.409 7.24949 138.129 7.50014 138.467 7.80092C138.813 8.1017 138.986 8.42983 138.986 8.7853C138.986 9.05873 138.881 9.29571 138.672 9.49623C138.471 9.69676 138.234 9.79702 137.961 9.79702C137.687 9.79702 137.382 9.70131 137.045 9.50991C136.717 9.3185 136.27 8.89012 135.705 8.22475C135.331 7.77814 134.866 7.35887 134.31 6.96694C134.329 7.48647 134.433 8.05157 134.625 8.66225C134.953 9.73777 135.117 10.4715 135.117 10.8634C135.117 11.228 135.008 11.5379 134.789 11.7931C134.57 12.0392 134.338 12.1623 134.092 12.1623C133.754 12.1623 133.449 12.0301 133.176 11.7658C132.984 11.5744 132.888 11.269 132.888 10.8498C132.888 10.4123 132.993 9.88816 133.203 9.27748C133.413 8.65769 133.545 8.23387 133.599 8.006C133.654 7.76902 133.704 7.42267 133.75 6.96694C133.212 7.32241 132.743 7.71889 132.342 8.15639C131.676 8.90379 131.175 9.37775 130.838 9.57827C130.601 9.7241 130.355 9.79702 130.099 9.79702C129.789 9.79702 129.525 9.6922 129.306 9.48256C129.088 9.27293 128.978 9.04051 128.978 8.7853C128.978 8.55743 129.069 8.32045 129.252 8.07436C129.443 7.81915 129.726 7.60952 130.099 7.44545C130.345 7.33608 130.906 7.19025 131.781 7.00795C132.346 6.88946 132.898 6.71629 133.435 6.48842C132.943 6.24233 132.355 6.05092 131.672 5.9142C130.551 5.67722 129.858 5.46303 129.594 5.27163C129.183 4.97084 128.978 4.60626 128.978 4.17788C128.978 3.93178 129.079 3.70847 129.279 3.50795C129.489 3.29832 129.73 3.1935 130.004 3.1935C130.304 3.1935 130.623 3.2892 130.961 3.48061C131.298 3.67202 131.717 4.05939 132.219 4.64272C132.72 5.21694 133.23 5.66355 133.75 5.98256Z" fill="#8CFFFD"/>
</svg>
