<svg width="206" height="113" viewBox="0 0 206 113" fill="none" xmlns="http://www.w3.org/2000/svg">
<rect x="136.8" y="0.5" width="67.8398" height="63.9797" fill="#D9D9D9" stroke="#8CFFFD"/>
<rect x="0.5" y="-0.5" width="204.139" height="48.269" transform="matrix(1 0 0 -1 0 111.947)" fill="#D9D9D9" stroke="#8CFFFD"/>
<path d="M141.111 34.7593C141.111 31.6019 141.218 28.5726 141.431 25.6713C141.645 22.7699 142.221 20.2099 143.159 17.9913C144.098 15.7299 145.506 13.9379 147.383 12.6153C149.303 11.2499 151.949 10.5673 155.319 10.5673C158.093 10.5673 160.375 10.9726 162.167 11.7833C164.002 12.5513 165.453 13.8099 166.519 15.5593C167.629 17.3086 168.397 19.5913 168.823 22.4073C169.293 25.1806 169.527 28.5726 169.527 32.5833C169.527 35.7406 169.421 38.7699 169.207 41.6713C168.994 44.5726 168.418 47.1539 167.479 49.4153C166.541 51.6339 165.111 53.3833 163.191 54.6633C161.314 55.9433 158.69 56.5833 155.319 56.5833C152.589 56.5833 150.306 56.2206 148.471 55.4953C146.637 54.7699 145.165 53.5326 144.055 51.7833C142.989 50.0339 142.221 47.7726 141.751 44.9993C141.325 42.1833 141.111 38.7699 141.111 34.7593ZM150.327 36.7433C150.327 39.6019 150.391 41.9486 150.519 43.7833C150.69 45.5753 150.967 47.0046 151.351 48.0713C151.735 49.0953 152.247 49.7993 152.887 50.1833C153.527 50.5673 154.338 50.7593 155.319 50.7593C156.343 50.7593 157.175 50.5246 157.815 50.0553C158.455 49.5433 158.946 48.7113 159.287 47.5593C159.671 46.3646 159.927 44.7859 160.055 42.8233C160.226 40.8606 160.311 38.4286 160.311 35.5273V30.5993C160.311 27.7406 160.226 25.4153 160.055 23.6233C159.927 21.7886 159.671 20.3593 159.287 19.3353C158.903 18.2686 158.391 17.5433 157.751 17.1593C157.111 16.7753 156.301 16.5833 155.319 16.5833C154.295 16.5833 153.463 16.8393 152.823 17.3513C152.183 17.8206 151.671 18.6526 151.287 19.8473C150.946 20.9993 150.69 22.5566 150.519 24.5193C150.391 26.4819 150.327 28.9139 150.327 31.8153V36.7433Z" fill="#FE3B2E"/>
<path d="M180.821 42.6313C180.864 45.2766 181.205 47.3033 181.845 48.7113C182.528 50.0766 183.872 50.7593 185.877 50.7593C186.987 50.7593 187.861 50.5673 188.501 50.1833C189.184 49.7993 189.696 49.2873 190.037 48.6473C190.421 47.9646 190.656 47.1753 190.741 46.2793C190.869 45.3833 190.933 44.4446 190.933 43.4633C190.933 42.4393 190.848 41.4793 190.677 40.5833C190.549 39.6446 190.272 38.8126 189.845 38.0873C189.419 37.3619 188.821 36.7859 188.053 36.3593C187.285 35.9326 186.261 35.7193 184.981 35.7193H181.909V29.7033H184.917C185.899 29.7033 186.709 29.5113 187.349 29.1273C188.032 28.7006 188.565 28.1673 188.949 27.5273C189.376 26.8446 189.675 26.0766 189.845 25.2233C190.059 24.3699 190.165 23.4739 190.165 22.5353C190.165 20.3593 189.803 18.8233 189.077 17.9273C188.352 17.0313 187.243 16.5833 185.749 16.5833C184.768 16.5833 183.957 16.7753 183.317 17.1593C182.72 17.5006 182.251 18.0126 181.909 18.6953C181.568 19.3353 181.333 20.1033 181.205 20.9993C181.12 21.8953 181.077 22.8766 181.077 23.9433H172.629C172.629 19.4206 173.76 16.0713 176.021 13.8953C178.283 11.6766 181.589 10.5673 185.941 10.5673C190.08 10.5673 193.28 11.5059 195.541 13.3833C197.845 15.2606 198.997 18.2046 198.997 22.2153C198.997 24.9459 198.379 27.1859 197.141 28.9353C195.947 30.6419 194.261 31.7299 192.085 32.1993V32.3273C195.029 32.7966 197.099 33.9913 198.293 35.9113C199.531 37.7886 200.149 40.1566 200.149 43.0153C200.149 44.5513 199.957 46.1299 199.573 47.7513C199.189 49.3726 198.443 50.8446 197.333 52.1673C196.224 53.4899 194.688 54.5566 192.725 55.3673C190.805 56.1779 188.267 56.5833 185.109 56.5833C180.715 56.5833 177.429 55.3886 175.253 52.9993C173.077 50.6099 171.989 47.2179 171.989 42.8233V42.6313H180.821Z" fill="#FE3B2E"/>
<path d="M23.2095 100.947L28.2335 78.387H30.7615L25.7695 100.947H23.2095ZM23.1135 100.947L18.0895 78.387H20.6495L25.6415 100.947H23.1135ZM16.4895 100.947V78.387H19.4015V100.947H16.4895ZM29.4815 100.947V78.387H32.3935V100.947H29.4815Z" fill="#FE3B2E"/>
<path d="M44.4315 95.219V90.515H47.3435V95.219H44.4315ZM35.4395 95.219V90.515H38.3515V95.219H35.4395ZM41.2955 86.835V84.307H41.4875V86.835H41.2955ZM41.2955 101.427V98.899H41.4875V101.427H41.2955ZM35.4395 90.547C35.4395 89.3524 35.6955 88.2857 36.2075 87.347C36.7408 86.4084 37.4448 85.6724 38.3195 85.139C39.2155 84.5844 40.2288 84.307 41.3595 84.307V86.835C40.4208 86.835 39.6848 87.155 39.1515 87.795C38.6182 88.435 38.3515 89.3524 38.3515 90.547H35.4395ZM47.3435 90.547H44.4315C44.4315 89.3524 44.1648 88.435 43.6315 87.795C43.1195 87.155 42.3835 86.835 41.4235 86.835V84.307C42.5542 84.307 43.5568 84.5844 44.4315 85.139C45.3275 85.6724 46.0315 86.4084 46.5435 87.347C47.0768 88.2857 47.3435 89.3524 47.3435 90.547ZM35.4395 95.187H38.3515C38.3515 96.3604 38.6182 97.2777 39.1515 97.939C39.6848 98.579 40.4208 98.899 41.3595 98.899V101.427C40.2288 101.427 39.2155 101.16 38.3195 100.627C37.4448 100.072 36.7408 99.3257 36.2075 98.387C35.6955 97.4484 35.4395 96.3817 35.4395 95.187ZM47.3435 95.187C47.3435 96.3817 47.0768 97.4484 46.5435 98.387C46.0315 99.3257 45.3275 100.072 44.4315 100.627C43.5568 101.16 42.5542 101.427 41.4235 101.427V98.899C42.3835 98.899 43.1195 98.579 43.6315 97.939C44.1648 97.2777 44.4315 96.3604 44.4315 95.187H47.3435Z" fill="#FE3B2E"/>
<path d="M51.358 96.051V78.355L54.27 78.387V96.051H51.358ZM49.502 87.187V84.787H58.302V87.187H49.502ZM51.358 96.019H54.27C54.27 96.6377 54.3553 97.1604 54.526 97.587C54.6967 98.0137 54.942 98.3444 55.262 98.579C55.582 98.7924 55.966 98.899 56.414 98.899L56.158 101.427C54.6647 101.427 53.4913 100.958 52.638 100.019C51.7847 99.059 51.358 97.7257 51.358 96.019ZM57.918 98.355L59.07 100.435C58.6433 100.755 58.174 101 57.662 101.171C57.1713 101.342 56.67 101.427 56.158 101.427L56.414 98.899C56.6913 98.899 56.9473 98.8564 57.182 98.771C57.438 98.6644 57.6833 98.5257 57.918 98.355Z" fill="#FE3B2E"/>
<path d="M61.7783 100.947V84.787H64.6903V100.947H61.7783ZM63.2183 82.643C62.6849 82.643 62.2369 82.4617 61.8743 82.099C61.5116 81.7364 61.3303 81.2884 61.3303 80.755C61.3303 80.2217 61.5116 79.7737 61.8743 79.411C62.2369 79.027 62.6849 78.835 63.2183 78.835C63.7516 78.835 64.1996 79.027 64.5623 79.411C64.9463 79.7737 65.1383 80.2217 65.1383 80.755C65.1383 81.2884 64.9463 81.7364 64.5623 82.099C64.1996 82.4617 63.7516 82.643 63.2183 82.643Z" fill="#FE3B2E"/>
<path d="M76.9628 95.219V90.515H79.8748V95.219H76.9628ZM67.9708 95.219V90.515H70.8828V95.219H67.9708ZM73.8268 86.835V84.307H74.0188V86.835H73.8268ZM73.8268 101.427V98.899H74.0188V101.427H73.8268ZM67.9708 90.547C67.9708 89.3524 68.2268 88.2857 68.7388 87.347C69.2721 86.4084 69.9761 85.6724 70.8508 85.139C71.7468 84.5844 72.7601 84.307 73.8908 84.307V86.835C72.9521 86.835 72.2161 87.155 71.6828 87.795C71.1494 88.435 70.8828 89.3524 70.8828 90.547H67.9708ZM79.8748 90.547H76.9628C76.9628 89.3524 76.6961 88.435 76.1628 87.795C75.6508 87.155 74.9148 86.835 73.9548 86.835V84.307C75.0854 84.307 76.0881 84.5844 76.9628 85.139C77.8588 85.6724 78.5628 86.4084 79.0748 87.347C79.6081 88.2857 79.8748 89.3524 79.8748 90.547ZM67.9708 95.187H70.8828C70.8828 96.3604 71.1494 97.2777 71.6828 97.939C72.2161 98.579 72.9521 98.899 73.8908 98.899V101.427C72.7601 101.427 71.7468 101.16 70.8508 100.627C69.9761 100.072 69.2721 99.3257 68.7388 98.387C68.2268 97.4484 67.9708 96.3817 67.9708 95.187ZM79.8748 95.187C79.8748 96.3817 79.6081 97.4484 79.0748 98.387C78.5628 99.3257 77.8588 100.072 76.9628 100.627C76.0881 101.16 75.0854 101.427 73.9548 101.427V98.899C74.9148 98.899 75.6508 98.579 76.1628 97.939C76.6961 97.2777 76.9628 96.3604 76.9628 95.187H79.8748Z" fill="#FE3B2E"/>
<path d="M82.8333 100.947V84.787H85.7453V100.947H82.8333ZM91.8253 100.947V89.939H94.7373V100.947H91.8253ZM91.8253 89.939C91.8253 89.043 91.5479 88.3177 90.9933 87.763C90.4386 87.187 89.7239 86.899 88.8493 86.899L89.5853 84.307C90.5666 84.307 91.4413 84.5524 92.2093 85.043C92.9986 85.5337 93.6173 86.2057 94.0653 87.059C94.5133 87.9124 94.7373 88.8724 94.7373 89.939H91.8253ZM84.4653 90.003C84.4653 88.915 84.6893 87.9444 85.1373 87.091C85.5853 86.2164 86.1933 85.5337 86.9613 85.043C87.7293 84.5524 88.6039 84.307 89.5853 84.307L88.8493 86.899C87.9319 86.899 87.1853 87.187 86.6093 87.763C86.0333 88.339 85.7453 89.0857 85.7453 90.003H84.4653Z" fill="#FE3B2E"/>
<path d="M119.539 100.947L108.691 88.659L110.515 86.771L121.459 99.155L119.539 100.947ZM110.195 101.491C108.275 101.491 106.781 100.979 105.715 99.955C104.648 98.9097 104.115 97.523 104.115 95.795L106.994 95.891C106.994 96.5524 107.123 97.1177 107.379 97.587C107.656 98.035 108.04 98.3764 108.531 98.611C109.021 98.8457 109.576 98.963 110.195 98.963V101.491ZM110.195 101.491V98.963C110.579 98.963 110.984 98.8884 111.41 98.739C111.837 98.5897 112.285 98.3444 112.755 98.003C113.245 97.6404 113.768 97.171 114.323 96.595L115.954 98.579C115.272 99.283 114.6 99.8484 113.938 100.275C113.298 100.68 112.669 100.979 112.051 101.171C111.453 101.384 110.835 101.491 110.195 101.491ZM104.115 95.795C104.093 95.027 104.243 94.2804 104.562 93.555C104.883 92.8084 105.299 92.1044 105.811 91.443C106.323 90.7604 106.867 90.131 107.443 89.555C108.04 88.979 108.605 88.4564 109.139 87.987C109.693 87.5177 110.152 87.1124 110.515 86.771L112.37 88.883C112.072 89.2244 111.624 89.651 111.027 90.163C110.451 90.6537 109.853 91.1977 109.235 91.795C108.616 92.3924 108.082 93.043 107.634 93.747C107.208 94.4297 106.994 95.1444 106.994 95.891L104.115 95.795ZM115.954 98.579L114.323 96.595L118.771 91.763L120.562 93.459L115.954 98.579ZM108.691 88.659C108.2 88.1044 107.709 87.5284 107.219 86.931C106.728 86.3337 106.312 85.7044 105.971 85.043C105.651 84.3604 105.491 83.6457 105.491 82.899L108.307 82.867C108.307 83.3364 108.424 83.8057 108.659 84.275C108.893 84.723 109.181 85.1604 109.522 85.587C109.885 86.0137 110.216 86.4084 110.515 86.771L108.691 88.659ZM105.491 82.899C105.469 81.9604 105.672 81.1177 106.099 80.371C106.547 79.603 107.176 79.0057 107.987 78.579C108.797 78.131 109.704 77.907 110.707 77.907V80.435C110.024 80.435 109.448 80.6697 108.979 81.139C108.509 81.587 108.285 82.163 108.307 82.867L105.491 82.899ZM113.715 83.219C113.608 82.259 113.267 81.555 112.691 81.107C112.136 80.659 111.464 80.435 110.674 80.435V77.907C111.677 77.907 112.584 78.1097 113.395 78.515C114.227 78.9204 114.898 79.4857 115.41 80.211C115.944 80.915 116.275 81.7364 116.403 82.675L113.715 83.219Z" fill="#FE3B2E"/>
<path d="M131.333 100.947V84.787H134.245V100.947H131.333ZM139.685 100.947V89.939H142.597V100.947H139.685ZM132.933 90.003C132.933 88.915 133.136 87.9444 133.541 87.091C133.968 86.2164 134.544 85.5337 135.269 85.043C135.995 84.5524 136.805 84.307 137.701 84.307L136.965 86.899C136.197 86.899 135.547 87.187 135.013 87.763C134.501 88.339 134.245 89.0857 134.245 90.003H132.933ZM139.685 89.939C139.685 89.043 139.429 88.3177 138.917 87.763C138.405 87.187 137.755 86.899 136.965 86.899L137.701 84.307C138.64 84.307 139.472 84.5524 140.197 85.043C140.944 85.5337 141.531 86.2057 141.957 87.059C142.384 87.891 142.597 88.851 142.597 89.939H139.685ZM148.005 100.947V89.939H150.917V100.947H148.005ZM141.285 90.003C141.285 88.915 141.488 87.9444 141.893 87.091C142.32 86.2164 142.885 85.5337 143.589 85.043C144.315 84.5524 145.125 84.307 146.021 84.307L145.285 86.899C144.517 86.899 143.877 87.187 143.365 87.763C142.853 88.339 142.597 89.0857 142.597 90.003H141.285ZM148.005 89.939C148.005 89.043 147.749 88.3177 147.237 87.763C146.747 87.187 146.096 86.899 145.285 86.899L146.021 84.307C146.96 84.307 147.792 84.5524 148.517 85.043C149.264 85.5337 149.851 86.2057 150.277 87.059C150.704 87.891 150.917 88.851 150.917 89.939H148.005Z" fill="#FE3B2E"/>
<path d="M162.369 95.219V90.515H165.281V95.219H162.369ZM153.377 95.219V90.515H156.289V95.219H153.377ZM159.233 86.835V84.307H159.425V86.835H159.233ZM159.233 101.427V98.899H159.425V101.427H159.233ZM153.377 90.547C153.377 89.3524 153.633 88.2857 154.145 87.347C154.678 86.4084 155.382 85.6724 156.257 85.139C157.153 84.5844 158.166 84.307 159.297 84.307V86.835C158.358 86.835 157.622 87.155 157.089 87.795C156.556 88.435 156.289 89.3524 156.289 90.547H153.377ZM165.281 90.547H162.369C162.369 89.3524 162.102 88.435 161.569 87.795C161.057 87.155 160.321 86.835 159.361 86.835V84.307C160.492 84.307 161.494 84.5844 162.369 85.139C163.265 85.6724 163.969 86.4084 164.481 87.347C165.014 88.2857 165.281 89.3524 165.281 90.547ZM153.377 95.187H156.289C156.289 96.3604 156.556 97.2777 157.089 97.939C157.622 98.579 158.358 98.899 159.297 98.899V101.427C158.166 101.427 157.153 101.16 156.257 100.627C155.382 100.072 154.678 99.3257 154.145 98.387C153.633 97.4484 153.377 96.3817 153.377 95.187ZM165.281 95.187C165.281 96.3817 165.014 97.4484 164.481 98.387C163.969 99.3257 163.265 100.072 162.369 100.627C161.494 101.16 160.492 101.427 159.361 101.427V98.899C160.321 98.899 161.057 98.579 161.569 97.939C162.102 97.2777 162.369 96.3604 162.369 95.187H165.281Z" fill="#FE3B2E"/>
<path d="M168.24 100.947V84.787H171.152V100.947H168.24ZM169.84 90.131C169.84 89.043 170.021 88.0724 170.383 87.219C170.746 86.3444 171.237 85.6617 171.855 85.171C172.495 84.6804 173.199 84.435 173.967 84.435L173.712 87.155C172.965 87.155 172.346 87.443 171.855 88.019C171.386 88.5737 171.152 89.2777 171.152 90.131H169.84ZM175.632 87.891C175.376 87.6777 175.066 87.507 174.704 87.379C174.362 87.2297 174.032 87.155 173.712 87.155L173.967 84.435C174.458 84.435 174.938 84.531 175.408 84.723C175.877 84.8937 176.282 85.139 176.624 85.459L175.632 87.891Z" fill="#FE3B2E"/>
<path d="M178.086 93.747V91.667H188.998V93.747H178.086ZM183.046 101.459V98.931H183.206V101.459H183.046ZM177.158 95.219V90.515H180.07V95.219H177.158ZM186.086 91.667V90.003H188.998V91.667H186.086ZM188.998 90.003H186.086C186.086 89.0644 185.798 88.2964 185.222 87.699C184.668 87.1017 183.942 86.803 183.046 86.803V84.307C184.198 84.307 185.212 84.5524 186.086 85.043C186.982 85.5337 187.686 86.2164 188.198 87.091C188.732 87.9444 188.998 88.915 188.998 90.003ZM186.214 96.147L188.934 96.691C188.806 97.6084 188.476 98.4297 187.942 99.155C187.409 99.8804 186.737 100.446 185.926 100.851C185.116 101.256 184.209 101.459 183.206 101.459V98.931C183.974 98.931 184.636 98.707 185.19 98.259C185.766 97.7897 186.108 97.0857 186.214 96.147ZM177.158 90.547C177.158 89.331 177.414 88.2644 177.926 87.347C178.46 86.4084 179.164 85.6724 180.038 85.139C180.934 84.5844 181.948 84.307 183.078 84.307V86.803C182.14 86.803 181.404 87.1337 180.87 87.795C180.337 88.435 180.07 89.3524 180.07 90.547H177.158ZM177.158 95.219H180.07C180.07 96.3924 180.337 97.3097 180.87 97.971C181.404 98.611 182.14 98.931 183.078 98.931V101.459C181.948 101.459 180.934 101.192 180.038 100.659C179.164 100.104 178.46 99.3577 177.926 98.419C177.414 97.4804 177.158 96.4137 177.158 95.219Z" fill="#FE3B2E"/>
</svg>
