<svg width="147" height="71" viewBox="0 0 147 71" fill="none" xmlns="http://www.w3.org/2000/svg">
<path d="M60.2969 65.7024L60.2002 65.6731L60.0996 65.6838L43.5986 67.4582L36.5215 62.1721L36.3965 62.0784L36.2412 62.0725L19.3057 61.4309L19.1943 55.97L19.1865 55.5676L18.792 55.4895L4.75879 52.7014L10.9063 47.9377L11.5498 47.4387L10.8135 47.0901L1.77832 42.8166L13.4863 39.1965L14.0977 39.0071L13.7656 38.4602L10.6475 33.3176L26.4912 31.5325L26.7266 31.5061L26.8555 31.3079L30.4609 25.7512L47.6113 26.3215L47.7295 26.3254L47.8359 26.2756L58.085 21.5676L73.1553 24.468L73.25 24.4856L73.3447 24.468L88.416 21.5676L98.6641 26.2756L98.7705 26.3254L98.8887 26.3215L116.04 25.7512L119.645 31.3079L119.773 31.5061L120.009 31.5325L135.854 33.3176L132.734 38.4602L132.402 39.0071L133.014 39.1965L144.723 42.8167L135.687 47.0901L134.95 47.4387L135.594 47.9377L141.742 52.7014L127.708 55.4895L127.313 55.5676L127.306 55.97L127.195 61.4309L110.259 62.0725L110.104 62.0784L109.979 62.1721L102.902 67.4582L86.4004 65.6838L86.2998 65.6731L86.2031 65.7024L73.25 69.5989L60.2969 65.7024Z" fill="#FF2875" stroke="white"/>
<path d="M41.6489 24.192C41.6489 21.0347 41.7556 18.0053 41.9689 15.104C42.1823 12.2027 42.7583 9.64267 43.6969 7.424C44.6356 5.16267 46.0436 3.37066 47.9209 2.048C49.8409 0.682665 52.4863 0 55.8569 0C58.6303 0 60.9129 0.405333 62.7049 1.216C64.5396 1.984 65.9903 3.24267 67.0569 4.992C68.1663 6.74133 68.9343 9.024 69.3609 11.84C69.8303 14.6133 70.0649 18.0053 70.0649 22.016C70.0649 25.1733 69.9583 28.2027 69.7449 31.104C69.5316 34.0053 68.9556 36.5867 68.0169 38.848C67.0783 41.0667 65.6489 42.816 63.7289 44.096C61.8516 45.376 59.2276 46.016 55.8569 46.016C53.1263 46.016 50.8436 45.6533 49.0089 44.928C47.1743 44.2027 45.7023 42.9653 44.5929 41.216C43.5263 39.4667 42.7583 37.2053 42.2889 34.432C41.8623 31.616 41.6489 28.2027 41.6489 24.192ZM50.8649 26.176C50.8649 29.0347 50.9289 31.3813 51.0569 33.216C51.2276 35.008 51.5049 36.4373 51.8889 37.504C52.2729 38.528 52.7849 39.232 53.4249 39.616C54.0649 40 54.8756 40.192 55.8569 40.192C56.8809 40.192 57.7129 39.9573 58.3529 39.488C58.9929 38.976 59.4836 38.144 59.8249 36.992C60.2089 35.7973 60.4649 34.2187 60.5929 32.256C60.7636 30.2933 60.8489 27.8613 60.8489 24.96V20.032C60.8489 17.1733 60.7636 14.848 60.5929 13.056C60.4649 11.2213 60.2089 9.792 59.8249 8.768C59.4409 7.70133 58.9289 6.976 58.2889 6.592C57.6489 6.208 56.8383 6.016 55.8569 6.016C54.8329 6.016 54.0009 6.272 53.3609 6.784C52.7209 7.25333 52.2089 8.08533 51.8249 9.28C51.4836 10.432 51.2276 11.9893 51.0569 13.952C50.9289 15.9147 50.8649 18.3467 50.8649 21.248V26.176Z" fill="white"/>
<path d="M72.1429 28.352L87.1829 0H96.7189V28.736H101.071V35.904H96.7189V45.312H88.2709V35.904H72.1429V28.352ZM88.2709 11.52H88.1429L79.3109 28.736H88.2709V11.52Z" fill="white"/>
</svg>
