<svg width="123" height="107" viewBox="0 0 123 107" fill="none" xmlns="http://www.w3.org/2000/svg">
<path d="M53.155 72.356L52.9822 71.6567L52.3875 72.064L22.8171 92.2895L40.0818 63.0415L40.5085 62.3179L39.6697 62.2876L2.573 60.9292L36.8718 48.4116L37.7019 48.1089L37.0144 47.5532L9.58472 25.3657L45.0623 35.3686L45.8074 35.5796L45.6921 34.813L40.7312 1.98876L60.7605 30.0229L61.1677 30.5923L61.574 30.0229L81.6043 1.98877L76.6423 34.813L76.5271 35.5796L77.2722 35.3686L112.751 25.3657L85.3201 47.5532L84.6326 48.1089L85.4627 48.4116L119.762 60.9292L82.6648 62.2876L81.8259 62.3179L82.2527 63.0415L99.5183 92.2895L69.947 72.064L69.3523 71.6567L69.1794 72.356L61.1677 104.775L53.155 72.356Z" fill="#4DB8FF" stroke="white"/>
</svg>
