<svg width="1280" height="1080" viewBox="0 0 1280 1080" fill="none" xmlns="http://www.w3.org/2000/svg">
  <path d="M71.9655 457.502H63.071C58.6625 457.502 55.0886 465.349 55.0886 475.03C55.0886 484.71 58.6625 492.558 63.071 492.558H71.9655V457.502Z" fill="#8CFFFD" stroke="#FE3B2E"/>
  <ellipse cx="72.0571" cy="475.03" rx="7.98242" ry="17.528" fill="#FE3B2E" stroke="#FE3B2E"/>
  <path d="M71.5586 475.683L630.234 632.899" stroke="#8CFFFD"/>
  <path d="M632.521 634.043L1149.63 616.924" stroke="white" stroke-dasharray="8 8"/>
  <path d="M632.521 634.043L1129.94 951.659" stroke="#F4EE45" stroke-dasharray="8 8"/>
  <path d="M632.521 634.043L885.213 986.82" stroke="#CE64FF" stroke-dasharray="8 8"/>
  <path d="M632.521 634.043L948.529 742.343" stroke="#FE3B2E" stroke-dasharray="8 8"/>
  <path d="M575.747 512.847C727.489 467.046 869.407 440.688 976.185 435.089C1029.58 432.29 1074.16 434.683 1106.77 442.417C1139.43 450.16 1159.91 463.209 1165.45 481.562C1170.99 499.915 1161.15 522.117 1138.23 546.635C1115.34 571.123 1079.53 597.78 1033.5 624.988C941.458 679.401 808.656 735.962 656.914 781.762C505.172 827.562 363.254 853.921 256.475 859.519C203.083 862.319 158.505 859.925 125.887 852.192C93.2291 844.449 72.7464 831.4 67.2068 813.048C61.6673 794.695 71.5101 772.492 94.4308 747.973C117.323 723.485 153.133 696.829 199.158 669.621C291.203 615.208 424.005 558.647 575.747 512.847Z" stroke="#8CFFFD"/>
</svg>
