<svg width="771" height="194" viewBox="0 0 771 194" fill="none" xmlns="http://www.w3.org/2000/svg">
<mask id="path-1-inside-1_6433_888" fill="white">
<path d="M760.634 0C766.157 0 770.634 4.47715 770.634 10V183.541C770.634 189.064 766.157 193.541 760.634 193.541H10C4.47715 193.541 0 189.064 0 183.541V10C0 4.47715 4.47715 0 10 0H186.201C195.048 0 202.215 7.17986 202.201 16.0269L202.159 40.8403C202.144 49.6873 209.312 56.8672 218.159 56.8672H260.427C269.277 56.8672 276.447 64.0527 276.427 72.9034L276.36 102.139C276.34 110.98 283.495 118.161 292.336 118.175L379.081 118.308C387.921 118.321 395.096 111.164 395.105 102.324L395.194 15.9835C395.204 7.1534 402.364 0 411.194 0H760.634Z"/>
</mask>
<path d="M760.634 0C766.157 0 770.634 4.47715 770.634 10V183.541C770.634 189.064 766.157 193.541 760.634 193.541H10C4.47715 193.541 0 189.064 0 183.541V10C0 4.47715 4.47715 0 10 0H186.201C195.048 0 202.215 7.17986 202.201 16.0269L202.159 40.8403C202.144 49.6873 209.312 56.8672 218.159 56.8672H260.427C269.277 56.8672 276.447 64.0527 276.427 72.9034L276.36 102.139C276.34 110.98 283.495 118.161 292.336 118.175L379.081 118.308C387.921 118.321 395.096 111.164 395.105 102.324L395.194 15.9835C395.204 7.1534 402.364 0 411.194 0H760.634Z" fill="black"/>
<path d="M395.194 15.9835L394.194 15.9825L395.194 15.9835ZM379.081 118.308L379.079 119.308L379.081 118.308ZM395.105 102.324L396.105 102.325L395.105 102.324ZM276.36 102.139L275.36 102.136L276.36 102.139ZM276.427 72.9034L277.427 72.9057L276.427 72.9034ZM202.159 40.8403L201.159 40.8386L202.159 40.8403ZM202.201 16.0269L203.201 16.0286L202.201 16.0269ZM760.634 0V1C765.604 1 769.634 5.02944 769.634 10H770.634H771.634C771.634 3.92487 766.709 -1 760.634 -1V0ZM770.634 10H769.634V183.541H770.634H771.634V10H770.634ZM770.634 183.541H769.634C769.634 188.512 765.604 192.541 760.634 192.541V193.541V194.541C766.709 194.541 771.634 189.616 771.634 183.541H770.634ZM760.634 193.541V192.541H10V193.541V194.541H760.634V193.541ZM10 193.541V192.541C5.02944 192.541 1 188.512 1 183.541H0H-1C-1 189.616 3.92487 194.541 10 194.541V193.541ZM0 183.541H1V10H0H-1V183.541H0ZM0 10H1C1 5.02944 5.02944 1 10 1V0V-1C3.92487 -1 -1 3.92487 -1 10H0ZM10 0V1H186.201V0V-1H10V0ZM202.201 16.0269L201.201 16.0252L201.159 40.8386L202.159 40.8403L203.159 40.842L203.201 16.0286L202.201 16.0269ZM218.159 56.8672V57.8672H260.427V56.8672V55.8672H218.159V56.8672ZM276.427 72.9034L275.427 72.9011L275.36 102.136L276.36 102.139L277.36 102.141L277.427 72.9057L276.427 72.9034ZM292.336 118.175L292.334 119.175L379.079 119.308L379.081 118.308L379.082 117.308L292.337 117.175L292.336 118.175ZM395.105 102.324L396.105 102.325L396.194 15.9845L395.194 15.9835L394.194 15.9825L394.105 102.323L395.105 102.324ZM411.194 0V1H760.634V0V-1H411.194V0ZM395.194 15.9835L396.194 15.9845C396.203 7.70631 402.916 1 411.194 1V0V-1C401.812 -1 394.204 6.60049 394.194 15.9825L395.194 15.9835ZM379.081 118.308L379.079 119.308C388.472 119.322 396.096 111.717 396.105 102.325L395.105 102.324L394.105 102.323C394.097 110.61 387.37 117.32 379.082 117.308L379.081 118.308ZM276.36 102.139L275.36 102.136C275.339 111.53 282.941 119.161 292.334 119.175L292.336 118.175L292.337 117.175C284.049 117.162 277.342 110.429 277.36 102.141L276.36 102.139ZM260.427 56.8672V57.8672C268.724 57.8672 275.445 64.6036 275.427 72.9011L276.427 72.9034L277.427 72.9057C277.448 63.5018 269.831 55.8672 260.427 55.8672V56.8672ZM202.159 40.8403L201.159 40.8386C201.143 50.2386 208.759 57.8672 218.159 57.8672V56.8672V55.8672C209.865 55.8672 203.145 49.1361 203.159 40.842L202.159 40.8403ZM186.201 0V1C194.495 1 201.215 7.73112 201.201 16.0252L202.201 16.0269L203.201 16.0286C203.216 6.6286 195.601 -1 186.201 -1V0Z" fill="white" mask="url(#path-1-inside-1_6433_888)"/>
</svg>
