<svg width="771" height="194" viewBox="0 0 771 194" fill="none" xmlns="http://www.w3.org/2000/svg">
<path d="M760.634 0C766.157 0 770.634 4.47715 770.634 10V183.541C770.634 189.064 766.157 193.541 760.634 193.541H10C4.47715 193.541 0 189.064 0 183.541V10C0 4.47715 4.47715 0 10 0H186.201C195.048 0 202.215 7.17986 202.201 16.0269L202.159 40.8403C202.144 49.6873 209.312 56.8672 218.159 56.8672H260.427C269.277 56.8672 276.447 64.0527 276.427 72.9034L276.36 102.139C276.34 110.98 283.495 118.161 292.336 118.175L379.081 118.308C387.921 118.321 395.096 111.164 395.105 102.324L395.194 15.9835C395.204 7.1534 402.364 0 411.194 0H760.634Z" fill="white"/>
</svg>
