<svg width="170" height="68" viewBox="0 0 170 68" fill="none" xmlns="http://www.w3.org/2000/svg">
<path d="M4 0.5H165.311C167.243 0.500148 168.811 2.0671 168.811 4V22.2402C168.811 24.1731 167.243 25.7401 165.311 25.7402H88.626C86.157 25.7402 84.1555 27.742 84.1553 30.2109C84.1553 32.68 86.1569 34.6816 88.626 34.6816H137.911C142.021 34.6816 142.768 40.5398 138.789 41.5703L87.5273 54.8467C85.5421 55.3608 84.1553 57.1524 84.1553 59.2031V63.3281C84.1552 65.261 82.5882 66.8281 80.6553 66.8281H4C2.06703 66.8281 0.500033 65.2611 0.5 63.3281V4C0.5 2.067 2.067 0.5 4 0.5Z" fill="black" stroke="#8CFFFD"/>
</svg>
