<svg width="71" height="68" viewBox="0 0 71 68" fill="none" xmlns="http://www.w3.org/2000/svg">
<rect x="0.5" y="0.5" width="69.2984" height="66.3281" rx="22.5" fill="black" stroke="#FE3B2E"/>
<path d="M53.4664 34.4392C53.4664 35.0158 53.3713 35.5587 53.1855 36.0546C52.9886 36.5818 52.6966 37.044 52.3205 37.4322C51.94 37.8226 51.4821 38.1255 50.9578 38.3296C50.4711 38.5181 49.9379 38.6146 49.3738 38.6146C48.8097 38.6146 48.2699 38.5181 47.7854 38.3274C47.6682 38.2803 47.5532 38.2287 47.4425 38.1726C47.1395 38.3835 46.7722 38.5069 46.3762 38.5069H45.2038C45.0379 38.5069 44.8786 38.4844 44.7259 38.444C44.5733 38.4844 44.414 38.5069 44.2481 38.5069H43.0756C42.6796 38.5069 42.3124 38.3835 42.0093 38.1726C41.8943 38.2287 41.777 38.2825 41.6554 38.3296C41.1709 38.5181 40.6377 38.6146 40.0714 38.6146C39.5051 38.6146 38.9697 38.5181 38.483 38.3274C38.2817 38.2466 38.0893 38.1524 37.9079 38.0447C37.5782 38.3319 37.1491 38.5069 36.6801 38.5069H35.5076C35.366 38.5069 35.2267 38.4912 35.0939 38.4598C35.0629 38.4687 35.032 38.4755 35.001 38.4799C34.8262 38.5091 34.6471 38.5271 34.448 38.5383C34.2953 38.545 34.1493 38.5473 34.0055 38.5473C33.7312 38.5473 33.4613 38.5271 33.2069 38.4889C32.8109 38.4283 32.4459 38.2982 32.1185 38.1075C31.9835 38.029 31.8574 37.9392 31.7402 37.836C31.3951 38.2466 30.8818 38.5069 30.3089 38.5069H29.1364C28.7471 38.5069 28.3843 38.388 28.0834 38.1815C27.975 38.2354 27.8644 38.2848 27.7516 38.3296C27.2627 38.5181 26.7295 38.6146 26.1654 38.6146C25.6013 38.6146 25.0637 38.5181 24.577 38.3274C24.0594 38.1232 23.6036 37.8203 23.2231 37.4299C22.8957 37.0911 22.6303 36.694 22.4378 36.2453C22.2608 36.2879 22.0794 36.3171 21.8892 36.3373V36.5975C21.8892 37.652 21.0463 38.5069 20.0088 38.5069H18.7124C17.6727 38.5069 16.832 37.652 16.832 36.5975V30.6205C16.832 29.5682 17.6727 28.7134 18.7124 28.7134H21.3693C21.9843 28.7134 22.544 28.8166 23.0307 29.023C23.5417 29.2384 23.9775 29.539 24.3248 29.9227C24.4819 30.0955 24.6213 30.2794 24.7385 30.4769C25.181 30.3221 25.661 30.2458 26.1654 30.2458C26.7361 30.2458 27.2759 30.3445 27.767 30.5419C27.8754 30.5846 27.9816 30.6339 28.0856 30.6878C28.3865 30.4814 28.7471 30.3625 29.1364 30.3625H30.2514C30.3797 30.3625 30.508 30.3759 30.6297 30.4006C30.7159 30.3737 30.8022 30.349 30.8907 30.3288C31.1495 29.5906 31.8442 29.0656 32.6605 29.0656H33.833C34.2046 29.0656 34.5497 29.1733 34.8417 29.3663C35.2864 29.0252 35.9611 28.7134 36.9345 28.7134C37.0871 28.7134 37.242 28.7201 37.3968 28.7313C37.4853 28.7381 37.5716 28.7448 37.6557 28.7493C38.5317 28.7986 39.244 29.4515 39.4033 30.2951C39.6201 30.2615 39.8436 30.2458 40.0714 30.2458C40.4674 30.2458 40.8479 30.2929 41.2085 30.3894C41.3213 29.447 42.1133 28.7134 43.0756 28.7134H44.2481C44.414 28.7134 44.5733 28.7358 44.7259 28.7762C44.8786 28.7358 45.0379 28.7134 45.2038 28.7134H46.3762C47.3386 28.7134 48.1305 29.4448 48.2456 30.3871C48.6017 30.2929 48.98 30.2458 49.3738 30.2458C49.9446 30.2458 50.4821 30.3445 50.9732 30.5419C51.4909 30.7484 51.9444 31.049 52.3227 31.4372C52.6988 31.8253 52.9908 32.292 53.1877 32.8237C53.3735 33.3196 53.4664 33.8625 53.4664 34.4392Z" fill="#6E6D6D" stroke="#FE3B2E" stroke-miterlimit="10"/>
</svg>
